M48
;DRILL file {Pcbnew (2012-01-19 BZR 3256)-stable} date 4/6/2012 2:10:20 AM
;FORMAT={-:-/ absolute / inch / decimal}
FMAT,2
INCH,TZ
T1C0.025
T2C0.032
T3C0.040
T4C0.045
T5C0.116
%
G90
G05
M72
T1
X1.295Y-1.606
X1.373Y-2.746
X1.388Y-1.817
X1.399Y-1.502
X1.423Y-2.563
X1.436Y-1.617
X1.491Y-2.467
X1.494Y-2.746
X1.532Y-2.632
X1.614Y-1.256
X1.725Y-1.277
X1.759Y-1.486
X1.843Y-3.296
X1.859Y-3.089
X1.913Y-1.347
X1.929Y-3.029
X2.011Y-1.526
X2.125Y-2.994
X2.208Y-1.451
X2.304Y-2.950
X2.333Y-1.487
X2.639Y-1.723
X2.803Y-3.223
X2.889Y-3.127
T2
X1.925Y-1.135
X1.980Y-3.225
X2.025Y-1.335
X2.080Y-3.425
X2.125Y-1.135
X2.180Y-3.225
X2.280Y-1.135
X2.340Y-3.225
X2.380Y-1.335
X2.440Y-3.425
X2.480Y-1.135
X2.540Y-3.225
T3
X1.800Y-1.750
X1.800Y-1.850
X1.800Y-1.950
X1.800Y-2.050
X1.800Y-2.475
X1.800Y-2.575
X1.800Y-2.675
X1.800Y-2.775
X1.900Y-1.750
X1.900Y-1.850
X1.900Y-1.950
X1.900Y-2.050
X1.900Y-2.475
X1.900Y-2.575
X1.900Y-2.675
X1.900Y-2.775
X2.000Y-1.750
X2.000Y-1.850
X2.000Y-1.950
X2.000Y-2.050
X2.000Y-2.475
X2.000Y-2.575
X2.000Y-2.675
X2.000Y-2.775
X2.100Y-1.750
X2.100Y-1.850
X2.100Y-1.950
X2.100Y-2.050
X2.100Y-2.475
X2.100Y-2.575
X2.100Y-2.675
X2.100Y-2.775
X2.235Y-2.430
X2.235Y-2.530
X2.238Y-1.813
X2.238Y-1.913
X2.335Y-2.430
X2.335Y-2.530
X2.337Y-1.813
X2.337Y-1.913
X2.390Y-1.630
X2.435Y-2.430
X2.435Y-2.530
X2.438Y-1.813
X2.438Y-1.913
X2.490Y-1.630
X2.535Y-2.430
X2.535Y-2.530
X2.538Y-1.813
X2.538Y-1.913
X2.590Y-1.630
X2.635Y-2.430
X2.635Y-2.530
X2.638Y-1.813
X2.638Y-1.913
X2.735Y-2.430
X2.735Y-2.530
X2.738Y-1.813
X2.738Y-1.913
X2.835Y-2.430
X2.835Y-2.530
X2.838Y-1.813
X2.838Y-1.913
X2.935Y-2.430
X2.935Y-2.530
X2.938Y-1.813
X2.938Y-1.913
T4
X1.175Y-2.043
X1.175Y-2.181
X1.175Y-2.319
X1.175Y-2.457
X2.653Y-1.224
X2.777Y-1.282
X3.168Y-1.640
X3.237Y-1.760
X3.325Y-2.043
X3.325Y-2.181
X3.325Y-2.319
X3.325Y-2.457
T5
X1.625Y-1.625
X1.625Y-2.875
X2.875Y-1.625
X2.875Y-2.875
T0
M30
