G04 (created by PCBNEW-RS274X (2012-01-19 BZR 3256)-stable) date 4/6/2012 2:10:12 AM*
G01*
G70*
G90*
%MOIN*%
G04 Gerber Fmt 3.4, Leading zero omitted, Abs format*
%FSLAX34Y34*%
G04 APERTURE LIST*
%ADD10C,0.006000*%
%ADD11C,0.015000*%
%ADD12C,0.202000*%
%ADD13C,0.080000*%
%ADD14R,0.060000X0.060000*%
%ADD15C,0.060000*%
%ADD16C,0.035000*%
%ADD17C,0.016000*%
G04 APERTURE END LIST*
G54D10*
G54D11*
X10000Y-22500D02*
X10048Y-23589D01*
X10190Y-24670D01*
X10426Y-25735D01*
X10754Y-26775D01*
X11172Y-27782D01*
X11675Y-28749D01*
X12261Y-29669D01*
X12925Y-30534D01*
X13662Y-31338D01*
X14466Y-32075D01*
X15331Y-32739D01*
X16251Y-33325D01*
X17218Y-33828D01*
X18225Y-34246D01*
X19265Y-34574D01*
X20330Y-34810D01*
X21411Y-34952D01*
X22500Y-35000D01*
X22500Y-35000D02*
X23589Y-34952D01*
X24670Y-34810D01*
X25735Y-34574D01*
X26775Y-34246D01*
X27782Y-33828D01*
X28750Y-33325D01*
X29669Y-32739D01*
X30534Y-32075D01*
X31338Y-31338D01*
X32075Y-30534D01*
X32739Y-29669D01*
X33325Y-28749D01*
X33828Y-27782D01*
X34246Y-26775D01*
X34574Y-25735D01*
X34810Y-24670D01*
X34952Y-23589D01*
X35000Y-22500D01*
X35000Y-22500D02*
X34952Y-21411D01*
X34810Y-20330D01*
X34574Y-19265D01*
X34246Y-18225D01*
X33828Y-17218D01*
X33325Y-16251D01*
X32739Y-15331D01*
X32075Y-14466D01*
X31338Y-13662D01*
X30534Y-12925D01*
X29669Y-12261D01*
X28750Y-11675D01*
X27782Y-11172D01*
X26775Y-10754D01*
X25735Y-10426D01*
X24670Y-10190D01*
X23589Y-10048D01*
X22500Y-10000D01*
X22500Y-10000D02*
X21411Y-10048D01*
X20330Y-10190D01*
X19265Y-10426D01*
X18225Y-10754D01*
X17218Y-11172D01*
X16251Y-11675D01*
X15331Y-12261D01*
X14466Y-12925D01*
X13662Y-13662D01*
X12925Y-14466D01*
X12261Y-15331D01*
X11675Y-16251D01*
X11172Y-17218D01*
X10754Y-18225D01*
X10426Y-19265D01*
X10190Y-20330D01*
X10048Y-21411D01*
X10000Y-22500D01*
G54D12*
X16250Y-16250D03*
X28750Y-16250D03*
X16250Y-28750D03*
X28750Y-28750D03*
G54D13*
X11750Y-24569D03*
X11750Y-23191D03*
X11750Y-21809D03*
X11750Y-20431D03*
X26525Y-12239D03*
X27773Y-12821D03*
X33250Y-23191D03*
X33250Y-24569D03*
G54D14*
X29350Y-24300D03*
G54D15*
X29350Y-25300D03*
X28350Y-24300D03*
X28350Y-25300D03*
X27350Y-24300D03*
X27350Y-25300D03*
X26350Y-24300D03*
X26350Y-25300D03*
X25350Y-24300D03*
X25350Y-25300D03*
X24350Y-24300D03*
X24350Y-25300D03*
X23350Y-24300D03*
X23350Y-25300D03*
X22350Y-24300D03*
X22350Y-25300D03*
G54D14*
X29375Y-18125D03*
G54D15*
X29375Y-19125D03*
X28375Y-18125D03*
X28375Y-19125D03*
X27375Y-18125D03*
X27375Y-19125D03*
X26375Y-18125D03*
X26375Y-19125D03*
X25375Y-18125D03*
X25375Y-19125D03*
X24375Y-18125D03*
X24375Y-19125D03*
X23375Y-18125D03*
X23375Y-19125D03*
X22375Y-18125D03*
X22375Y-19125D03*
G54D14*
X18000Y-27750D03*
G54D15*
X18000Y-26750D03*
X19000Y-27750D03*
X19000Y-26750D03*
X20000Y-27750D03*
X20000Y-26750D03*
X21000Y-27750D03*
X21000Y-26750D03*
G54D14*
X18000Y-20500D03*
G54D15*
X18000Y-19500D03*
X19000Y-20500D03*
X19000Y-19500D03*
X20000Y-20500D03*
X20000Y-19500D03*
X21000Y-20500D03*
X21000Y-19500D03*
G54D14*
X18000Y-25750D03*
G54D15*
X18000Y-24750D03*
X19000Y-25750D03*
X19000Y-24750D03*
X20000Y-25750D03*
X20000Y-24750D03*
X21000Y-25750D03*
X21000Y-24750D03*
G54D14*
X18000Y-18500D03*
G54D15*
X18000Y-17500D03*
X19000Y-18500D03*
X19000Y-17500D03*
X20000Y-18500D03*
X20000Y-17500D03*
X21000Y-18500D03*
X21000Y-17500D03*
G54D13*
X33250Y-20431D03*
X33250Y-21809D03*
X32370Y-17597D03*
X31682Y-16403D03*
G54D14*
X25900Y-16300D03*
G54D15*
X24900Y-16300D03*
X23900Y-16300D03*
X21800Y-32250D03*
X20800Y-34250D03*
X19800Y-32250D03*
X21250Y-11350D03*
X20250Y-13350D03*
X19250Y-11350D03*
X25400Y-32250D03*
X24400Y-34250D03*
X23400Y-32250D03*
X24800Y-11350D03*
X23800Y-13350D03*
X22800Y-11350D03*
G54D16*
X16135Y-12560D03*
X12949Y-16058D03*
X26386Y-17229D03*
X28885Y-31269D03*
X14234Y-25628D03*
X14359Y-16165D03*
X28027Y-32230D03*
X18431Y-32955D03*
X20108Y-15255D03*
X21252Y-29945D03*
X23039Y-29503D03*
X15318Y-26316D03*
X14938Y-27455D03*
X22075Y-14509D03*
X13985Y-15015D03*
X13883Y-18171D03*
X17586Y-14859D03*
X23328Y-14871D03*
X19132Y-13471D03*
X13730Y-27455D03*
X18588Y-30892D03*
X14911Y-24666D03*
X17251Y-12766D03*
X19291Y-30290D03*
G54D17*
X15632Y-12862D02*
X12949Y-15545D01*
X16135Y-12560D02*
X16135Y-12862D01*
X27305Y-17641D02*
X26481Y-16817D01*
X17421Y-14148D02*
X16135Y-12862D01*
X31310Y-17641D02*
X27305Y-17641D01*
X25461Y-16817D02*
X25416Y-16772D01*
X25416Y-16772D02*
X25416Y-16120D01*
X23444Y-14148D02*
X17421Y-14148D01*
X26481Y-16817D02*
X25461Y-16817D01*
X16135Y-12862D02*
X15632Y-12862D01*
X33962Y-20293D02*
X31310Y-17641D01*
X33962Y-21097D02*
X33962Y-20293D01*
X12949Y-15545D02*
X12949Y-16058D01*
X25416Y-16120D02*
X23444Y-14148D01*
X33250Y-21809D02*
X33962Y-21097D01*
X26865Y-29249D02*
X28885Y-31269D01*
X27773Y-13944D02*
X27773Y-12821D01*
X25900Y-15817D02*
X27773Y-13944D01*
X25900Y-16300D02*
X25900Y-15817D01*
X26386Y-17229D02*
X26865Y-17708D01*
X26865Y-17708D02*
X26865Y-29249D01*
X33250Y-20431D02*
X30328Y-23353D01*
X11440Y-23977D02*
X10726Y-23263D01*
X28463Y-32230D02*
X28027Y-32230D01*
X30328Y-30365D02*
X28463Y-32230D01*
X30328Y-23353D02*
X30328Y-30365D01*
X12162Y-23977D02*
X13813Y-25628D01*
X11166Y-25772D02*
X15660Y-30266D01*
X10726Y-23263D02*
X10726Y-19798D01*
X10726Y-19798D02*
X14359Y-16165D01*
X13813Y-25628D02*
X14234Y-25628D01*
X15660Y-30266D02*
X18230Y-30266D01*
X11440Y-23977D02*
X12162Y-23977D01*
X11166Y-24251D02*
X11166Y-25772D01*
X11440Y-23977D02*
X11166Y-24251D01*
X26100Y-30303D02*
X28027Y-32230D01*
X20371Y-30303D02*
X26100Y-30303D01*
X19999Y-29931D02*
X20371Y-30303D01*
X18565Y-29931D02*
X19999Y-29931D01*
X18230Y-30266D02*
X18565Y-29931D01*
X18230Y-32754D02*
X18431Y-32955D01*
X18230Y-30266D02*
X18230Y-32754D01*
X23859Y-29407D02*
X23321Y-29945D01*
X23321Y-29945D02*
X21252Y-29945D01*
X23859Y-17282D02*
X23918Y-17282D01*
X22135Y-17282D02*
X23859Y-17282D01*
X20108Y-15255D02*
X22135Y-17282D01*
X23918Y-17282D02*
X24900Y-16300D01*
X23859Y-17282D02*
X23859Y-29407D01*
X16368Y-25266D02*
X15318Y-26316D01*
X19471Y-25266D02*
X16368Y-25266D01*
X19516Y-25311D02*
X19471Y-25266D01*
X19516Y-25968D02*
X19516Y-25311D01*
X19814Y-26266D02*
X19516Y-25968D01*
X21460Y-26266D02*
X19814Y-26266D01*
X23039Y-27845D02*
X21460Y-26266D01*
X23039Y-29503D02*
X23039Y-27845D01*
X18000Y-25750D02*
X17517Y-25750D01*
X14938Y-27455D02*
X16643Y-25750D01*
X16643Y-25750D02*
X17517Y-25750D01*
X22044Y-14478D02*
X14522Y-14478D01*
X22075Y-14509D02*
X22044Y-14478D01*
X14522Y-14478D02*
X13985Y-15015D01*
X14071Y-17983D02*
X13883Y-18171D01*
X22040Y-17546D02*
X21603Y-17983D01*
X22796Y-17546D02*
X22040Y-17546D01*
X21603Y-17983D02*
X14071Y-17983D01*
X23375Y-18125D02*
X22796Y-17546D01*
X17598Y-14871D02*
X17586Y-14859D01*
X23328Y-14871D02*
X17598Y-14871D01*
X19132Y-11468D02*
X19132Y-13471D01*
X19250Y-11350D02*
X19132Y-11468D01*
X13730Y-27372D02*
X13730Y-27455D01*
X17386Y-23716D02*
X13730Y-27372D01*
X22766Y-23716D02*
X17386Y-23716D01*
X23350Y-24300D02*
X22766Y-23716D01*
X18588Y-32038D02*
X18588Y-30892D01*
X20800Y-34250D02*
X18588Y-32038D01*
X13225Y-24666D02*
X11750Y-23191D01*
X14911Y-24666D02*
X13225Y-24666D01*
X11750Y-25983D02*
X11750Y-24569D01*
X21000Y-27750D02*
X20516Y-27266D01*
X20516Y-27266D02*
X15765Y-27266D01*
X13764Y-27997D02*
X11750Y-25983D01*
X15034Y-27997D02*
X13764Y-27997D01*
X15765Y-27266D02*
X15034Y-27997D01*
X28593Y-12071D02*
X27698Y-12071D01*
X32954Y-16432D02*
X28593Y-12071D01*
X27698Y-12071D02*
X25906Y-13863D01*
X25906Y-13863D02*
X18348Y-13863D01*
X32954Y-18862D02*
X32954Y-16432D01*
X34225Y-23594D02*
X34225Y-20133D01*
X34225Y-20133D02*
X32954Y-18862D01*
X33250Y-24569D02*
X34225Y-23594D01*
X18348Y-13863D02*
X17251Y-12766D01*
X32456Y-23985D02*
X33250Y-23191D01*
X32456Y-28764D02*
X32456Y-23985D01*
X28508Y-32712D02*
X32456Y-28764D01*
X27966Y-32712D02*
X28508Y-32712D01*
X26755Y-31501D02*
X27966Y-32712D01*
X20502Y-31501D02*
X26755Y-31501D01*
X19291Y-30290D02*
X20502Y-31501D01*
M02*
