M48
;DRILL file {Pcbnew (2011-12-21 BZR 3253)-stable} date Fri 13 Jan 2012 10:17:26 PM MST
;FORMAT={2:4/ absolute / inch / keep zeros}
FMAT,2
INCH,TZ
T1C0.025
T2C0.032
T3C0.040
T4C0.045
T5C0.116
%
G90
G05
M72
T1
X020821Y-038632
X021931Y-028200
X022018Y-035772
X023022Y-037794
X023100Y-027691
X023100Y-031763
X023210Y-024832
X023538Y-035668
X023685Y-037757
X023925Y-022947
X023925Y-027681
X023935Y-013958
X028947Y-043421
X029360Y-041961
X035872Y-022131
X035892Y-039784
X036274Y-013617
X036859Y-027772
X036859Y-035571
X037197Y-021312
X037654Y-021224
X037700Y-013965
X037969Y-028764
X038050Y-032327
X038241Y-012944
X038250Y-034800
X039137Y-013460
X039141Y-021550
X039500Y-043453
X039538Y-020272
X040843Y-035327
X042375Y-034250
X042643Y-022988
T2
X043250Y-011750
X043250Y-013750
X043250Y-015250
X043250Y-017250
X043250Y-019250
X043250Y-021250
X043250Y-022750
X043250Y-024750
X043250Y-026500
X043250Y-028500
X043250Y-030000
X043250Y-032000
X043250Y-033750
X043250Y-035750
X043250Y-037250
X043250Y-039250
X044250Y-012750
X044250Y-016250
X044250Y-020250
X044250Y-023750
X044250Y-027500
X044250Y-031000
X044250Y-034750
X044250Y-038250
T3
X016500Y-013000
X016500Y-014000
X016500Y-015000
X016500Y-016000
X016500Y-020500
X016500Y-021500
X016500Y-022500
X016500Y-023500
X016500Y-027750
X016500Y-028750
X016500Y-029750
X016500Y-030750
X016500Y-035000
X016500Y-036000
X016500Y-037000
X016500Y-038000
X017500Y-013000
X017500Y-014000
X017500Y-015000
X017500Y-016000
X017500Y-020500
X017500Y-021500
X017500Y-022500
X017500Y-023500
X017500Y-027750
X017500Y-028750
X017500Y-029750
X017500Y-030750
X017500Y-035000
X017500Y-036000
X017500Y-037000
X017500Y-038000
X018500Y-013000
X018500Y-014000
X018500Y-015000
X018500Y-016000
X018500Y-020500
X018500Y-021500
X018500Y-022500
X018500Y-023500
X018500Y-027750
X018500Y-028750
X018500Y-029750
X018500Y-030750
X018500Y-035000
X018500Y-036000
X018500Y-037000
X018500Y-038000
X019500Y-013000
X019500Y-014000
X019500Y-015000
X019500Y-016000
X019500Y-020500
X019500Y-021500
X019500Y-022500
X019500Y-023500
X019500Y-027750
X019500Y-028750
X019500Y-029750
X019500Y-030750
X019500Y-035000
X019500Y-036000
X019500Y-037000
X019500Y-038000
X025500Y-013000
X025500Y-014000
X025500Y-020500
X025500Y-021500
X025500Y-027750
X025500Y-028750
X025500Y-035000
X025500Y-036000
X026500Y-013000
X026500Y-014000
X026500Y-020500
X026500Y-021500
X026500Y-027750
X026500Y-028750
X026500Y-035000
X026500Y-036000
X027500Y-013000
X027500Y-014000
X027500Y-020500
X027500Y-021500
X027500Y-027750
X027500Y-028750
X027500Y-035000
X027500Y-036000
X028500Y-013000
X028500Y-014000
X028500Y-020500
X028500Y-021500
X028500Y-027750
X028500Y-028750
X028500Y-035000
X028500Y-036000
X029500Y-013000
X029500Y-014000
X029500Y-020500
X029500Y-021500
X029500Y-027750
X029500Y-028750
X029500Y-035000
X029500Y-036000
X030500Y-013000
X030500Y-014000
X030500Y-020500
X030500Y-021500
X030500Y-027750
X030500Y-028750
X030500Y-035000
X030500Y-036000
X031500Y-013000
X031500Y-014000
X031500Y-020500
X031500Y-021500
X031500Y-027750
X031500Y-028750
X031500Y-035000
X031500Y-036000
X032500Y-013000
X032500Y-014000
X032500Y-020500
X032500Y-021500
X032500Y-027750
X032500Y-028750
X032500Y-035000
X032500Y-036000
T4
X012750Y-013811
X012750Y-015189
X012750Y-021311
X012750Y-022689
X012750Y-028561
X012750Y-029939
X012750Y-035811
X012750Y-037189
X013811Y-043250
X015189Y-043250
X016561Y-043250
X017939Y-043250
X019311Y-043250
X020689Y-043250
X038811Y-043250
X040189Y-043250
X041561Y-043250
X042939Y-043250
T5
X022250Y-021250
X022250Y-033750
X034750Y-021250
X034750Y-033750
T0
M30
