G04 (created by PCBNEW-RS274X (2011-12-21 BZR 3253)-stable) date Fri 13 Jan 2012 10:17:21 PM MST*
G01*
G70*
G90*
%MOIN*%
G04 Gerber Fmt 3.4, Leading zero omitted, Abs format*
%FSLAX34Y34*%
G04 APERTURE LIST*
%ADD10C,0.006000*%
%ADD11C,0.015000*%
%ADD12C,0.082000*%
%ADD13R,0.022000X0.047000*%
%ADD14R,0.047000X0.022000*%
%ADD15R,0.062000X0.062000*%
%ADD16C,0.062000*%
%ADD17R,0.041300X0.045300*%
%ADD18R,0.045300X0.041300*%
%ADD19C,0.204000*%
%ADD20R,0.062000X0.082000*%
%ADD21R,0.082000X0.062000*%
G04 APERTURE END LIST*
G54D10*
G54D11*
X11000Y-45000D02*
X11000Y-10000D01*
X46000Y-45000D02*
X11000Y-45000D01*
X46000Y-10000D02*
X46000Y-45000D01*
X11000Y-10000D02*
X46000Y-10000D01*
G54D12*
X12750Y-29939D03*
X12750Y-28561D03*
X12750Y-22689D03*
X12750Y-21311D03*
X12750Y-15189D03*
X12750Y-13811D03*
X12750Y-37189D03*
X12750Y-35811D03*
X15189Y-43250D03*
X13811Y-43250D03*
X40189Y-43250D03*
X38811Y-43250D03*
X42939Y-43250D03*
X41561Y-43250D03*
G54D13*
X22500Y-13450D03*
X22500Y-15550D03*
X23000Y-13450D03*
X23500Y-13450D03*
X24000Y-13450D03*
X23000Y-15550D03*
X23500Y-15550D03*
X24000Y-15550D03*
X37250Y-13450D03*
X37250Y-15550D03*
X37750Y-13450D03*
X38250Y-13450D03*
X38750Y-13450D03*
X37750Y-15550D03*
X38250Y-15550D03*
X38750Y-15550D03*
X22500Y-23450D03*
X22500Y-25550D03*
X23000Y-23450D03*
X23500Y-23450D03*
X24000Y-23450D03*
X23000Y-25550D03*
X23500Y-25550D03*
X24000Y-25550D03*
X37250Y-20700D03*
X37250Y-22800D03*
X37750Y-20700D03*
X38250Y-20700D03*
X38750Y-20700D03*
X37750Y-22800D03*
X38250Y-22800D03*
X38750Y-22800D03*
X22500Y-28200D03*
X22500Y-30300D03*
X23000Y-28200D03*
X23500Y-28200D03*
X24000Y-28200D03*
X23000Y-30300D03*
X23500Y-30300D03*
X24000Y-30300D03*
X37250Y-28200D03*
X37250Y-30300D03*
X37750Y-28200D03*
X38250Y-28200D03*
X38750Y-28200D03*
X37750Y-30300D03*
X38250Y-30300D03*
X38750Y-30300D03*
X22500Y-36200D03*
X22500Y-38300D03*
X23000Y-36200D03*
X23500Y-36200D03*
X24000Y-36200D03*
X23000Y-38300D03*
X23500Y-38300D03*
X24000Y-38300D03*
X37250Y-35450D03*
X37250Y-37550D03*
X37750Y-35450D03*
X38250Y-35450D03*
X38750Y-35450D03*
X37750Y-37550D03*
X38250Y-37550D03*
X38750Y-37550D03*
G54D14*
X36050Y-42500D03*
X33950Y-42500D03*
X36050Y-43000D03*
X36050Y-43500D03*
X36050Y-44000D03*
X33950Y-43000D03*
X33950Y-43500D03*
X33950Y-44000D03*
X29550Y-42500D03*
X27450Y-42500D03*
X29550Y-43000D03*
X29550Y-43500D03*
X29550Y-44000D03*
X27450Y-43000D03*
X27450Y-43500D03*
X27450Y-44000D03*
G54D15*
X32500Y-27750D03*
G54D16*
X32500Y-28750D03*
X31500Y-27750D03*
X31500Y-28750D03*
X30500Y-27750D03*
X30500Y-28750D03*
X29500Y-27750D03*
X29500Y-28750D03*
X28500Y-27750D03*
X28500Y-28750D03*
X27500Y-27750D03*
X27500Y-28750D03*
X26500Y-27750D03*
X26500Y-28750D03*
X25500Y-27750D03*
X25500Y-28750D03*
G54D15*
X32500Y-35000D03*
G54D16*
X32500Y-36000D03*
X31500Y-35000D03*
X31500Y-36000D03*
X30500Y-35000D03*
X30500Y-36000D03*
X29500Y-35000D03*
X29500Y-36000D03*
X28500Y-35000D03*
X28500Y-36000D03*
X27500Y-35000D03*
X27500Y-36000D03*
X26500Y-35000D03*
X26500Y-36000D03*
X25500Y-35000D03*
X25500Y-36000D03*
G54D15*
X32500Y-20500D03*
G54D16*
X32500Y-21500D03*
X31500Y-20500D03*
X31500Y-21500D03*
X30500Y-20500D03*
X30500Y-21500D03*
X29500Y-20500D03*
X29500Y-21500D03*
X28500Y-20500D03*
X28500Y-21500D03*
X27500Y-20500D03*
X27500Y-21500D03*
X26500Y-20500D03*
X26500Y-21500D03*
X25500Y-20500D03*
X25500Y-21500D03*
G54D15*
X32500Y-13000D03*
G54D16*
X32500Y-14000D03*
X31500Y-13000D03*
X31500Y-14000D03*
X30500Y-13000D03*
X30500Y-14000D03*
X29500Y-13000D03*
X29500Y-14000D03*
X28500Y-13000D03*
X28500Y-14000D03*
X27500Y-13000D03*
X27500Y-14000D03*
X26500Y-13000D03*
X26500Y-14000D03*
X25500Y-13000D03*
X25500Y-14000D03*
G54D15*
X16500Y-23500D03*
G54D16*
X16500Y-22500D03*
X17500Y-23500D03*
X17500Y-22500D03*
X18500Y-23500D03*
X18500Y-22500D03*
X19500Y-23500D03*
X19500Y-22500D03*
G54D15*
X16500Y-16000D03*
G54D16*
X16500Y-15000D03*
X17500Y-16000D03*
X17500Y-15000D03*
X18500Y-16000D03*
X18500Y-15000D03*
X19500Y-16000D03*
X19500Y-15000D03*
G54D15*
X16500Y-21500D03*
G54D16*
X16500Y-20500D03*
X17500Y-21500D03*
X17500Y-20500D03*
X18500Y-21500D03*
X18500Y-20500D03*
X19500Y-21500D03*
X19500Y-20500D03*
G54D15*
X16500Y-14000D03*
G54D16*
X16500Y-13000D03*
X17500Y-14000D03*
X17500Y-13000D03*
X18500Y-14000D03*
X18500Y-13000D03*
X19500Y-14000D03*
X19500Y-13000D03*
G54D15*
X16500Y-38000D03*
G54D16*
X16500Y-37000D03*
X17500Y-38000D03*
X17500Y-37000D03*
X18500Y-38000D03*
X18500Y-37000D03*
X19500Y-38000D03*
X19500Y-37000D03*
G54D15*
X16500Y-30750D03*
G54D16*
X16500Y-29750D03*
X17500Y-30750D03*
X17500Y-29750D03*
X18500Y-30750D03*
X18500Y-29750D03*
X19500Y-30750D03*
X19500Y-29750D03*
G54D15*
X16500Y-28750D03*
G54D16*
X16500Y-27750D03*
X17500Y-28750D03*
X17500Y-27750D03*
X18500Y-28750D03*
X18500Y-27750D03*
X19500Y-28750D03*
X19500Y-27750D03*
G54D15*
X16500Y-36000D03*
G54D16*
X16500Y-35000D03*
X17500Y-36000D03*
X17500Y-35000D03*
X18500Y-36000D03*
X18500Y-35000D03*
X19500Y-36000D03*
X19500Y-35000D03*
G54D17*
X15000Y-28084D03*
X15000Y-27416D03*
X31500Y-37584D03*
X31500Y-36916D03*
X30500Y-37584D03*
X30500Y-36916D03*
X29500Y-37584D03*
X29500Y-36916D03*
X28500Y-37584D03*
X28500Y-36916D03*
X27500Y-37584D03*
X27500Y-36916D03*
X26500Y-37584D03*
X26500Y-36916D03*
X15000Y-35334D03*
X15000Y-34666D03*
X18500Y-26834D03*
X18500Y-26166D03*
X17500Y-26834D03*
X17500Y-26166D03*
X16500Y-26834D03*
X16500Y-26166D03*
X18500Y-34084D03*
X18500Y-33416D03*
X17500Y-34084D03*
X17500Y-33416D03*
X16500Y-34084D03*
X16500Y-33416D03*
G54D18*
X41584Y-26500D03*
X40916Y-26500D03*
X38334Y-26500D03*
X37666Y-26500D03*
X41584Y-33750D03*
X40916Y-33750D03*
X41584Y-24750D03*
X40916Y-24750D03*
G54D17*
X15250Y-23834D03*
X15250Y-23166D03*
X15250Y-16334D03*
X15250Y-15666D03*
G54D18*
X41584Y-17250D03*
X40916Y-17250D03*
X40916Y-22750D03*
X41584Y-22750D03*
X40916Y-15250D03*
X41584Y-15250D03*
G54D17*
X16500Y-25084D03*
X16500Y-24416D03*
X17500Y-25084D03*
X17500Y-24416D03*
X18500Y-25084D03*
X18500Y-24416D03*
G54D18*
X41584Y-21250D03*
X40916Y-21250D03*
G54D17*
X35750Y-23834D03*
X35750Y-23166D03*
X16500Y-17584D03*
X16500Y-16916D03*
X31500Y-30334D03*
X31500Y-29666D03*
X30500Y-30334D03*
X30500Y-29666D03*
X29500Y-30334D03*
X29500Y-29666D03*
X28500Y-30334D03*
X28500Y-29666D03*
X27500Y-30334D03*
X27500Y-29666D03*
X26500Y-30334D03*
X26500Y-29666D03*
X15250Y-13334D03*
X15250Y-12666D03*
X31500Y-23084D03*
X31500Y-22416D03*
X30500Y-23084D03*
X30500Y-22416D03*
X29500Y-23084D03*
X29500Y-22416D03*
X28500Y-23084D03*
X28500Y-22416D03*
X27500Y-23084D03*
X27500Y-22416D03*
X26500Y-23084D03*
X26500Y-22416D03*
X15250Y-20834D03*
X15250Y-20166D03*
X18500Y-12084D03*
X18500Y-11416D03*
X17500Y-12084D03*
X17500Y-11416D03*
X16500Y-12084D03*
X16500Y-11416D03*
X18500Y-19584D03*
X18500Y-18916D03*
X17500Y-19584D03*
X17500Y-18916D03*
X16500Y-19584D03*
X16500Y-18916D03*
G54D18*
X41584Y-11750D03*
X40916Y-11750D03*
X38334Y-11750D03*
X37666Y-11750D03*
X41584Y-19250D03*
X40916Y-19250D03*
X38334Y-19250D03*
X37666Y-19250D03*
G54D17*
X35750Y-14584D03*
X35750Y-13916D03*
G54D18*
X41584Y-14000D03*
X40916Y-14000D03*
G54D17*
X18500Y-17584D03*
X18500Y-16916D03*
X17500Y-17584D03*
X17500Y-16916D03*
G54D18*
X38334Y-33750D03*
X37666Y-33750D03*
G54D17*
X35750Y-29584D03*
X35750Y-28916D03*
G54D18*
X41584Y-28500D03*
X40916Y-28500D03*
G54D17*
X35750Y-36834D03*
X35750Y-36166D03*
G54D18*
X41584Y-36000D03*
X40916Y-36000D03*
G54D17*
X18500Y-32334D03*
X18500Y-31666D03*
X17500Y-32334D03*
X17500Y-31666D03*
X16500Y-32334D03*
X16500Y-31666D03*
X18500Y-39584D03*
X18500Y-38916D03*
X17500Y-39584D03*
X17500Y-38916D03*
X16500Y-39584D03*
X16500Y-38916D03*
G54D18*
X40916Y-30000D03*
X41584Y-30000D03*
X40916Y-37250D03*
X41584Y-37250D03*
X41584Y-32000D03*
X40916Y-32000D03*
G54D17*
X15000Y-31084D03*
X15000Y-30416D03*
G54D18*
X41584Y-39500D03*
X40916Y-39500D03*
G54D17*
X15000Y-38334D03*
X15000Y-37666D03*
X31500Y-15584D03*
X31500Y-14916D03*
X30500Y-15584D03*
X30500Y-14916D03*
X29500Y-15584D03*
X29500Y-14916D03*
X28500Y-15584D03*
X28500Y-14916D03*
X27500Y-15584D03*
X27500Y-14916D03*
X26500Y-15584D03*
X26500Y-14916D03*
G54D19*
X22250Y-21250D03*
X34750Y-21250D03*
X22250Y-33750D03*
X34750Y-33750D03*
G54D12*
X20689Y-43250D03*
X19311Y-43250D03*
X17939Y-43250D03*
X16561Y-43250D03*
G54D20*
X21850Y-40500D03*
X23150Y-40500D03*
G54D21*
X23250Y-42600D03*
X23250Y-43900D03*
G54D20*
X29150Y-40750D03*
X27850Y-40750D03*
X35650Y-40750D03*
X34350Y-40750D03*
G54D21*
X25750Y-42600D03*
X25750Y-43900D03*
X32000Y-42600D03*
X32000Y-43900D03*
G54D16*
X43250Y-22750D03*
X44250Y-23750D03*
X43250Y-24750D03*
X43250Y-15250D03*
X44250Y-16250D03*
X43250Y-17250D03*
X43250Y-19250D03*
X44250Y-20250D03*
X43250Y-21250D03*
X43250Y-11750D03*
X44250Y-12750D03*
X43250Y-13750D03*
X43250Y-37250D03*
X44250Y-38250D03*
X43250Y-39250D03*
X43250Y-30000D03*
X44250Y-31000D03*
X43250Y-32000D03*
X43250Y-33750D03*
X44250Y-34750D03*
X43250Y-35750D03*
X43250Y-26500D03*
X44250Y-27500D03*
X43250Y-28500D03*
M02*
