G04 (created by PCBNEW-RS274X (2011-12-21 BZR 3253)-stable) date Fri 13 Jan 2012 10:17:21 PM MST*
G01*
G70*
G90*
%MOIN*%
G04 Gerber Fmt 3.4, Leading zero omitted, Abs format*
%FSLAX34Y34*%
G04 APERTURE LIST*
%ADD10C,0.006000*%
%ADD11C,0.015000*%
%ADD12C,0.080000*%
%ADD13R,0.020000X0.045000*%
%ADD14R,0.045000X0.020000*%
%ADD15R,0.060000X0.060000*%
%ADD16C,0.060000*%
%ADD17R,0.039300X0.043300*%
%ADD18R,0.043300X0.039300*%
%ADD19C,0.202000*%
%ADD20R,0.060000X0.080000*%
%ADD21R,0.080000X0.060000*%
%ADD22C,0.035000*%
%ADD23C,0.020000*%
%ADD24C,0.010000*%
G04 APERTURE END LIST*
G54D10*
G54D11*
X11000Y-45000D02*
X11000Y-10000D01*
X46000Y-45000D02*
X11000Y-45000D01*
X46000Y-10000D02*
X46000Y-45000D01*
X11000Y-10000D02*
X46000Y-10000D01*
G54D12*
X12750Y-29939D03*
X12750Y-28561D03*
X12750Y-22689D03*
X12750Y-21311D03*
X12750Y-15189D03*
X12750Y-13811D03*
X12750Y-37189D03*
X12750Y-35811D03*
X15189Y-43250D03*
X13811Y-43250D03*
X40189Y-43250D03*
X38811Y-43250D03*
X42939Y-43250D03*
X41561Y-43250D03*
G54D13*
X22500Y-13450D03*
X22500Y-15550D03*
X23000Y-13450D03*
X23500Y-13450D03*
X24000Y-13450D03*
X23000Y-15550D03*
X23500Y-15550D03*
X24000Y-15550D03*
X37250Y-13450D03*
X37250Y-15550D03*
X37750Y-13450D03*
X38250Y-13450D03*
X38750Y-13450D03*
X37750Y-15550D03*
X38250Y-15550D03*
X38750Y-15550D03*
X22500Y-23450D03*
X22500Y-25550D03*
X23000Y-23450D03*
X23500Y-23450D03*
X24000Y-23450D03*
X23000Y-25550D03*
X23500Y-25550D03*
X24000Y-25550D03*
X37250Y-20700D03*
X37250Y-22800D03*
X37750Y-20700D03*
X38250Y-20700D03*
X38750Y-20700D03*
X37750Y-22800D03*
X38250Y-22800D03*
X38750Y-22800D03*
X22500Y-28200D03*
X22500Y-30300D03*
X23000Y-28200D03*
X23500Y-28200D03*
X24000Y-28200D03*
X23000Y-30300D03*
X23500Y-30300D03*
X24000Y-30300D03*
X37250Y-28200D03*
X37250Y-30300D03*
X37750Y-28200D03*
X38250Y-28200D03*
X38750Y-28200D03*
X37750Y-30300D03*
X38250Y-30300D03*
X38750Y-30300D03*
X22500Y-36200D03*
X22500Y-38300D03*
X23000Y-36200D03*
X23500Y-36200D03*
X24000Y-36200D03*
X23000Y-38300D03*
X23500Y-38300D03*
X24000Y-38300D03*
X37250Y-35450D03*
X37250Y-37550D03*
X37750Y-35450D03*
X38250Y-35450D03*
X38750Y-35450D03*
X37750Y-37550D03*
X38250Y-37550D03*
X38750Y-37550D03*
G54D14*
X36050Y-42500D03*
X33950Y-42500D03*
X36050Y-43000D03*
X36050Y-43500D03*
X36050Y-44000D03*
X33950Y-43000D03*
X33950Y-43500D03*
X33950Y-44000D03*
X29550Y-42500D03*
X27450Y-42500D03*
X29550Y-43000D03*
X29550Y-43500D03*
X29550Y-44000D03*
X27450Y-43000D03*
X27450Y-43500D03*
X27450Y-44000D03*
G54D15*
X32500Y-27750D03*
G54D16*
X32500Y-28750D03*
X31500Y-27750D03*
X31500Y-28750D03*
X30500Y-27750D03*
X30500Y-28750D03*
X29500Y-27750D03*
X29500Y-28750D03*
X28500Y-27750D03*
X28500Y-28750D03*
X27500Y-27750D03*
X27500Y-28750D03*
X26500Y-27750D03*
X26500Y-28750D03*
X25500Y-27750D03*
X25500Y-28750D03*
G54D15*
X32500Y-35000D03*
G54D16*
X32500Y-36000D03*
X31500Y-35000D03*
X31500Y-36000D03*
X30500Y-35000D03*
X30500Y-36000D03*
X29500Y-35000D03*
X29500Y-36000D03*
X28500Y-35000D03*
X28500Y-36000D03*
X27500Y-35000D03*
X27500Y-36000D03*
X26500Y-35000D03*
X26500Y-36000D03*
X25500Y-35000D03*
X25500Y-36000D03*
G54D15*
X32500Y-20500D03*
G54D16*
X32500Y-21500D03*
X31500Y-20500D03*
X31500Y-21500D03*
X30500Y-20500D03*
X30500Y-21500D03*
X29500Y-20500D03*
X29500Y-21500D03*
X28500Y-20500D03*
X28500Y-21500D03*
X27500Y-20500D03*
X27500Y-21500D03*
X26500Y-20500D03*
X26500Y-21500D03*
X25500Y-20500D03*
X25500Y-21500D03*
G54D15*
X32500Y-13000D03*
G54D16*
X32500Y-14000D03*
X31500Y-13000D03*
X31500Y-14000D03*
X30500Y-13000D03*
X30500Y-14000D03*
X29500Y-13000D03*
X29500Y-14000D03*
X28500Y-13000D03*
X28500Y-14000D03*
X27500Y-13000D03*
X27500Y-14000D03*
X26500Y-13000D03*
X26500Y-14000D03*
X25500Y-13000D03*
X25500Y-14000D03*
G54D15*
X16500Y-23500D03*
G54D16*
X16500Y-22500D03*
X17500Y-23500D03*
X17500Y-22500D03*
X18500Y-23500D03*
X18500Y-22500D03*
X19500Y-23500D03*
X19500Y-22500D03*
G54D15*
X16500Y-16000D03*
G54D16*
X16500Y-15000D03*
X17500Y-16000D03*
X17500Y-15000D03*
X18500Y-16000D03*
X18500Y-15000D03*
X19500Y-16000D03*
X19500Y-15000D03*
G54D15*
X16500Y-21500D03*
G54D16*
X16500Y-20500D03*
X17500Y-21500D03*
X17500Y-20500D03*
X18500Y-21500D03*
X18500Y-20500D03*
X19500Y-21500D03*
X19500Y-20500D03*
G54D15*
X16500Y-14000D03*
G54D16*
X16500Y-13000D03*
X17500Y-14000D03*
X17500Y-13000D03*
X18500Y-14000D03*
X18500Y-13000D03*
X19500Y-14000D03*
X19500Y-13000D03*
G54D15*
X16500Y-38000D03*
G54D16*
X16500Y-37000D03*
X17500Y-38000D03*
X17500Y-37000D03*
X18500Y-38000D03*
X18500Y-37000D03*
X19500Y-38000D03*
X19500Y-37000D03*
G54D15*
X16500Y-30750D03*
G54D16*
X16500Y-29750D03*
X17500Y-30750D03*
X17500Y-29750D03*
X18500Y-30750D03*
X18500Y-29750D03*
X19500Y-30750D03*
X19500Y-29750D03*
G54D15*
X16500Y-28750D03*
G54D16*
X16500Y-27750D03*
X17500Y-28750D03*
X17500Y-27750D03*
X18500Y-28750D03*
X18500Y-27750D03*
X19500Y-28750D03*
X19500Y-27750D03*
G54D15*
X16500Y-36000D03*
G54D16*
X16500Y-35000D03*
X17500Y-36000D03*
X17500Y-35000D03*
X18500Y-36000D03*
X18500Y-35000D03*
X19500Y-36000D03*
X19500Y-35000D03*
G54D17*
X15000Y-28084D03*
X15000Y-27416D03*
X31500Y-37584D03*
X31500Y-36916D03*
X30500Y-37584D03*
X30500Y-36916D03*
X29500Y-37584D03*
X29500Y-36916D03*
X28500Y-37584D03*
X28500Y-36916D03*
X27500Y-37584D03*
X27500Y-36916D03*
X26500Y-37584D03*
X26500Y-36916D03*
X15000Y-35334D03*
X15000Y-34666D03*
X18500Y-26834D03*
X18500Y-26166D03*
X17500Y-26834D03*
X17500Y-26166D03*
X16500Y-26834D03*
X16500Y-26166D03*
X18500Y-34084D03*
X18500Y-33416D03*
X17500Y-34084D03*
X17500Y-33416D03*
X16500Y-34084D03*
X16500Y-33416D03*
G54D18*
X41584Y-26500D03*
X40916Y-26500D03*
X38334Y-26500D03*
X37666Y-26500D03*
X41584Y-33750D03*
X40916Y-33750D03*
X41584Y-24750D03*
X40916Y-24750D03*
G54D17*
X15250Y-23834D03*
X15250Y-23166D03*
X15250Y-16334D03*
X15250Y-15666D03*
G54D18*
X41584Y-17250D03*
X40916Y-17250D03*
X40916Y-22750D03*
X41584Y-22750D03*
X40916Y-15250D03*
X41584Y-15250D03*
G54D17*
X16500Y-25084D03*
X16500Y-24416D03*
X17500Y-25084D03*
X17500Y-24416D03*
X18500Y-25084D03*
X18500Y-24416D03*
G54D18*
X41584Y-21250D03*
X40916Y-21250D03*
G54D17*
X35750Y-23834D03*
X35750Y-23166D03*
X16500Y-17584D03*
X16500Y-16916D03*
X31500Y-30334D03*
X31500Y-29666D03*
X30500Y-30334D03*
X30500Y-29666D03*
X29500Y-30334D03*
X29500Y-29666D03*
X28500Y-30334D03*
X28500Y-29666D03*
X27500Y-30334D03*
X27500Y-29666D03*
X26500Y-30334D03*
X26500Y-29666D03*
X15250Y-13334D03*
X15250Y-12666D03*
X31500Y-23084D03*
X31500Y-22416D03*
X30500Y-23084D03*
X30500Y-22416D03*
X29500Y-23084D03*
X29500Y-22416D03*
X28500Y-23084D03*
X28500Y-22416D03*
X27500Y-23084D03*
X27500Y-22416D03*
X26500Y-23084D03*
X26500Y-22416D03*
X15250Y-20834D03*
X15250Y-20166D03*
X18500Y-12084D03*
X18500Y-11416D03*
X17500Y-12084D03*
X17500Y-11416D03*
X16500Y-12084D03*
X16500Y-11416D03*
X18500Y-19584D03*
X18500Y-18916D03*
X17500Y-19584D03*
X17500Y-18916D03*
X16500Y-19584D03*
X16500Y-18916D03*
G54D18*
X41584Y-11750D03*
X40916Y-11750D03*
X38334Y-11750D03*
X37666Y-11750D03*
X41584Y-19250D03*
X40916Y-19250D03*
X38334Y-19250D03*
X37666Y-19250D03*
G54D17*
X35750Y-14584D03*
X35750Y-13916D03*
G54D18*
X41584Y-14000D03*
X40916Y-14000D03*
G54D17*
X18500Y-17584D03*
X18500Y-16916D03*
X17500Y-17584D03*
X17500Y-16916D03*
G54D18*
X38334Y-33750D03*
X37666Y-33750D03*
G54D17*
X35750Y-29584D03*
X35750Y-28916D03*
G54D18*
X41584Y-28500D03*
X40916Y-28500D03*
G54D17*
X35750Y-36834D03*
X35750Y-36166D03*
G54D18*
X41584Y-36000D03*
X40916Y-36000D03*
G54D17*
X18500Y-32334D03*
X18500Y-31666D03*
X17500Y-32334D03*
X17500Y-31666D03*
X16500Y-32334D03*
X16500Y-31666D03*
X18500Y-39584D03*
X18500Y-38916D03*
X17500Y-39584D03*
X17500Y-38916D03*
X16500Y-39584D03*
X16500Y-38916D03*
G54D18*
X40916Y-30000D03*
X41584Y-30000D03*
X40916Y-37250D03*
X41584Y-37250D03*
X41584Y-32000D03*
X40916Y-32000D03*
G54D17*
X15000Y-31084D03*
X15000Y-30416D03*
G54D18*
X41584Y-39500D03*
X40916Y-39500D03*
G54D17*
X15000Y-38334D03*
X15000Y-37666D03*
X31500Y-15584D03*
X31500Y-14916D03*
X30500Y-15584D03*
X30500Y-14916D03*
X29500Y-15584D03*
X29500Y-14916D03*
X28500Y-15584D03*
X28500Y-14916D03*
X27500Y-15584D03*
X27500Y-14916D03*
X26500Y-15584D03*
X26500Y-14916D03*
G54D19*
X22250Y-21250D03*
X34750Y-21250D03*
X22250Y-33750D03*
X34750Y-33750D03*
G54D12*
X20689Y-43250D03*
X19311Y-43250D03*
X17939Y-43250D03*
X16561Y-43250D03*
G54D20*
X21850Y-40500D03*
X23150Y-40500D03*
G54D21*
X23250Y-42600D03*
X23250Y-43900D03*
G54D20*
X29150Y-40750D03*
X27850Y-40750D03*
X35650Y-40750D03*
X34350Y-40750D03*
G54D21*
X25750Y-42600D03*
X25750Y-43900D03*
X32000Y-42600D03*
X32000Y-43900D03*
G54D16*
X43250Y-22750D03*
X44250Y-23750D03*
X43250Y-24750D03*
X43250Y-15250D03*
X44250Y-16250D03*
X43250Y-17250D03*
X43250Y-19250D03*
X44250Y-20250D03*
X43250Y-21250D03*
X43250Y-11750D03*
X44250Y-12750D03*
X43250Y-13750D03*
X43250Y-37250D03*
X44250Y-38250D03*
X43250Y-39250D03*
X43250Y-30000D03*
X44250Y-31000D03*
X43250Y-32000D03*
X43250Y-33750D03*
X44250Y-34750D03*
X43250Y-35750D03*
X43250Y-26500D03*
X44250Y-27500D03*
X43250Y-28500D03*
G54D22*
X36859Y-35571D03*
X22018Y-35772D03*
X29360Y-41961D03*
X35892Y-39784D03*
X36859Y-27772D03*
X21931Y-28200D03*
X37197Y-21312D03*
X28947Y-43421D03*
X23925Y-22947D03*
X23935Y-13958D03*
X23925Y-27681D03*
X23538Y-35668D03*
X39500Y-43453D03*
X23022Y-37794D03*
X23685Y-37757D03*
X20821Y-38632D03*
X23210Y-24832D03*
X42375Y-34250D03*
X39538Y-20272D03*
X40843Y-35327D03*
X38050Y-32327D03*
X39137Y-13460D03*
X36274Y-13617D03*
X38241Y-12944D03*
X35872Y-22131D03*
X39141Y-21550D03*
X23100Y-31763D03*
X23100Y-27691D03*
X42643Y-22988D03*
X37700Y-13965D03*
X37654Y-21224D03*
X37969Y-28764D03*
X38250Y-34800D03*
G54D23*
X37250Y-13450D02*
X37250Y-13022D01*
X22500Y-36200D02*
X22500Y-35772D01*
X22500Y-28200D02*
X22500Y-28014D01*
X22500Y-35772D02*
X22018Y-35772D01*
X22500Y-23450D02*
X22500Y-23878D01*
X37250Y-20272D02*
X35298Y-18320D01*
X35823Y-13022D02*
X37250Y-13022D01*
X35298Y-13547D02*
X35823Y-13022D01*
X33889Y-12138D02*
X35298Y-13547D01*
X23687Y-12138D02*
X33889Y-12138D01*
X22500Y-13325D02*
X23687Y-12138D01*
X22500Y-13450D02*
X22500Y-13325D01*
X21347Y-41214D02*
X19311Y-43250D01*
X21347Y-40500D02*
X21347Y-41214D01*
X35298Y-18320D02*
X35298Y-13547D01*
X37250Y-20700D02*
X37250Y-20272D01*
X37250Y-27772D02*
X36859Y-27772D01*
X37250Y-28200D02*
X37250Y-27772D01*
X35892Y-39784D02*
X31537Y-39784D01*
X31537Y-39784D02*
X29360Y-41961D01*
X36478Y-42500D02*
X36478Y-40370D01*
X36478Y-40370D02*
X35892Y-39784D01*
X36050Y-42500D02*
X36478Y-42500D01*
X29360Y-41961D02*
X29550Y-42151D01*
X29550Y-42151D02*
X29550Y-42500D01*
X21850Y-40500D02*
X21347Y-40500D01*
X21931Y-28200D02*
X21931Y-28014D01*
X22500Y-28014D02*
X21931Y-28014D01*
X37129Y-35571D02*
X36859Y-35571D01*
X37250Y-35450D02*
X37129Y-35571D01*
X37250Y-20700D02*
X37250Y-21128D01*
X37197Y-21312D02*
X37197Y-21181D01*
X37197Y-21181D02*
X37250Y-21128D01*
X21931Y-28014D02*
X21807Y-27890D01*
X21807Y-27890D02*
X21807Y-24571D01*
X21807Y-24571D02*
X22500Y-23878D01*
X29550Y-43500D02*
X29673Y-43500D01*
X29594Y-43421D02*
X28947Y-43421D01*
X29673Y-43500D02*
X29594Y-43421D01*
X33027Y-40146D02*
X29673Y-43500D01*
X34797Y-40146D02*
X33027Y-40146D01*
X34854Y-40203D02*
X34797Y-40146D01*
X34854Y-42732D02*
X34854Y-40203D01*
X35622Y-43500D02*
X34854Y-42732D01*
X36050Y-43500D02*
X35622Y-43500D01*
X41040Y-18268D02*
X38750Y-15978D01*
X24000Y-28200D02*
X24000Y-27772D01*
X33950Y-44000D02*
X34378Y-44000D01*
X38750Y-37550D02*
X38750Y-42158D01*
X38750Y-42158D02*
X36605Y-44303D01*
X36605Y-44303D02*
X34681Y-44303D01*
X34681Y-44303D02*
X34378Y-44000D01*
X27450Y-44000D02*
X27878Y-44000D01*
X33950Y-44000D02*
X33522Y-44000D01*
X33522Y-44000D02*
X32967Y-44555D01*
X32967Y-44555D02*
X28433Y-44555D01*
X28433Y-44555D02*
X27878Y-44000D01*
X24000Y-23450D02*
X24000Y-23022D01*
X23538Y-35668D02*
X23896Y-35668D01*
X23896Y-35668D02*
X24000Y-35772D01*
X38750Y-15550D02*
X38750Y-15978D01*
X24000Y-13450D02*
X24000Y-13878D01*
X24000Y-13878D02*
X23935Y-13943D01*
X23935Y-13943D02*
X23935Y-13958D01*
X38750Y-22800D02*
X38750Y-22372D01*
X24000Y-36200D02*
X24000Y-35772D01*
X39326Y-22372D02*
X39548Y-22150D01*
X39548Y-22150D02*
X43786Y-22150D01*
X38750Y-30300D02*
X38750Y-30728D01*
X24000Y-27772D02*
X24000Y-27756D01*
X24000Y-27756D02*
X23925Y-27681D01*
X27450Y-44000D02*
X27022Y-44000D01*
X23250Y-43900D02*
X23250Y-44403D01*
X23250Y-44403D02*
X26619Y-44403D01*
X26619Y-44403D02*
X27022Y-44000D01*
X20689Y-43250D02*
X21339Y-43900D01*
X21339Y-43900D02*
X23250Y-43900D01*
X24000Y-23022D02*
X23926Y-22948D01*
X23926Y-22948D02*
X23926Y-22947D01*
X23926Y-22947D02*
X23925Y-22947D01*
X38750Y-22372D02*
X39326Y-22372D01*
X33045Y-27303D02*
X32631Y-26889D01*
X32631Y-26889D02*
X24717Y-26889D01*
X24717Y-26889D02*
X23925Y-27681D01*
X38750Y-30728D02*
X35786Y-30728D01*
X35786Y-30728D02*
X33045Y-27987D01*
X33045Y-27987D02*
X33045Y-27303D01*
X43786Y-22150D02*
X43786Y-23057D01*
X43786Y-23057D02*
X42589Y-24254D01*
X42589Y-24254D02*
X36094Y-24254D01*
X36094Y-24254D02*
X33045Y-27303D01*
X43786Y-22150D02*
X43857Y-22150D01*
X43857Y-22150D02*
X45210Y-20797D01*
X45210Y-20797D02*
X45210Y-20047D01*
X45210Y-20047D02*
X43431Y-18268D01*
X43431Y-18268D02*
X41040Y-18268D01*
X40916Y-24750D02*
X40916Y-25150D01*
X42655Y-32400D02*
X40916Y-32400D01*
X43163Y-32907D02*
X42655Y-32400D01*
X45248Y-26980D02*
X43589Y-25321D01*
X45248Y-30822D02*
X45248Y-26980D01*
X43163Y-32907D02*
X45248Y-30822D01*
X41087Y-25321D02*
X40916Y-25150D01*
X40916Y-32000D02*
X40916Y-32075D01*
X40916Y-32114D02*
X40916Y-32400D01*
X43589Y-25321D02*
X45513Y-23397D01*
X45513Y-23397D02*
X45513Y-19922D01*
X45513Y-19922D02*
X43538Y-17947D01*
X43538Y-17947D02*
X41213Y-17947D01*
X41213Y-17947D02*
X40916Y-17650D01*
X40916Y-17250D02*
X40916Y-17650D01*
X43589Y-25321D02*
X41087Y-25321D01*
X40916Y-32114D02*
X40916Y-32075D01*
X40916Y-39500D02*
X40916Y-39900D01*
X40916Y-39900D02*
X39500Y-41316D01*
X39500Y-41316D02*
X39500Y-43453D01*
X40916Y-39500D02*
X40916Y-38974D01*
X40916Y-38974D02*
X40973Y-38917D01*
X40973Y-38917D02*
X42586Y-38917D01*
X42586Y-38917D02*
X44769Y-36734D01*
X44769Y-36734D02*
X44769Y-34514D01*
X44769Y-34514D02*
X43163Y-32907D01*
X18000Y-18916D02*
X18000Y-17584D01*
X17500Y-18916D02*
X18000Y-18916D01*
X18000Y-18916D02*
X18500Y-18916D01*
X18000Y-17584D02*
X17500Y-17584D01*
X16500Y-11416D02*
X17500Y-11416D01*
X17500Y-11416D02*
X18500Y-11416D01*
X18000Y-17584D02*
X18500Y-17584D01*
X16500Y-26166D02*
X16899Y-26166D01*
X23250Y-42600D02*
X23250Y-42097D01*
X23150Y-41997D02*
X23150Y-40500D01*
X23250Y-42097D02*
X23150Y-41997D01*
X40369Y-37122D02*
X38250Y-37122D01*
X40497Y-37250D02*
X40369Y-37122D01*
X40916Y-37250D02*
X40497Y-37250D01*
X38250Y-37550D02*
X38250Y-37122D01*
X16500Y-33416D02*
X16899Y-33416D01*
X16899Y-32334D02*
X17500Y-32334D01*
X16899Y-32334D02*
X16899Y-33416D01*
X16899Y-33416D02*
X17100Y-33416D01*
X17300Y-33416D02*
X17100Y-33416D01*
X17300Y-33416D02*
X17500Y-33416D01*
X17500Y-33416D02*
X18500Y-33416D01*
X36050Y-44000D02*
X36478Y-44000D01*
X23500Y-36200D02*
X23500Y-36552D01*
X23500Y-13450D02*
X23500Y-13878D01*
X18500Y-33416D02*
X18899Y-33416D01*
X17500Y-18916D02*
X16500Y-18916D01*
X17500Y-32334D02*
X18500Y-32334D01*
X38250Y-16219D02*
X38250Y-15550D01*
X40710Y-18679D02*
X38250Y-16219D01*
X43414Y-18679D02*
X40710Y-18679D01*
X44907Y-20172D02*
X43414Y-18679D01*
X21100Y-13617D02*
X23787Y-10930D01*
X15189Y-43250D02*
X15958Y-42481D01*
X16960Y-39584D02*
X16960Y-42481D01*
X16960Y-39584D02*
X17500Y-39584D01*
X16500Y-39584D02*
X16960Y-39584D01*
X18500Y-39584D02*
X17500Y-39584D01*
X22647Y-40500D02*
X22647Y-39997D01*
X22647Y-39997D02*
X22234Y-39584D01*
X22234Y-39584D02*
X18500Y-39584D01*
X17500Y-26166D02*
X17100Y-26166D01*
X17500Y-17584D02*
X16500Y-17584D01*
X38250Y-22800D02*
X38250Y-22338D01*
X38250Y-22338D02*
X38555Y-22033D01*
X38555Y-22033D02*
X39237Y-22033D01*
X39237Y-22033D02*
X39423Y-21847D01*
X39423Y-21847D02*
X43732Y-21847D01*
X18899Y-26166D02*
X21361Y-28628D01*
X23500Y-36628D02*
X23500Y-36552D01*
X21361Y-28628D02*
X23500Y-28628D01*
X17500Y-26166D02*
X18500Y-26166D01*
X23500Y-23450D02*
X23500Y-23022D01*
X18500Y-25084D02*
X18947Y-25084D01*
X18947Y-25084D02*
X21009Y-23022D01*
X21009Y-23022D02*
X23500Y-23022D01*
X17500Y-25084D02*
X18500Y-25084D01*
X17000Y-26166D02*
X17100Y-26166D01*
X16899Y-26166D02*
X17000Y-26166D01*
X17000Y-25084D02*
X16500Y-25084D01*
X17500Y-25084D02*
X17000Y-25084D01*
X17000Y-26166D02*
X17000Y-25084D01*
X16960Y-42481D02*
X17170Y-42481D01*
X17170Y-42481D02*
X17939Y-43250D01*
X44907Y-20672D02*
X44907Y-20172D01*
X43732Y-21847D02*
X44907Y-20672D01*
X23500Y-28200D02*
X23500Y-28628D01*
X22899Y-40500D02*
X22647Y-40500D01*
X38250Y-38431D02*
X38250Y-37550D01*
X37275Y-39406D02*
X38250Y-38431D01*
X37275Y-43203D02*
X37275Y-39406D01*
X36478Y-44000D02*
X37275Y-43203D01*
X38250Y-22800D02*
X38250Y-23228D01*
X40916Y-22750D02*
X40916Y-23149D01*
X40837Y-23228D02*
X40916Y-23149D01*
X38250Y-23228D02*
X40837Y-23228D01*
X18500Y-11416D02*
X18899Y-11416D01*
X16899Y-32334D02*
X16500Y-32334D01*
X11617Y-28733D02*
X14184Y-26166D01*
X11617Y-29944D02*
X11617Y-28733D01*
X14007Y-32334D02*
X11617Y-29944D01*
X13976Y-17584D02*
X12144Y-15752D01*
X22899Y-40500D02*
X23150Y-40500D01*
X29133Y-39406D02*
X28393Y-40146D01*
X37275Y-39406D02*
X29133Y-39406D01*
X28992Y-44000D02*
X29550Y-44000D01*
X28393Y-43401D02*
X28992Y-44000D01*
X28393Y-40146D02*
X28393Y-43401D01*
X23150Y-40500D02*
X23653Y-40500D01*
X16500Y-32334D02*
X14007Y-32334D01*
X14184Y-26166D02*
X16500Y-26166D01*
X12146Y-24128D02*
X14184Y-26166D01*
X12146Y-19414D02*
X12146Y-24128D01*
X13976Y-17584D02*
X12146Y-19414D01*
X16500Y-17584D02*
X13976Y-17584D01*
X14124Y-11416D02*
X16500Y-11416D01*
X12144Y-13396D02*
X14124Y-11416D01*
X12144Y-15752D02*
X12144Y-13396D01*
X40181Y-30316D02*
X40497Y-30000D01*
X18500Y-26166D02*
X18899Y-26166D01*
X39425Y-30316D02*
X38981Y-29872D01*
X38981Y-29872D02*
X38250Y-29872D01*
X19852Y-34369D02*
X22868Y-31353D01*
X22868Y-31353D02*
X38705Y-31353D01*
X38705Y-31353D02*
X39425Y-30633D01*
X39425Y-30633D02*
X39425Y-30316D01*
X38250Y-30300D02*
X38250Y-29872D01*
X19852Y-34369D02*
X22111Y-36628D01*
X22111Y-36628D02*
X23500Y-36628D01*
X18899Y-33416D02*
X19852Y-34369D01*
X24648Y-40146D02*
X24007Y-40146D01*
X24007Y-40146D02*
X23653Y-40500D01*
X28393Y-40146D02*
X24648Y-40146D01*
X24648Y-40146D02*
X24648Y-37776D01*
X40916Y-15122D02*
X40916Y-15250D01*
X23787Y-10930D02*
X44098Y-10930D01*
X44098Y-10930D02*
X45069Y-11901D01*
X45069Y-11901D02*
X45069Y-13513D01*
X45069Y-13513D02*
X43876Y-14706D01*
X43876Y-14706D02*
X41332Y-14706D01*
X41332Y-14706D02*
X40916Y-15122D01*
X40916Y-15122D02*
X38250Y-15122D01*
X38250Y-15550D02*
X38250Y-15122D01*
X21100Y-13617D02*
X21664Y-14181D01*
X21664Y-14181D02*
X23197Y-14181D01*
X23197Y-14181D02*
X23500Y-13878D01*
X18899Y-11416D02*
X21100Y-13617D01*
X40916Y-30000D02*
X40497Y-30000D01*
X39425Y-30316D02*
X40181Y-30316D01*
X24648Y-37776D02*
X23500Y-36628D01*
X15958Y-42481D02*
X16960Y-42481D01*
X27500Y-37584D02*
X28500Y-37584D01*
X28500Y-37584D02*
X29500Y-37584D01*
X29500Y-37584D02*
X30500Y-37584D01*
X30500Y-37584D02*
X31500Y-37584D01*
X32500Y-36984D02*
X32500Y-36000D01*
X31900Y-37584D02*
X32500Y-36984D01*
X31500Y-37584D02*
X31900Y-37584D01*
X27500Y-37584D02*
X26500Y-37584D01*
X23000Y-37816D02*
X23000Y-38300D01*
X23022Y-37794D02*
X23000Y-37816D01*
X26500Y-35000D02*
X27500Y-35000D01*
X27500Y-35000D02*
X28500Y-35000D01*
X28500Y-35000D02*
X29500Y-35000D01*
X29500Y-35000D02*
X30500Y-35000D01*
X30500Y-35000D02*
X31500Y-35000D01*
X31500Y-35000D02*
X32500Y-35000D01*
X23570Y-37872D02*
X23500Y-37872D01*
X23685Y-37757D02*
X23570Y-37872D01*
X23500Y-38300D02*
X23500Y-37872D01*
X31500Y-36916D02*
X31500Y-36000D01*
X30500Y-36916D02*
X30500Y-36000D01*
X29500Y-36916D02*
X29500Y-36000D01*
X28500Y-36916D02*
X28500Y-36000D01*
X27500Y-36916D02*
X27500Y-36000D01*
X26500Y-36916D02*
X26500Y-36000D01*
X16500Y-38916D02*
X16500Y-38000D01*
X16500Y-34084D02*
X16500Y-35000D01*
X17500Y-38916D02*
X17500Y-38000D01*
X17500Y-34084D02*
X17500Y-35000D01*
X18500Y-34084D02*
X18500Y-35000D01*
X18500Y-38916D02*
X18500Y-38000D01*
X19500Y-36000D02*
X18500Y-36000D01*
X18500Y-36000D02*
X17500Y-36000D01*
X17500Y-36000D02*
X16500Y-36000D01*
X24000Y-38300D02*
X24000Y-38728D01*
X15997Y-35932D02*
X15997Y-36000D01*
X15399Y-35334D02*
X15997Y-35932D01*
X15000Y-35334D02*
X15399Y-35334D01*
X16500Y-36000D02*
X15997Y-36000D01*
X20917Y-38728D02*
X20821Y-38632D01*
X24000Y-38728D02*
X20917Y-38728D01*
X15000Y-37666D02*
X15399Y-37666D01*
X18500Y-37000D02*
X17500Y-37000D01*
X18500Y-37000D02*
X19500Y-37000D01*
X22500Y-38300D02*
X22500Y-37872D01*
X20372Y-37872D02*
X22500Y-37872D01*
X19500Y-37000D02*
X20372Y-37872D01*
X16065Y-37000D02*
X16500Y-37000D01*
X15399Y-37666D02*
X16065Y-37000D01*
X16500Y-37000D02*
X17500Y-37000D01*
X17500Y-19584D02*
X17500Y-20500D01*
X15997Y-21182D02*
X15997Y-21500D01*
X15649Y-20834D02*
X15997Y-21182D01*
X15250Y-20834D02*
X15649Y-20834D01*
X16500Y-21500D02*
X15997Y-21500D01*
X18500Y-21500D02*
X17500Y-21500D01*
X17500Y-21500D02*
X16500Y-21500D01*
X18500Y-21500D02*
X19500Y-21500D01*
X23710Y-24832D02*
X24000Y-25122D01*
X23210Y-24832D02*
X23710Y-24832D01*
X24000Y-25550D02*
X24000Y-25122D01*
X18500Y-19584D02*
X18500Y-20500D01*
X16500Y-24416D02*
X16500Y-23500D01*
X16315Y-22500D02*
X16500Y-22500D01*
X15649Y-23166D02*
X16315Y-22500D01*
X15250Y-23166D02*
X15649Y-23166D01*
X18500Y-22500D02*
X17500Y-22500D01*
X17500Y-22500D02*
X16500Y-22500D01*
X18500Y-22500D02*
X19500Y-22500D01*
X22500Y-25550D02*
X22500Y-25122D01*
X24053Y-22500D02*
X19500Y-22500D01*
X24304Y-22751D02*
X24053Y-22500D01*
X24304Y-23861D02*
X24304Y-22751D01*
X23711Y-24454D02*
X24304Y-23861D01*
X23054Y-24454D02*
X23711Y-24454D01*
X22500Y-25008D02*
X23054Y-24454D01*
X22500Y-25122D02*
X22500Y-25008D01*
X17500Y-24416D02*
X17500Y-23500D01*
X18500Y-24416D02*
X18500Y-23500D01*
X27500Y-23084D02*
X28500Y-23084D01*
X28500Y-23084D02*
X29500Y-23084D01*
X29500Y-23084D02*
X30500Y-23084D01*
X30500Y-23084D02*
X31500Y-23084D01*
X32500Y-22588D02*
X32500Y-21500D01*
X32004Y-23084D02*
X32500Y-22588D01*
X31500Y-23084D02*
X32004Y-23084D01*
X23000Y-25550D02*
X23000Y-25978D01*
X26500Y-23084D02*
X27500Y-23084D01*
X26500Y-24162D02*
X26500Y-23084D01*
X24381Y-26281D02*
X26500Y-24162D01*
X23303Y-26281D02*
X24381Y-26281D01*
X23000Y-25978D02*
X23303Y-26281D01*
X27500Y-20500D02*
X28500Y-20500D01*
X28500Y-20500D02*
X29500Y-20500D01*
X29500Y-20500D02*
X30500Y-20500D01*
X30500Y-20500D02*
X31500Y-20500D01*
X31500Y-20500D02*
X32500Y-20500D01*
X26500Y-20500D02*
X27500Y-20500D01*
X24256Y-25978D02*
X23500Y-25978D01*
X24695Y-25539D02*
X24256Y-25978D01*
X24695Y-20302D02*
X24695Y-25539D01*
X25053Y-19944D02*
X24695Y-20302D01*
X25944Y-19944D02*
X25053Y-19944D01*
X26500Y-20500D02*
X25944Y-19944D01*
X23500Y-25550D02*
X23500Y-25978D01*
X16500Y-19584D02*
X16500Y-20500D01*
X33003Y-43500D02*
X33950Y-43500D01*
X32603Y-43900D02*
X33003Y-43500D01*
X32000Y-43900D02*
X32603Y-43900D01*
X35622Y-41381D02*
X35622Y-43000D01*
X35650Y-41353D02*
X35622Y-41381D01*
X35650Y-40750D02*
X35650Y-41353D01*
X36050Y-43000D02*
X35622Y-43000D01*
X43250Y-37250D02*
X41584Y-37250D01*
X39522Y-34250D02*
X38750Y-35022D01*
X42375Y-34250D02*
X39522Y-34250D01*
X38750Y-35450D02*
X38750Y-35022D01*
X29150Y-40750D02*
X29150Y-41353D01*
X29550Y-43000D02*
X29122Y-43000D01*
X28982Y-42860D02*
X29122Y-43000D01*
X28982Y-41521D02*
X28982Y-42860D01*
X29150Y-41353D02*
X28982Y-41521D01*
X34378Y-41381D02*
X34378Y-42500D01*
X34350Y-41353D02*
X34378Y-41381D01*
X34350Y-40750D02*
X34350Y-41353D01*
X33950Y-42500D02*
X34378Y-42500D01*
X33003Y-43000D02*
X33950Y-43000D01*
X32603Y-42600D02*
X33003Y-43000D01*
X32000Y-42600D02*
X32603Y-42600D01*
X27878Y-41381D02*
X27878Y-42500D01*
X27850Y-41353D02*
X27878Y-41381D01*
X27850Y-40750D02*
X27850Y-41353D01*
X27450Y-42500D02*
X27878Y-42500D01*
X26753Y-43000D02*
X27450Y-43000D01*
X26353Y-42600D02*
X26753Y-43000D01*
X25750Y-42600D02*
X26353Y-42600D01*
X26753Y-43500D02*
X27450Y-43500D01*
X26353Y-43900D02*
X26753Y-43500D01*
X25750Y-43900D02*
X26353Y-43900D01*
X38750Y-20700D02*
X38750Y-20272D01*
X38750Y-20272D02*
X39538Y-20272D01*
X38334Y-20188D02*
X38250Y-20272D01*
X38334Y-19250D02*
X38334Y-20188D01*
X38250Y-20700D02*
X38250Y-20272D01*
X35750Y-23166D02*
X35750Y-22746D01*
X38250Y-20700D02*
X38250Y-21128D01*
X38250Y-21371D02*
X38250Y-21128D01*
X37880Y-21741D02*
X38250Y-21371D01*
X36836Y-21741D02*
X37880Y-21741D01*
X35831Y-22746D02*
X36836Y-21741D01*
X35750Y-22746D02*
X35831Y-22746D01*
X43250Y-19250D02*
X41584Y-19250D01*
X43250Y-21250D02*
X41584Y-21250D01*
X42253Y-39250D02*
X42003Y-39500D01*
X43250Y-39250D02*
X42253Y-39250D01*
X41584Y-39500D02*
X42003Y-39500D01*
X35750Y-36166D02*
X36149Y-36166D01*
X38334Y-33750D02*
X38334Y-34150D01*
X38250Y-35450D02*
X38250Y-35878D01*
X36535Y-35780D02*
X36149Y-36166D01*
X36481Y-35727D02*
X36535Y-35780D01*
X36481Y-35415D02*
X36481Y-35727D01*
X37746Y-34150D02*
X36481Y-35415D01*
X38334Y-34150D02*
X37746Y-34150D01*
X38179Y-35949D02*
X38250Y-35878D01*
X36703Y-35949D02*
X38179Y-35949D01*
X36535Y-35780D02*
X36703Y-35949D01*
X43250Y-33750D02*
X41584Y-33750D01*
X42253Y-35750D02*
X42003Y-36000D01*
X43250Y-35750D02*
X42253Y-35750D01*
X41584Y-36000D02*
X42003Y-36000D01*
X40843Y-35528D02*
X40843Y-35327D01*
X40916Y-35601D02*
X40843Y-35528D01*
X23000Y-35665D02*
X23000Y-36200D01*
X26338Y-32327D02*
X23000Y-35665D01*
X38050Y-32327D02*
X26338Y-32327D01*
X40916Y-36000D02*
X40916Y-35601D01*
X43250Y-24750D02*
X41584Y-24750D01*
X41584Y-22750D02*
X42004Y-22750D01*
X42144Y-22610D02*
X42004Y-22750D01*
X43110Y-22610D02*
X42144Y-22610D01*
X43250Y-22750D02*
X43110Y-22610D01*
X16500Y-12084D02*
X16500Y-13000D01*
X15997Y-13682D02*
X15997Y-14000D01*
X15649Y-13334D02*
X15997Y-13682D01*
X15250Y-13334D02*
X15649Y-13334D01*
X16500Y-14000D02*
X15997Y-14000D01*
X18500Y-14000D02*
X17500Y-14000D01*
X17500Y-14000D02*
X16500Y-14000D01*
X18500Y-14000D02*
X19500Y-14000D01*
X24000Y-15114D02*
X24000Y-15550D01*
X23462Y-14576D02*
X24000Y-15114D01*
X20076Y-14576D02*
X23462Y-14576D01*
X19500Y-14000D02*
X20076Y-14576D01*
X17500Y-12084D02*
X17500Y-13000D01*
X18500Y-12084D02*
X18500Y-13000D01*
X16500Y-16916D02*
X16500Y-16000D01*
X17500Y-16916D02*
X17500Y-16000D01*
X16315Y-15000D02*
X16500Y-15000D01*
X15649Y-15666D02*
X16315Y-15000D01*
X15250Y-15666D02*
X15649Y-15666D01*
X18500Y-15000D02*
X17500Y-15000D01*
X17500Y-15000D02*
X16500Y-15000D01*
X22500Y-15550D02*
X22500Y-15122D01*
X19500Y-15000D02*
X18500Y-15000D01*
X19622Y-15122D02*
X22500Y-15122D01*
X19500Y-15000D02*
X19622Y-15122D01*
X18500Y-16916D02*
X18500Y-16000D01*
X27500Y-15584D02*
X28500Y-15584D01*
X28500Y-15584D02*
X29500Y-15584D01*
X29500Y-15584D02*
X30500Y-15584D01*
X30500Y-15584D02*
X31500Y-15584D01*
X32499Y-14000D02*
X32500Y-14000D01*
X32499Y-15528D02*
X32499Y-14000D01*
X32443Y-15584D02*
X32499Y-15528D01*
X31500Y-15584D02*
X32443Y-15584D01*
X23000Y-15550D02*
X23000Y-15978D01*
X26500Y-15584D02*
X27500Y-15584D01*
X26500Y-15584D02*
X26100Y-15584D01*
X25403Y-16281D02*
X26100Y-15584D01*
X23303Y-16281D02*
X25403Y-16281D01*
X23000Y-15978D02*
X23303Y-16281D01*
X17500Y-31666D02*
X17500Y-30750D01*
X16500Y-26834D02*
X16500Y-27750D01*
X16500Y-31666D02*
X16500Y-30750D01*
X43250Y-15250D02*
X41584Y-15250D01*
X38760Y-13460D02*
X38750Y-13450D01*
X39137Y-13460D02*
X38760Y-13460D01*
X38250Y-13450D02*
X38250Y-13022D01*
X36149Y-13742D02*
X36274Y-13617D01*
X36149Y-13916D02*
X36149Y-13742D01*
X35750Y-13916D02*
X36149Y-13916D01*
X38334Y-11750D02*
X38334Y-12150D01*
X38250Y-12944D02*
X38241Y-12944D01*
X38250Y-13022D02*
X38250Y-12944D01*
X38250Y-12234D02*
X38334Y-12150D01*
X38250Y-12944D02*
X38250Y-12234D01*
X43250Y-11750D02*
X41584Y-11750D01*
X37750Y-15550D02*
X37750Y-15122D01*
X40910Y-12750D02*
X44250Y-12750D01*
X38940Y-14720D02*
X40910Y-12750D01*
X38152Y-14720D02*
X38940Y-14720D01*
X37750Y-15122D02*
X38152Y-14720D01*
X42253Y-13750D02*
X42003Y-14000D01*
X43250Y-13750D02*
X42253Y-13750D01*
X41584Y-14000D02*
X42003Y-14000D01*
X40916Y-14000D02*
X40916Y-13601D01*
X23000Y-13450D02*
X23000Y-13878D01*
X41271Y-13246D02*
X40916Y-13601D01*
X43505Y-13246D02*
X41271Y-13246D01*
X43525Y-13266D02*
X43505Y-13246D01*
X44698Y-13266D02*
X43525Y-13266D01*
X44755Y-13209D02*
X44698Y-13266D01*
X44755Y-12228D02*
X44755Y-13209D01*
X43761Y-11234D02*
X44755Y-12228D01*
X23940Y-11234D02*
X43761Y-11234D01*
X22185Y-12989D02*
X23940Y-11234D01*
X22185Y-13859D02*
X22185Y-12989D01*
X22204Y-13878D02*
X22185Y-13859D01*
X23000Y-13878D02*
X22204Y-13878D01*
X31500Y-14916D02*
X31500Y-14000D01*
X30500Y-14916D02*
X30500Y-14000D01*
X29500Y-14916D02*
X29500Y-14000D01*
X28500Y-14916D02*
X28500Y-14000D01*
X27500Y-14916D02*
X27500Y-14000D01*
X27500Y-13000D02*
X28500Y-13000D01*
X28500Y-13000D02*
X29500Y-13000D01*
X29500Y-13000D02*
X30500Y-13000D01*
X30500Y-13000D02*
X31500Y-13000D01*
X31500Y-13000D02*
X32500Y-13000D01*
X26500Y-13000D02*
X27500Y-13000D01*
X24251Y-15978D02*
X23500Y-15978D01*
X24996Y-15233D02*
X24251Y-15978D01*
X24996Y-12501D02*
X24996Y-15233D01*
X25053Y-12444D02*
X24996Y-12501D01*
X25944Y-12444D02*
X25053Y-12444D01*
X26500Y-13000D02*
X25944Y-12444D01*
X23500Y-15550D02*
X23500Y-15978D01*
X26500Y-14916D02*
X26500Y-14000D01*
X43250Y-17250D02*
X41584Y-17250D01*
X37750Y-30300D02*
X37750Y-29872D01*
X37823Y-29872D02*
X37750Y-29872D01*
X38651Y-29044D02*
X37823Y-29872D01*
X39162Y-29044D02*
X38651Y-29044D01*
X40706Y-27500D02*
X39162Y-29044D01*
X44250Y-27500D02*
X40706Y-27500D01*
X43250Y-28500D02*
X41584Y-28500D01*
X43250Y-26500D02*
X41584Y-26500D01*
X37250Y-30300D02*
X37250Y-29872D01*
X37250Y-29659D02*
X37250Y-29872D01*
X36224Y-29659D02*
X36149Y-29584D01*
X37250Y-29659D02*
X36224Y-29659D01*
X40916Y-26500D02*
X40916Y-26900D01*
X35750Y-29584D02*
X36149Y-29584D01*
X37767Y-29142D02*
X37250Y-29659D01*
X38126Y-29142D02*
X37767Y-29142D01*
X38556Y-28712D02*
X38126Y-29142D01*
X39066Y-28712D02*
X38556Y-28712D01*
X40878Y-26900D02*
X39066Y-28712D01*
X40916Y-26900D02*
X40878Y-26900D01*
X38250Y-28200D02*
X38250Y-27772D01*
X38334Y-27688D02*
X38334Y-26900D01*
X38250Y-27772D02*
X38334Y-27688D01*
X38334Y-26500D02*
X38334Y-26900D01*
X37297Y-26101D02*
X38334Y-26101D01*
X35750Y-27648D02*
X37297Y-26101D01*
X35750Y-28916D02*
X35750Y-27648D01*
X38334Y-26500D02*
X38334Y-26101D01*
X43250Y-30000D02*
X41584Y-30000D01*
X43250Y-32000D02*
X41584Y-32000D01*
X16065Y-29750D02*
X16500Y-29750D01*
X15399Y-30416D02*
X16065Y-29750D01*
X15000Y-30416D02*
X15399Y-30416D01*
X18500Y-29750D02*
X17500Y-29750D01*
X17500Y-29750D02*
X16500Y-29750D01*
X22500Y-30300D02*
X22500Y-29872D01*
X19500Y-29750D02*
X18500Y-29750D01*
X19622Y-29872D02*
X22500Y-29872D01*
X19500Y-29750D02*
X19622Y-29872D01*
X31500Y-22416D02*
X31500Y-21500D01*
X30500Y-22416D02*
X30500Y-21500D01*
X29500Y-22416D02*
X29500Y-21500D01*
X28500Y-22416D02*
X28500Y-21500D01*
X27500Y-22416D02*
X27500Y-21500D01*
X26500Y-22416D02*
X26500Y-21500D01*
X40203Y-21543D02*
X40496Y-21250D01*
X39148Y-21543D02*
X40203Y-21543D01*
X39141Y-21550D02*
X39148Y-21543D01*
X40916Y-21250D02*
X40496Y-21250D01*
X31418Y-26585D02*
X35872Y-22131D01*
X22904Y-26585D02*
X31418Y-26585D01*
X22179Y-25860D02*
X22904Y-26585D01*
X22179Y-24901D02*
X22179Y-25860D01*
X23000Y-24080D02*
X22179Y-24901D01*
X23000Y-23450D02*
X23000Y-24080D01*
X27500Y-30334D02*
X28500Y-30334D01*
X28500Y-30334D02*
X29500Y-30334D01*
X29500Y-30334D02*
X30500Y-30334D01*
X30500Y-30334D02*
X31500Y-30334D01*
X32500Y-29838D02*
X32500Y-28750D01*
X32004Y-30334D02*
X32500Y-29838D01*
X31500Y-30334D02*
X32004Y-30334D01*
X23000Y-30300D02*
X23000Y-30728D01*
X26500Y-30334D02*
X27500Y-30334D01*
X26500Y-30334D02*
X26100Y-30334D01*
X25403Y-31031D02*
X26100Y-30334D01*
X23303Y-31031D02*
X25403Y-31031D01*
X23000Y-30728D02*
X23303Y-31031D01*
X18500Y-31666D02*
X18500Y-30750D01*
X17500Y-26834D02*
X17500Y-27750D01*
X18500Y-26834D02*
X18500Y-27750D01*
X15997Y-28682D02*
X15997Y-28750D01*
X15399Y-28084D02*
X15997Y-28682D01*
X15000Y-28084D02*
X15399Y-28084D01*
X16500Y-28750D02*
X15997Y-28750D01*
X18500Y-28750D02*
X17500Y-28750D01*
X17500Y-28750D02*
X16500Y-28750D01*
X18500Y-28750D02*
X19500Y-28750D01*
X24000Y-29625D02*
X24000Y-30300D01*
X23943Y-29568D02*
X24000Y-29625D01*
X20318Y-29568D02*
X23943Y-29568D01*
X19500Y-28750D02*
X20318Y-29568D01*
X23019Y-27772D02*
X23100Y-27691D01*
X23000Y-27772D02*
X23019Y-27772D01*
X40916Y-28500D02*
X40916Y-28900D01*
X39323Y-31763D02*
X23100Y-31763D01*
X39524Y-31562D02*
X39323Y-31763D01*
X42449Y-31562D02*
X39524Y-31562D01*
X43968Y-30043D02*
X42449Y-31562D01*
X43968Y-29963D02*
X43968Y-30043D01*
X42905Y-28900D02*
X43968Y-29963D01*
X40916Y-28900D02*
X42905Y-28900D01*
X23000Y-28200D02*
X23000Y-27772D01*
X31500Y-29666D02*
X31500Y-28750D01*
X30500Y-29666D02*
X30500Y-28750D01*
X29500Y-29666D02*
X29500Y-28750D01*
X28500Y-29666D02*
X28500Y-28750D01*
X27500Y-27750D02*
X28500Y-27750D01*
X28500Y-27750D02*
X29500Y-27750D01*
X29500Y-27750D02*
X30500Y-27750D01*
X30500Y-27750D02*
X31500Y-27750D01*
X31500Y-27750D02*
X32500Y-27750D01*
X26500Y-27750D02*
X27500Y-27750D01*
X24251Y-30728D02*
X23500Y-30728D01*
X24996Y-29983D02*
X24251Y-30728D01*
X24996Y-27251D02*
X24996Y-29983D01*
X25053Y-27194D02*
X24996Y-27251D01*
X25944Y-27194D02*
X25053Y-27194D01*
X26500Y-27750D02*
X25944Y-27194D01*
X23500Y-30300D02*
X23500Y-30728D01*
X26500Y-29666D02*
X26500Y-28750D01*
X27500Y-29666D02*
X27500Y-28750D01*
X38750Y-27702D02*
X38750Y-28200D01*
X40495Y-25957D02*
X38750Y-27702D01*
X43425Y-25957D02*
X40495Y-25957D01*
X44754Y-27286D02*
X43425Y-25957D01*
X44754Y-30496D02*
X44754Y-27286D01*
X44250Y-31000D02*
X44754Y-30496D01*
X36687Y-15122D02*
X37250Y-15122D01*
X36149Y-14584D02*
X36687Y-15122D01*
X35750Y-14584D02*
X36149Y-14584D01*
X37250Y-15550D02*
X37250Y-15198D01*
X37250Y-15128D02*
X37250Y-15122D01*
X37250Y-15198D02*
X37250Y-15128D01*
X40916Y-11750D02*
X40916Y-12150D01*
X40916Y-12216D02*
X40916Y-12150D01*
X38956Y-14176D02*
X40916Y-12216D01*
X38202Y-14176D02*
X38956Y-14176D01*
X37250Y-15128D02*
X38202Y-14176D01*
X37250Y-37550D02*
X37250Y-37122D01*
X36962Y-36834D02*
X35750Y-36834D01*
X37250Y-37122D02*
X36962Y-36834D01*
X40457Y-32892D02*
X40916Y-33351D01*
X37695Y-32892D02*
X40457Y-32892D01*
X35350Y-35237D02*
X37695Y-32892D01*
X35350Y-36834D02*
X35350Y-35237D01*
X35750Y-36834D02*
X35350Y-36834D01*
X40916Y-33750D02*
X40916Y-33351D01*
X37750Y-37550D02*
X37750Y-37122D01*
X40122Y-34750D02*
X44250Y-34750D01*
X37750Y-37122D02*
X40122Y-34750D01*
X37750Y-22372D02*
X37250Y-22372D01*
X38950Y-21172D02*
X37750Y-22372D01*
X39394Y-21172D02*
X38950Y-21172D01*
X40916Y-19650D02*
X39394Y-21172D01*
X40916Y-19250D02*
X40916Y-19650D01*
X37250Y-22800D02*
X37250Y-22586D01*
X37250Y-22586D02*
X37250Y-22372D01*
X36149Y-23687D02*
X36149Y-23834D01*
X37250Y-22586D02*
X36149Y-23687D01*
X35750Y-23834D02*
X36149Y-23834D01*
X37750Y-23482D02*
X37750Y-22800D01*
X37807Y-23539D02*
X37750Y-23482D01*
X42092Y-23539D02*
X37807Y-23539D01*
X42643Y-22988D02*
X42092Y-23539D01*
X13895Y-12666D02*
X15250Y-12666D01*
X12750Y-13811D02*
X13895Y-12666D01*
X13895Y-16334D02*
X12750Y-15189D01*
X15250Y-16334D02*
X13895Y-16334D01*
X13895Y-20166D02*
X12750Y-21311D01*
X15250Y-20166D02*
X13895Y-20166D01*
X13895Y-23834D02*
X12750Y-22689D01*
X15250Y-23834D02*
X13895Y-23834D01*
X13895Y-27416D02*
X12750Y-28561D01*
X15000Y-27416D02*
X13895Y-27416D01*
X13895Y-31084D02*
X12750Y-29939D01*
X15000Y-31084D02*
X13895Y-31084D01*
X13895Y-34666D02*
X12750Y-35811D01*
X15000Y-34666D02*
X13895Y-34666D01*
X13895Y-38334D02*
X12750Y-37189D01*
X15000Y-38334D02*
X13895Y-38334D01*
X37750Y-13450D02*
X37750Y-13878D01*
X37700Y-13928D02*
X37750Y-13878D01*
X37700Y-13965D02*
X37700Y-13928D01*
X37666Y-12938D02*
X37750Y-13022D01*
X37666Y-11750D02*
X37666Y-12938D01*
X37750Y-13450D02*
X37750Y-13022D01*
X37750Y-20700D02*
X37750Y-21128D01*
X37750Y-21128D02*
X37654Y-21224D01*
X37666Y-20188D02*
X37750Y-20272D01*
X37666Y-19250D02*
X37666Y-20188D01*
X37750Y-20700D02*
X37750Y-20272D01*
X37833Y-28628D02*
X37969Y-28764D01*
X37750Y-28628D02*
X37833Y-28628D01*
X37750Y-28200D02*
X37750Y-28628D01*
X37666Y-27688D02*
X37750Y-27772D01*
X37666Y-26500D02*
X37666Y-27688D01*
X37750Y-28200D02*
X37750Y-27772D01*
X37666Y-33750D02*
X37666Y-33351D01*
X37750Y-35450D02*
X37750Y-35022D01*
X38827Y-34223D02*
X38250Y-34800D01*
X38827Y-33503D02*
X38827Y-34223D01*
X38675Y-33351D02*
X38827Y-33503D01*
X37666Y-33351D02*
X38675Y-33351D01*
X38028Y-35022D02*
X37750Y-35022D01*
X38250Y-34800D02*
X38028Y-35022D01*
G54D10*
G36*
X23776Y-23893D02*
X23566Y-24104D01*
X23345Y-24104D01*
X23349Y-24080D01*
X23350Y-24080D01*
X23350Y-23923D01*
X23351Y-23924D01*
X23388Y-23925D01*
X23450Y-23863D01*
X23450Y-23550D01*
X23450Y-23500D01*
X23450Y-23400D01*
X23550Y-23400D01*
X23550Y-23500D01*
X23550Y-23550D01*
X23550Y-23863D01*
X23612Y-23925D01*
X23649Y-23924D01*
X23741Y-23886D01*
X23750Y-23877D01*
X23759Y-23886D01*
X23776Y-23893D01*
X23776Y-23893D01*
G37*
G54D24*
X23776Y-23893D02*
X23566Y-24104D01*
X23345Y-24104D01*
X23349Y-24080D01*
X23350Y-24080D01*
X23350Y-23923D01*
X23351Y-23924D01*
X23388Y-23925D01*
X23450Y-23863D01*
X23450Y-23550D01*
X23450Y-23500D01*
X23450Y-23400D01*
X23550Y-23400D01*
X23550Y-23500D01*
X23550Y-23550D01*
X23550Y-23863D01*
X23612Y-23925D01*
X23649Y-23924D01*
X23741Y-23886D01*
X23750Y-23877D01*
X23759Y-23886D01*
X23776Y-23893D01*
G54D10*
G36*
X24648Y-12488D02*
X24646Y-12501D01*
X24646Y-15088D01*
X24350Y-15384D01*
X24350Y-15114D01*
X24349Y-15113D01*
X24323Y-14980D01*
X24247Y-14867D01*
X24247Y-14866D01*
X23709Y-14329D01*
X23694Y-14318D01*
X23850Y-14383D01*
X24019Y-14383D01*
X24175Y-14319D01*
X24295Y-14199D01*
X24360Y-14043D01*
X24360Y-13874D01*
X24350Y-13849D01*
X24350Y-13450D01*
X24349Y-13445D01*
X24349Y-13176D01*
X24311Y-13084D01*
X24241Y-13014D01*
X24150Y-12976D01*
X24051Y-12976D01*
X23851Y-12976D01*
X23759Y-13014D01*
X23750Y-13023D01*
X23741Y-13014D01*
X23649Y-12976D01*
X23612Y-12975D01*
X23550Y-13037D01*
X23550Y-13350D01*
X23550Y-13400D01*
X23550Y-13500D01*
X23550Y-13550D01*
X23550Y-13777D01*
X23510Y-13873D01*
X23510Y-14042D01*
X23574Y-14198D01*
X23694Y-14318D01*
X23596Y-14253D01*
X23462Y-14226D01*
X23009Y-14226D01*
X23134Y-14201D01*
X23247Y-14125D01*
X23323Y-14012D01*
X23341Y-13920D01*
X23351Y-13924D01*
X23388Y-13925D01*
X23450Y-13863D01*
X23450Y-13550D01*
X23450Y-13500D01*
X23450Y-13400D01*
X23450Y-13350D01*
X23450Y-13037D01*
X23388Y-12975D01*
X23351Y-12976D01*
X23338Y-12981D01*
X23831Y-12488D01*
X24648Y-12488D01*
X24648Y-12488D01*
G37*
G54D24*
X24648Y-12488D02*
X24646Y-12501D01*
X24646Y-15088D01*
X24350Y-15384D01*
X24350Y-15114D01*
X24349Y-15113D01*
X24323Y-14980D01*
X24247Y-14867D01*
X24247Y-14866D01*
X23709Y-14329D01*
X23694Y-14318D01*
X23850Y-14383D01*
X24019Y-14383D01*
X24175Y-14319D01*
X24295Y-14199D01*
X24360Y-14043D01*
X24360Y-13874D01*
X24350Y-13849D01*
X24350Y-13450D01*
X24349Y-13445D01*
X24349Y-13176D01*
X24311Y-13084D01*
X24241Y-13014D01*
X24150Y-12976D01*
X24051Y-12976D01*
X23851Y-12976D01*
X23759Y-13014D01*
X23750Y-13023D01*
X23741Y-13014D01*
X23649Y-12976D01*
X23612Y-12975D01*
X23550Y-13037D01*
X23550Y-13350D01*
X23550Y-13400D01*
X23550Y-13500D01*
X23550Y-13550D01*
X23550Y-13777D01*
X23510Y-13873D01*
X23510Y-14042D01*
X23574Y-14198D01*
X23694Y-14318D01*
X23596Y-14253D01*
X23462Y-14226D01*
X23009Y-14226D01*
X23134Y-14201D01*
X23247Y-14125D01*
X23323Y-14012D01*
X23341Y-13920D01*
X23351Y-13924D01*
X23388Y-13925D01*
X23450Y-13863D01*
X23450Y-13550D01*
X23450Y-13500D01*
X23450Y-13400D01*
X23450Y-13350D01*
X23450Y-13037D01*
X23388Y-12975D01*
X23351Y-12976D01*
X23338Y-12981D01*
X23831Y-12488D01*
X24648Y-12488D01*
G54D10*
G36*
X38300Y-22850D02*
X38200Y-22850D01*
X38200Y-22750D01*
X38300Y-22750D01*
X38300Y-22850D01*
X38300Y-22850D01*
G37*
G54D24*
X38300Y-22850D02*
X38200Y-22850D01*
X38200Y-22750D01*
X38300Y-22750D01*
X38300Y-22850D01*
G54D10*
G36*
X38300Y-30350D02*
X38200Y-30350D01*
X38200Y-30250D01*
X38300Y-30250D01*
X38300Y-30350D01*
X38300Y-30350D01*
G37*
G54D24*
X38300Y-30350D02*
X38200Y-30350D01*
X38200Y-30250D01*
X38300Y-30250D01*
X38300Y-30350D01*
G54D10*
G36*
X40966Y-22800D02*
X40866Y-22800D01*
X40816Y-22800D01*
X40512Y-22800D01*
X40450Y-22862D01*
X40451Y-22897D01*
X40451Y-22996D01*
X40489Y-23087D01*
X40559Y-23157D01*
X40636Y-23189D01*
X39038Y-23189D01*
X39061Y-23166D01*
X39099Y-23075D01*
X39099Y-22976D01*
X39099Y-22804D01*
X39100Y-22800D01*
X39100Y-22722D01*
X39326Y-22722D01*
X39326Y-22721D01*
X39460Y-22695D01*
X39573Y-22619D01*
X39692Y-22500D01*
X40452Y-22500D01*
X40451Y-22504D01*
X40451Y-22603D01*
X40450Y-22638D01*
X40512Y-22700D01*
X40816Y-22700D01*
X40866Y-22700D01*
X40966Y-22700D01*
X40966Y-22800D01*
X40966Y-22800D01*
G37*
G54D24*
X40966Y-22800D02*
X40866Y-22800D01*
X40816Y-22800D01*
X40512Y-22800D01*
X40450Y-22862D01*
X40451Y-22897D01*
X40451Y-22996D01*
X40489Y-23087D01*
X40559Y-23157D01*
X40636Y-23189D01*
X39038Y-23189D01*
X39061Y-23166D01*
X39099Y-23075D01*
X39099Y-22976D01*
X39099Y-22804D01*
X39100Y-22800D01*
X39100Y-22722D01*
X39326Y-22722D01*
X39326Y-22721D01*
X39460Y-22695D01*
X39573Y-22619D01*
X39692Y-22500D01*
X40452Y-22500D01*
X40451Y-22504D01*
X40451Y-22603D01*
X40450Y-22638D01*
X40512Y-22700D01*
X40816Y-22700D01*
X40866Y-22700D01*
X40966Y-22700D01*
X40966Y-22800D01*
G54D10*
G36*
X43018Y-30498D02*
X42304Y-31212D01*
X40866Y-31212D01*
X40866Y-30384D01*
X40866Y-30050D01*
X40866Y-29950D01*
X40866Y-29616D01*
X40804Y-29554D01*
X40651Y-29555D01*
X40559Y-29593D01*
X40489Y-29663D01*
X40451Y-29754D01*
X40451Y-29853D01*
X40450Y-29888D01*
X40512Y-29950D01*
X40866Y-29950D01*
X40866Y-30050D01*
X40512Y-30050D01*
X40450Y-30112D01*
X40451Y-30147D01*
X40451Y-30246D01*
X40489Y-30337D01*
X40559Y-30407D01*
X40651Y-30445D01*
X40804Y-30446D01*
X40866Y-30384D01*
X40866Y-31212D01*
X39524Y-31212D01*
X39390Y-31239D01*
X39276Y-31315D01*
X39178Y-31413D01*
X23351Y-31413D01*
X23341Y-31403D01*
X23274Y-31375D01*
X23303Y-31381D01*
X25403Y-31381D01*
X25403Y-31380D01*
X25537Y-31354D01*
X25650Y-31278D01*
X26166Y-30762D01*
X26254Y-30799D01*
X26353Y-30799D01*
X26745Y-30799D01*
X26837Y-30761D01*
X26907Y-30691D01*
X26909Y-30684D01*
X27090Y-30684D01*
X27093Y-30691D01*
X27163Y-30761D01*
X27254Y-30799D01*
X27353Y-30799D01*
X27745Y-30799D01*
X27837Y-30761D01*
X27907Y-30691D01*
X27909Y-30684D01*
X28090Y-30684D01*
X28093Y-30691D01*
X28163Y-30761D01*
X28254Y-30799D01*
X28353Y-30799D01*
X28745Y-30799D01*
X28837Y-30761D01*
X28907Y-30691D01*
X28909Y-30684D01*
X29090Y-30684D01*
X29093Y-30691D01*
X29163Y-30761D01*
X29254Y-30799D01*
X29353Y-30799D01*
X29745Y-30799D01*
X29837Y-30761D01*
X29907Y-30691D01*
X29909Y-30684D01*
X30090Y-30684D01*
X30093Y-30691D01*
X30163Y-30761D01*
X30254Y-30799D01*
X30353Y-30799D01*
X30745Y-30799D01*
X30837Y-30761D01*
X30907Y-30691D01*
X30909Y-30684D01*
X31090Y-30684D01*
X31093Y-30691D01*
X31163Y-30761D01*
X31254Y-30799D01*
X31353Y-30799D01*
X31745Y-30799D01*
X31837Y-30761D01*
X31907Y-30691D01*
X31909Y-30684D01*
X32004Y-30684D01*
X32004Y-30683D01*
X32138Y-30657D01*
X32251Y-30581D01*
X32747Y-30086D01*
X32747Y-30085D01*
X32823Y-29972D01*
X32849Y-29838D01*
X32850Y-29838D01*
X32850Y-29176D01*
X32965Y-29061D01*
X33049Y-28859D01*
X33049Y-28641D01*
X32965Y-28439D01*
X32825Y-28299D01*
X32849Y-28299D01*
X32858Y-28294D01*
X35538Y-30975D01*
X35539Y-30975D01*
X35652Y-31051D01*
X35786Y-31078D01*
X38750Y-31078D01*
X38884Y-31051D01*
X38997Y-30975D01*
X39073Y-30862D01*
X39100Y-30728D01*
X39100Y-30300D01*
X39099Y-30295D01*
X39099Y-30026D01*
X39061Y-29934D01*
X38991Y-29864D01*
X38900Y-29826D01*
X38801Y-29826D01*
X38601Y-29826D01*
X38509Y-29864D01*
X38500Y-29873D01*
X38491Y-29864D01*
X38399Y-29826D01*
X38364Y-29825D01*
X38795Y-29394D01*
X39162Y-29394D01*
X39162Y-29393D01*
X39296Y-29367D01*
X39409Y-29291D01*
X40454Y-28246D01*
X40451Y-28254D01*
X40451Y-28353D01*
X40451Y-28745D01*
X40489Y-28837D01*
X40559Y-28907D01*
X40568Y-28910D01*
X40593Y-29034D01*
X40669Y-29147D01*
X40782Y-29223D01*
X40916Y-29250D01*
X42760Y-29250D01*
X43014Y-29503D01*
X42939Y-29535D01*
X42824Y-29650D01*
X41998Y-29650D01*
X41941Y-29593D01*
X41850Y-29555D01*
X41751Y-29555D01*
X41319Y-29555D01*
X41250Y-29583D01*
X41181Y-29555D01*
X41028Y-29554D01*
X40966Y-29616D01*
X40966Y-29900D01*
X40966Y-29950D01*
X40966Y-30050D01*
X40966Y-30100D01*
X40966Y-30384D01*
X41028Y-30446D01*
X41181Y-30445D01*
X41249Y-30416D01*
X41318Y-30445D01*
X41417Y-30445D01*
X41849Y-30445D01*
X41941Y-30407D01*
X41998Y-30350D01*
X42824Y-30350D01*
X42939Y-30465D01*
X43018Y-30498D01*
X43018Y-30498D01*
G37*
G54D24*
X43018Y-30498D02*
X42304Y-31212D01*
X40866Y-31212D01*
X40866Y-30384D01*
X40866Y-30050D01*
X40866Y-29950D01*
X40866Y-29616D01*
X40804Y-29554D01*
X40651Y-29555D01*
X40559Y-29593D01*
X40489Y-29663D01*
X40451Y-29754D01*
X40451Y-29853D01*
X40450Y-29888D01*
X40512Y-29950D01*
X40866Y-29950D01*
X40866Y-30050D01*
X40512Y-30050D01*
X40450Y-30112D01*
X40451Y-30147D01*
X40451Y-30246D01*
X40489Y-30337D01*
X40559Y-30407D01*
X40651Y-30445D01*
X40804Y-30446D01*
X40866Y-30384D01*
X40866Y-31212D01*
X39524Y-31212D01*
X39390Y-31239D01*
X39276Y-31315D01*
X39178Y-31413D01*
X23351Y-31413D01*
X23341Y-31403D01*
X23274Y-31375D01*
X23303Y-31381D01*
X25403Y-31381D01*
X25403Y-31380D01*
X25537Y-31354D01*
X25650Y-31278D01*
X26166Y-30762D01*
X26254Y-30799D01*
X26353Y-30799D01*
X26745Y-30799D01*
X26837Y-30761D01*
X26907Y-30691D01*
X26909Y-30684D01*
X27090Y-30684D01*
X27093Y-30691D01*
X27163Y-30761D01*
X27254Y-30799D01*
X27353Y-30799D01*
X27745Y-30799D01*
X27837Y-30761D01*
X27907Y-30691D01*
X27909Y-30684D01*
X28090Y-30684D01*
X28093Y-30691D01*
X28163Y-30761D01*
X28254Y-30799D01*
X28353Y-30799D01*
X28745Y-30799D01*
X28837Y-30761D01*
X28907Y-30691D01*
X28909Y-30684D01*
X29090Y-30684D01*
X29093Y-30691D01*
X29163Y-30761D01*
X29254Y-30799D01*
X29353Y-30799D01*
X29745Y-30799D01*
X29837Y-30761D01*
X29907Y-30691D01*
X29909Y-30684D01*
X30090Y-30684D01*
X30093Y-30691D01*
X30163Y-30761D01*
X30254Y-30799D01*
X30353Y-30799D01*
X30745Y-30799D01*
X30837Y-30761D01*
X30907Y-30691D01*
X30909Y-30684D01*
X31090Y-30684D01*
X31093Y-30691D01*
X31163Y-30761D01*
X31254Y-30799D01*
X31353Y-30799D01*
X31745Y-30799D01*
X31837Y-30761D01*
X31907Y-30691D01*
X31909Y-30684D01*
X32004Y-30684D01*
X32004Y-30683D01*
X32138Y-30657D01*
X32251Y-30581D01*
X32747Y-30086D01*
X32747Y-30085D01*
X32823Y-29972D01*
X32849Y-29838D01*
X32850Y-29838D01*
X32850Y-29176D01*
X32965Y-29061D01*
X33049Y-28859D01*
X33049Y-28641D01*
X32965Y-28439D01*
X32825Y-28299D01*
X32849Y-28299D01*
X32858Y-28294D01*
X35538Y-30975D01*
X35539Y-30975D01*
X35652Y-31051D01*
X35786Y-31078D01*
X38750Y-31078D01*
X38884Y-31051D01*
X38997Y-30975D01*
X39073Y-30862D01*
X39100Y-30728D01*
X39100Y-30300D01*
X39099Y-30295D01*
X39099Y-30026D01*
X39061Y-29934D01*
X38991Y-29864D01*
X38900Y-29826D01*
X38801Y-29826D01*
X38601Y-29826D01*
X38509Y-29864D01*
X38500Y-29873D01*
X38491Y-29864D01*
X38399Y-29826D01*
X38364Y-29825D01*
X38795Y-29394D01*
X39162Y-29394D01*
X39162Y-29393D01*
X39296Y-29367D01*
X39409Y-29291D01*
X40454Y-28246D01*
X40451Y-28254D01*
X40451Y-28353D01*
X40451Y-28745D01*
X40489Y-28837D01*
X40559Y-28907D01*
X40568Y-28910D01*
X40593Y-29034D01*
X40669Y-29147D01*
X40782Y-29223D01*
X40916Y-29250D01*
X42760Y-29250D01*
X43014Y-29503D01*
X42939Y-29535D01*
X42824Y-29650D01*
X41998Y-29650D01*
X41941Y-29593D01*
X41850Y-29555D01*
X41751Y-29555D01*
X41319Y-29555D01*
X41250Y-29583D01*
X41181Y-29555D01*
X41028Y-29554D01*
X40966Y-29616D01*
X40966Y-29900D01*
X40966Y-29950D01*
X40966Y-30050D01*
X40966Y-30100D01*
X40966Y-30384D01*
X41028Y-30446D01*
X41181Y-30445D01*
X41249Y-30416D01*
X41318Y-30445D01*
X41417Y-30445D01*
X41849Y-30445D01*
X41941Y-30407D01*
X41998Y-30350D01*
X42824Y-30350D01*
X42939Y-30465D01*
X43018Y-30498D01*
G54D10*
G36*
X43377Y-18708D02*
X43359Y-18701D01*
X43141Y-18701D01*
X42939Y-18785D01*
X42824Y-18900D01*
X41998Y-18900D01*
X41941Y-18843D01*
X41850Y-18805D01*
X41751Y-18805D01*
X41319Y-18805D01*
X41250Y-18833D01*
X41182Y-18805D01*
X41083Y-18805D01*
X40651Y-18805D01*
X40559Y-18843D01*
X40489Y-18913D01*
X40451Y-19004D01*
X40451Y-19103D01*
X40451Y-19495D01*
X40487Y-19583D01*
X39939Y-20131D01*
X39899Y-20032D01*
X39779Y-19912D01*
X39623Y-19847D01*
X39454Y-19847D01*
X39298Y-19911D01*
X39287Y-19922D01*
X38750Y-19922D01*
X38684Y-19935D01*
X38684Y-19659D01*
X38691Y-19657D01*
X38761Y-19587D01*
X38799Y-19496D01*
X38799Y-19397D01*
X38799Y-19005D01*
X38761Y-18913D01*
X38691Y-18843D01*
X38600Y-18805D01*
X38501Y-18805D01*
X38069Y-18805D01*
X38000Y-18833D01*
X37932Y-18805D01*
X37833Y-18805D01*
X37401Y-18805D01*
X37309Y-18843D01*
X37239Y-18913D01*
X37201Y-19004D01*
X37201Y-19103D01*
X37201Y-19495D01*
X37239Y-19587D01*
X37309Y-19657D01*
X37316Y-19659D01*
X37316Y-19843D01*
X35648Y-18175D01*
X35648Y-15049D01*
X35995Y-15049D01*
X36083Y-15012D01*
X36439Y-15369D01*
X36440Y-15369D01*
X36553Y-15445D01*
X36686Y-15471D01*
X36687Y-15472D01*
X36900Y-15472D01*
X36900Y-15550D01*
X36901Y-15554D01*
X36901Y-15824D01*
X36939Y-15916D01*
X37009Y-15986D01*
X37100Y-16024D01*
X37199Y-16024D01*
X37399Y-16024D01*
X37491Y-15986D01*
X37500Y-15977D01*
X37509Y-15986D01*
X37600Y-16024D01*
X37699Y-16024D01*
X37899Y-16024D01*
X37991Y-15986D01*
X38000Y-15977D01*
X38009Y-15986D01*
X38101Y-16024D01*
X38138Y-16025D01*
X38200Y-15963D01*
X38200Y-15650D01*
X38200Y-15600D01*
X38200Y-15500D01*
X38300Y-15500D01*
X38300Y-15600D01*
X38300Y-15650D01*
X38300Y-15963D01*
X38362Y-16025D01*
X38399Y-16024D01*
X38408Y-16020D01*
X38427Y-16112D01*
X38503Y-16225D01*
X40792Y-18515D01*
X40793Y-18515D01*
X40906Y-18591D01*
X41040Y-18618D01*
X43286Y-18618D01*
X43377Y-18708D01*
X43377Y-18708D01*
G37*
G54D24*
X43377Y-18708D02*
X43359Y-18701D01*
X43141Y-18701D01*
X42939Y-18785D01*
X42824Y-18900D01*
X41998Y-18900D01*
X41941Y-18843D01*
X41850Y-18805D01*
X41751Y-18805D01*
X41319Y-18805D01*
X41250Y-18833D01*
X41182Y-18805D01*
X41083Y-18805D01*
X40651Y-18805D01*
X40559Y-18843D01*
X40489Y-18913D01*
X40451Y-19004D01*
X40451Y-19103D01*
X40451Y-19495D01*
X40487Y-19583D01*
X39939Y-20131D01*
X39899Y-20032D01*
X39779Y-19912D01*
X39623Y-19847D01*
X39454Y-19847D01*
X39298Y-19911D01*
X39287Y-19922D01*
X38750Y-19922D01*
X38684Y-19935D01*
X38684Y-19659D01*
X38691Y-19657D01*
X38761Y-19587D01*
X38799Y-19496D01*
X38799Y-19397D01*
X38799Y-19005D01*
X38761Y-18913D01*
X38691Y-18843D01*
X38600Y-18805D01*
X38501Y-18805D01*
X38069Y-18805D01*
X38000Y-18833D01*
X37932Y-18805D01*
X37833Y-18805D01*
X37401Y-18805D01*
X37309Y-18843D01*
X37239Y-18913D01*
X37201Y-19004D01*
X37201Y-19103D01*
X37201Y-19495D01*
X37239Y-19587D01*
X37309Y-19657D01*
X37316Y-19659D01*
X37316Y-19843D01*
X35648Y-18175D01*
X35648Y-15049D01*
X35995Y-15049D01*
X36083Y-15012D01*
X36439Y-15369D01*
X36440Y-15369D01*
X36553Y-15445D01*
X36686Y-15471D01*
X36687Y-15472D01*
X36900Y-15472D01*
X36900Y-15550D01*
X36901Y-15554D01*
X36901Y-15824D01*
X36939Y-15916D01*
X37009Y-15986D01*
X37100Y-16024D01*
X37199Y-16024D01*
X37399Y-16024D01*
X37491Y-15986D01*
X37500Y-15977D01*
X37509Y-15986D01*
X37600Y-16024D01*
X37699Y-16024D01*
X37899Y-16024D01*
X37991Y-15986D01*
X38000Y-15977D01*
X38009Y-15986D01*
X38101Y-16024D01*
X38138Y-16025D01*
X38200Y-15963D01*
X38200Y-15650D01*
X38200Y-15600D01*
X38200Y-15500D01*
X38300Y-15500D01*
X38300Y-15600D01*
X38300Y-15650D01*
X38300Y-15963D01*
X38362Y-16025D01*
X38399Y-16024D01*
X38408Y-16020D01*
X38427Y-16112D01*
X38503Y-16225D01*
X40792Y-18515D01*
X40793Y-18515D01*
X40906Y-18591D01*
X41040Y-18618D01*
X43286Y-18618D01*
X43377Y-18708D01*
G54D10*
G36*
X44419Y-36589D02*
X43799Y-37209D01*
X43799Y-37141D01*
X43715Y-36939D01*
X43561Y-36785D01*
X43359Y-36701D01*
X43141Y-36701D01*
X42939Y-36785D01*
X42824Y-36900D01*
X41998Y-36900D01*
X41941Y-36843D01*
X41850Y-36805D01*
X41751Y-36805D01*
X41319Y-36805D01*
X41250Y-36833D01*
X41181Y-36805D01*
X41028Y-36804D01*
X40966Y-36866D01*
X40966Y-37150D01*
X40966Y-37200D01*
X40966Y-37300D01*
X40966Y-37350D01*
X40966Y-37634D01*
X41028Y-37696D01*
X41181Y-37695D01*
X41249Y-37666D01*
X41318Y-37695D01*
X41417Y-37695D01*
X41849Y-37695D01*
X41941Y-37657D01*
X41998Y-37600D01*
X42824Y-37600D01*
X42939Y-37715D01*
X43141Y-37799D01*
X43209Y-37799D01*
X42441Y-38567D01*
X40973Y-38567D01*
X40866Y-38588D01*
X40866Y-37634D01*
X40866Y-37300D01*
X40866Y-37200D01*
X40866Y-36866D01*
X40804Y-36804D01*
X40651Y-36805D01*
X40559Y-36843D01*
X40489Y-36913D01*
X40451Y-37004D01*
X40451Y-37103D01*
X40450Y-37138D01*
X40512Y-37200D01*
X40866Y-37200D01*
X40866Y-37300D01*
X40512Y-37300D01*
X40450Y-37362D01*
X40451Y-37397D01*
X40451Y-37496D01*
X40489Y-37587D01*
X40559Y-37657D01*
X40651Y-37695D01*
X40804Y-37696D01*
X40866Y-37634D01*
X40866Y-38588D01*
X40839Y-38594D01*
X40725Y-38670D01*
X40669Y-38727D01*
X40593Y-38840D01*
X40566Y-38974D01*
X40566Y-39090D01*
X40559Y-39093D01*
X40489Y-39163D01*
X40451Y-39254D01*
X40451Y-39353D01*
X40451Y-39745D01*
X40487Y-39833D01*
X39253Y-41069D01*
X39177Y-41182D01*
X39150Y-41316D01*
X39150Y-42687D01*
X38940Y-42601D01*
X38801Y-42601D01*
X38997Y-42406D01*
X38997Y-42405D01*
X39073Y-42292D01*
X39099Y-42158D01*
X39100Y-42158D01*
X39100Y-37550D01*
X39099Y-37545D01*
X39099Y-37276D01*
X39061Y-37184D01*
X38991Y-37114D01*
X38900Y-37076D01*
X38801Y-37076D01*
X38601Y-37076D01*
X38509Y-37114D01*
X38500Y-37123D01*
X38491Y-37114D01*
X38399Y-37076D01*
X38362Y-37075D01*
X38350Y-37087D01*
X38350Y-37075D01*
X38291Y-37075D01*
X40266Y-35100D01*
X40477Y-35100D01*
X40418Y-35242D01*
X40418Y-35411D01*
X40482Y-35567D01*
X40505Y-35590D01*
X40514Y-35637D01*
X40489Y-35663D01*
X40451Y-35754D01*
X40451Y-35853D01*
X40451Y-36245D01*
X40489Y-36337D01*
X40559Y-36407D01*
X40650Y-36445D01*
X40749Y-36445D01*
X41181Y-36445D01*
X41249Y-36416D01*
X41318Y-36445D01*
X41417Y-36445D01*
X41849Y-36445D01*
X41941Y-36407D01*
X41998Y-36350D01*
X42003Y-36350D01*
X42003Y-36349D01*
X42137Y-36323D01*
X42250Y-36247D01*
X42397Y-36100D01*
X42824Y-36100D01*
X42939Y-36215D01*
X43141Y-36299D01*
X43359Y-36299D01*
X43561Y-36215D01*
X43715Y-36061D01*
X43799Y-35859D01*
X43799Y-35641D01*
X43715Y-35439D01*
X43561Y-35285D01*
X43359Y-35201D01*
X43141Y-35201D01*
X42939Y-35285D01*
X42824Y-35400D01*
X42253Y-35400D01*
X42119Y-35427D01*
X42005Y-35503D01*
X41922Y-35585D01*
X41850Y-35555D01*
X41751Y-35555D01*
X41319Y-35555D01*
X41261Y-35578D01*
X41240Y-35476D01*
X41268Y-35412D01*
X41268Y-35243D01*
X41209Y-35100D01*
X43824Y-35100D01*
X43939Y-35215D01*
X44141Y-35299D01*
X44359Y-35299D01*
X44419Y-35274D01*
X44419Y-36589D01*
X44419Y-36589D01*
G37*
G54D24*
X44419Y-36589D02*
X43799Y-37209D01*
X43799Y-37141D01*
X43715Y-36939D01*
X43561Y-36785D01*
X43359Y-36701D01*
X43141Y-36701D01*
X42939Y-36785D01*
X42824Y-36900D01*
X41998Y-36900D01*
X41941Y-36843D01*
X41850Y-36805D01*
X41751Y-36805D01*
X41319Y-36805D01*
X41250Y-36833D01*
X41181Y-36805D01*
X41028Y-36804D01*
X40966Y-36866D01*
X40966Y-37150D01*
X40966Y-37200D01*
X40966Y-37300D01*
X40966Y-37350D01*
X40966Y-37634D01*
X41028Y-37696D01*
X41181Y-37695D01*
X41249Y-37666D01*
X41318Y-37695D01*
X41417Y-37695D01*
X41849Y-37695D01*
X41941Y-37657D01*
X41998Y-37600D01*
X42824Y-37600D01*
X42939Y-37715D01*
X43141Y-37799D01*
X43209Y-37799D01*
X42441Y-38567D01*
X40973Y-38567D01*
X40866Y-38588D01*
X40866Y-37634D01*
X40866Y-37300D01*
X40866Y-37200D01*
X40866Y-36866D01*
X40804Y-36804D01*
X40651Y-36805D01*
X40559Y-36843D01*
X40489Y-36913D01*
X40451Y-37004D01*
X40451Y-37103D01*
X40450Y-37138D01*
X40512Y-37200D01*
X40866Y-37200D01*
X40866Y-37300D01*
X40512Y-37300D01*
X40450Y-37362D01*
X40451Y-37397D01*
X40451Y-37496D01*
X40489Y-37587D01*
X40559Y-37657D01*
X40651Y-37695D01*
X40804Y-37696D01*
X40866Y-37634D01*
X40866Y-38588D01*
X40839Y-38594D01*
X40725Y-38670D01*
X40669Y-38727D01*
X40593Y-38840D01*
X40566Y-38974D01*
X40566Y-39090D01*
X40559Y-39093D01*
X40489Y-39163D01*
X40451Y-39254D01*
X40451Y-39353D01*
X40451Y-39745D01*
X40487Y-39833D01*
X39253Y-41069D01*
X39177Y-41182D01*
X39150Y-41316D01*
X39150Y-42687D01*
X38940Y-42601D01*
X38801Y-42601D01*
X38997Y-42406D01*
X38997Y-42405D01*
X39073Y-42292D01*
X39099Y-42158D01*
X39100Y-42158D01*
X39100Y-37550D01*
X39099Y-37545D01*
X39099Y-37276D01*
X39061Y-37184D01*
X38991Y-37114D01*
X38900Y-37076D01*
X38801Y-37076D01*
X38601Y-37076D01*
X38509Y-37114D01*
X38500Y-37123D01*
X38491Y-37114D01*
X38399Y-37076D01*
X38362Y-37075D01*
X38350Y-37087D01*
X38350Y-37075D01*
X38291Y-37075D01*
X40266Y-35100D01*
X40477Y-35100D01*
X40418Y-35242D01*
X40418Y-35411D01*
X40482Y-35567D01*
X40505Y-35590D01*
X40514Y-35637D01*
X40489Y-35663D01*
X40451Y-35754D01*
X40451Y-35853D01*
X40451Y-36245D01*
X40489Y-36337D01*
X40559Y-36407D01*
X40650Y-36445D01*
X40749Y-36445D01*
X41181Y-36445D01*
X41249Y-36416D01*
X41318Y-36445D01*
X41417Y-36445D01*
X41849Y-36445D01*
X41941Y-36407D01*
X41998Y-36350D01*
X42003Y-36350D01*
X42003Y-36349D01*
X42137Y-36323D01*
X42250Y-36247D01*
X42397Y-36100D01*
X42824Y-36100D01*
X42939Y-36215D01*
X43141Y-36299D01*
X43359Y-36299D01*
X43561Y-36215D01*
X43715Y-36061D01*
X43799Y-35859D01*
X43799Y-35641D01*
X43715Y-35439D01*
X43561Y-35285D01*
X43359Y-35201D01*
X43141Y-35201D01*
X42939Y-35285D01*
X42824Y-35400D01*
X42253Y-35400D01*
X42119Y-35427D01*
X42005Y-35503D01*
X41922Y-35585D01*
X41850Y-35555D01*
X41751Y-35555D01*
X41319Y-35555D01*
X41261Y-35578D01*
X41240Y-35476D01*
X41268Y-35412D01*
X41268Y-35243D01*
X41209Y-35100D01*
X43824Y-35100D01*
X43939Y-35215D01*
X44141Y-35299D01*
X44359Y-35299D01*
X44419Y-35274D01*
X44419Y-36589D01*
G54D10*
G36*
X45450Y-19364D02*
X44799Y-18713D01*
X44799Y-16359D01*
X44799Y-16141D01*
X44715Y-15939D01*
X44561Y-15785D01*
X44359Y-15701D01*
X44141Y-15701D01*
X43939Y-15785D01*
X43799Y-15925D01*
X43799Y-15359D01*
X43799Y-15141D01*
X43715Y-14939D01*
X43561Y-14785D01*
X43359Y-14701D01*
X43141Y-14701D01*
X42939Y-14785D01*
X42824Y-14900D01*
X41998Y-14900D01*
X41941Y-14843D01*
X41850Y-14805D01*
X41751Y-14805D01*
X41319Y-14805D01*
X41250Y-14833D01*
X41181Y-14805D01*
X41028Y-14804D01*
X40966Y-14866D01*
X40966Y-15150D01*
X40966Y-15200D01*
X40966Y-15300D01*
X40966Y-15350D01*
X40966Y-15634D01*
X41028Y-15696D01*
X41181Y-15695D01*
X41249Y-15666D01*
X41318Y-15695D01*
X41417Y-15695D01*
X41849Y-15695D01*
X41941Y-15657D01*
X41998Y-15600D01*
X42824Y-15600D01*
X42939Y-15715D01*
X43141Y-15799D01*
X43359Y-15799D01*
X43561Y-15715D01*
X43715Y-15561D01*
X43799Y-15359D01*
X43799Y-15925D01*
X43785Y-15939D01*
X43701Y-16141D01*
X43701Y-16359D01*
X43785Y-16561D01*
X43939Y-16715D01*
X44141Y-16799D01*
X44359Y-16799D01*
X44561Y-16715D01*
X44715Y-16561D01*
X44799Y-16359D01*
X44799Y-18713D01*
X43785Y-17700D01*
X43672Y-17624D01*
X43655Y-17620D01*
X43715Y-17561D01*
X43799Y-17359D01*
X43799Y-17141D01*
X43715Y-16939D01*
X43561Y-16785D01*
X43359Y-16701D01*
X43141Y-16701D01*
X42939Y-16785D01*
X42824Y-16900D01*
X41998Y-16900D01*
X41941Y-16843D01*
X41850Y-16805D01*
X41751Y-16805D01*
X41319Y-16805D01*
X41250Y-16833D01*
X41182Y-16805D01*
X41083Y-16805D01*
X40866Y-16805D01*
X40866Y-15634D01*
X40866Y-15300D01*
X40866Y-15200D01*
X40866Y-14866D01*
X40804Y-14804D01*
X40651Y-14805D01*
X40559Y-14843D01*
X40489Y-14913D01*
X40451Y-15004D01*
X40451Y-15103D01*
X40450Y-15138D01*
X40512Y-15200D01*
X40866Y-15200D01*
X40866Y-15300D01*
X40512Y-15300D01*
X40450Y-15362D01*
X40451Y-15397D01*
X40451Y-15496D01*
X40489Y-15587D01*
X40559Y-15657D01*
X40651Y-15695D01*
X40804Y-15696D01*
X40866Y-15634D01*
X40866Y-16805D01*
X40651Y-16805D01*
X40559Y-16843D01*
X40489Y-16913D01*
X40451Y-17004D01*
X40451Y-17103D01*
X40451Y-17184D01*
X39100Y-15833D01*
X39100Y-15550D01*
X39099Y-15545D01*
X39099Y-15276D01*
X39061Y-15184D01*
X38991Y-15114D01*
X38900Y-15076D01*
X38801Y-15076D01*
X38601Y-15076D01*
X38509Y-15114D01*
X38500Y-15123D01*
X38491Y-15114D01*
X38399Y-15076D01*
X38362Y-15075D01*
X38350Y-15087D01*
X38350Y-15075D01*
X38291Y-15075D01*
X38296Y-15070D01*
X38940Y-15070D01*
X38940Y-15069D01*
X39074Y-15043D01*
X39187Y-14967D01*
X40487Y-13666D01*
X40451Y-13754D01*
X40451Y-13853D01*
X40451Y-14245D01*
X40489Y-14337D01*
X40559Y-14407D01*
X40650Y-14445D01*
X40749Y-14445D01*
X41181Y-14445D01*
X41249Y-14416D01*
X41318Y-14445D01*
X41417Y-14445D01*
X41849Y-14445D01*
X41941Y-14407D01*
X41998Y-14350D01*
X42003Y-14350D01*
X42003Y-14349D01*
X42137Y-14323D01*
X42250Y-14247D01*
X42397Y-14100D01*
X42824Y-14100D01*
X42939Y-14215D01*
X43141Y-14299D01*
X43359Y-14299D01*
X43561Y-14215D01*
X43715Y-14061D01*
X43799Y-13859D01*
X43799Y-13641D01*
X43788Y-13616D01*
X44698Y-13616D01*
X44698Y-13615D01*
X44832Y-13589D01*
X44945Y-13513D01*
X45002Y-13457D01*
X45002Y-13456D01*
X45078Y-13343D01*
X45104Y-13209D01*
X45105Y-13209D01*
X45105Y-12228D01*
X45104Y-12227D01*
X45078Y-12094D01*
X45002Y-11981D01*
X45002Y-11980D01*
X44008Y-10987D01*
X43895Y-10911D01*
X43761Y-10884D01*
X23940Y-10884D01*
X23806Y-10911D01*
X23737Y-10956D01*
X23692Y-10987D01*
X21938Y-12742D01*
X21862Y-12855D01*
X21835Y-12989D01*
X21835Y-13859D01*
X21862Y-13993D01*
X21938Y-14106D01*
X21956Y-14125D01*
X21957Y-14125D01*
X22070Y-14201D01*
X22194Y-14226D01*
X20220Y-14226D01*
X20049Y-14054D01*
X20049Y-13891D01*
X19965Y-13689D01*
X19811Y-13535D01*
X19726Y-13500D01*
X19811Y-13465D01*
X19965Y-13311D01*
X20049Y-13109D01*
X20049Y-12891D01*
X19965Y-12689D01*
X19811Y-12535D01*
X19609Y-12451D01*
X19391Y-12451D01*
X19189Y-12535D01*
X19035Y-12689D01*
X19000Y-12773D01*
X18965Y-12689D01*
X18850Y-12574D01*
X18850Y-12498D01*
X18907Y-12441D01*
X18945Y-12350D01*
X18945Y-12251D01*
X18945Y-11819D01*
X18916Y-11750D01*
X18945Y-11681D01*
X18946Y-11528D01*
X18946Y-11304D01*
X18945Y-11151D01*
X18907Y-11059D01*
X18837Y-10989D01*
X18746Y-10951D01*
X18647Y-10951D01*
X18612Y-10950D01*
X18550Y-11012D01*
X18550Y-11366D01*
X18884Y-11366D01*
X18946Y-11304D01*
X18946Y-11528D01*
X18884Y-11466D01*
X18600Y-11466D01*
X18550Y-11466D01*
X18450Y-11466D01*
X18450Y-11366D01*
X18450Y-11012D01*
X18388Y-10950D01*
X18353Y-10951D01*
X18254Y-10951D01*
X18163Y-10989D01*
X18093Y-11059D01*
X18055Y-11151D01*
X18054Y-11304D01*
X18116Y-11366D01*
X18450Y-11366D01*
X18450Y-11466D01*
X18400Y-11466D01*
X18116Y-11466D01*
X18054Y-11528D01*
X18055Y-11681D01*
X18083Y-11749D01*
X18055Y-11818D01*
X18055Y-11917D01*
X18055Y-12349D01*
X18093Y-12441D01*
X18150Y-12498D01*
X18150Y-12574D01*
X18035Y-12689D01*
X18000Y-12773D01*
X17965Y-12689D01*
X17850Y-12574D01*
X17850Y-12498D01*
X17907Y-12441D01*
X17945Y-12350D01*
X17945Y-12251D01*
X17945Y-11819D01*
X17916Y-11750D01*
X17945Y-11681D01*
X17946Y-11528D01*
X17946Y-11304D01*
X17945Y-11151D01*
X17907Y-11059D01*
X17837Y-10989D01*
X17746Y-10951D01*
X17647Y-10951D01*
X17612Y-10950D01*
X17550Y-11012D01*
X17550Y-11366D01*
X17884Y-11366D01*
X17946Y-11304D01*
X17946Y-11528D01*
X17884Y-11466D01*
X17600Y-11466D01*
X17550Y-11466D01*
X17450Y-11466D01*
X17450Y-11366D01*
X17450Y-11012D01*
X17388Y-10950D01*
X17353Y-10951D01*
X17254Y-10951D01*
X17163Y-10989D01*
X17093Y-11059D01*
X17055Y-11151D01*
X17054Y-11304D01*
X17116Y-11366D01*
X17450Y-11366D01*
X17450Y-11466D01*
X17400Y-11466D01*
X17116Y-11466D01*
X17054Y-11528D01*
X17055Y-11681D01*
X17083Y-11749D01*
X17055Y-11818D01*
X17055Y-11917D01*
X17055Y-12349D01*
X17093Y-12441D01*
X17150Y-12498D01*
X17150Y-12574D01*
X17035Y-12689D01*
X17000Y-12773D01*
X16965Y-12689D01*
X16850Y-12574D01*
X16850Y-12498D01*
X16907Y-12441D01*
X16945Y-12350D01*
X16945Y-12251D01*
X16945Y-11819D01*
X16916Y-11750D01*
X16945Y-11681D01*
X16946Y-11528D01*
X16946Y-11304D01*
X16945Y-11151D01*
X16907Y-11059D01*
X16837Y-10989D01*
X16746Y-10951D01*
X16647Y-10951D01*
X16612Y-10950D01*
X16550Y-11012D01*
X16550Y-11366D01*
X16884Y-11366D01*
X16946Y-11304D01*
X16946Y-11528D01*
X16884Y-11466D01*
X16600Y-11466D01*
X16550Y-11466D01*
X16450Y-11466D01*
X16450Y-11366D01*
X16450Y-11012D01*
X16388Y-10950D01*
X16353Y-10951D01*
X16254Y-10951D01*
X16163Y-10989D01*
X16093Y-11059D01*
X16055Y-11151D01*
X16054Y-11304D01*
X16116Y-11366D01*
X16450Y-11366D01*
X16450Y-11466D01*
X16400Y-11466D01*
X16116Y-11466D01*
X16054Y-11528D01*
X16055Y-11681D01*
X16083Y-11749D01*
X16055Y-11818D01*
X16055Y-11917D01*
X16055Y-12349D01*
X16093Y-12441D01*
X16150Y-12498D01*
X16150Y-12574D01*
X16035Y-12689D01*
X15951Y-12891D01*
X15951Y-13109D01*
X15974Y-13165D01*
X15896Y-13087D01*
X15783Y-13011D01*
X15671Y-12988D01*
X15695Y-12932D01*
X15695Y-12833D01*
X15695Y-12401D01*
X15657Y-12309D01*
X15587Y-12239D01*
X15496Y-12201D01*
X15397Y-12201D01*
X15005Y-12201D01*
X14913Y-12239D01*
X14843Y-12309D01*
X14840Y-12316D01*
X13895Y-12316D01*
X13761Y-12343D01*
X13647Y-12419D01*
X12897Y-13169D01*
X12879Y-13162D01*
X12621Y-13162D01*
X12382Y-13261D01*
X12200Y-13443D01*
X12101Y-13682D01*
X12101Y-13940D01*
X12200Y-14179D01*
X12382Y-14361D01*
X12621Y-14460D01*
X12879Y-14460D01*
X13118Y-14361D01*
X13300Y-14179D01*
X13399Y-13940D01*
X13399Y-13682D01*
X13391Y-13663D01*
X14039Y-13016D01*
X14826Y-13016D01*
X14805Y-13068D01*
X14805Y-13167D01*
X14805Y-13599D01*
X14843Y-13691D01*
X14913Y-13761D01*
X15004Y-13799D01*
X15103Y-13799D01*
X15495Y-13799D01*
X15583Y-13762D01*
X15647Y-13826D01*
X15647Y-14000D01*
X15674Y-14134D01*
X15750Y-14247D01*
X15863Y-14323D01*
X15951Y-14340D01*
X15951Y-14349D01*
X15989Y-14441D01*
X16059Y-14511D01*
X16150Y-14549D01*
X16175Y-14549D01*
X16035Y-14689D01*
X15966Y-14853D01*
X15583Y-15237D01*
X15496Y-15201D01*
X15397Y-15201D01*
X15005Y-15201D01*
X14913Y-15239D01*
X14843Y-15309D01*
X14805Y-15400D01*
X14805Y-15499D01*
X14805Y-15931D01*
X14826Y-15984D01*
X14039Y-15984D01*
X13391Y-15336D01*
X13399Y-15318D01*
X13399Y-15060D01*
X13300Y-14821D01*
X13118Y-14639D01*
X12879Y-14540D01*
X12621Y-14540D01*
X12382Y-14639D01*
X12200Y-14821D01*
X12101Y-15060D01*
X12101Y-15318D01*
X12200Y-15557D01*
X12382Y-15739D01*
X12621Y-15838D01*
X12879Y-15838D01*
X12897Y-15830D01*
X13647Y-16581D01*
X13648Y-16581D01*
X13761Y-16657D01*
X13895Y-16684D01*
X14840Y-16684D01*
X14843Y-16691D01*
X14913Y-16761D01*
X15004Y-16799D01*
X15103Y-16799D01*
X15495Y-16799D01*
X15587Y-16761D01*
X15657Y-16691D01*
X15695Y-16600D01*
X15695Y-16501D01*
X15695Y-16069D01*
X15671Y-16011D01*
X15783Y-15989D01*
X15896Y-15913D01*
X15951Y-15858D01*
X15951Y-16349D01*
X15989Y-16441D01*
X16059Y-16511D01*
X16116Y-16535D01*
X16093Y-16559D01*
X16055Y-16650D01*
X16055Y-16749D01*
X16055Y-17181D01*
X16083Y-17250D01*
X16055Y-17319D01*
X16054Y-17472D01*
X16116Y-17534D01*
X16400Y-17534D01*
X16450Y-17534D01*
X16550Y-17534D01*
X16600Y-17534D01*
X16884Y-17534D01*
X16946Y-17472D01*
X16945Y-17319D01*
X16916Y-17250D01*
X16945Y-17182D01*
X16945Y-17083D01*
X16945Y-16651D01*
X16907Y-16559D01*
X16882Y-16534D01*
X16941Y-16511D01*
X17011Y-16441D01*
X17049Y-16350D01*
X17049Y-16325D01*
X17150Y-16426D01*
X17150Y-16502D01*
X17093Y-16559D01*
X17055Y-16650D01*
X17055Y-16749D01*
X17055Y-17181D01*
X17083Y-17250D01*
X17055Y-17319D01*
X17054Y-17472D01*
X17116Y-17534D01*
X17400Y-17534D01*
X17450Y-17534D01*
X17550Y-17534D01*
X17600Y-17534D01*
X17884Y-17534D01*
X17946Y-17472D01*
X17945Y-17319D01*
X17916Y-17250D01*
X17945Y-17182D01*
X17945Y-17083D01*
X17945Y-16651D01*
X17907Y-16559D01*
X17850Y-16502D01*
X17850Y-16426D01*
X17965Y-16311D01*
X18000Y-16226D01*
X18035Y-16311D01*
X18150Y-16426D01*
X18150Y-16502D01*
X18093Y-16559D01*
X18055Y-16650D01*
X18055Y-16749D01*
X18055Y-17181D01*
X18083Y-17250D01*
X18055Y-17319D01*
X18054Y-17472D01*
X18116Y-17534D01*
X18400Y-17534D01*
X18450Y-17534D01*
X18550Y-17534D01*
X18600Y-17534D01*
X18884Y-17534D01*
X18946Y-17472D01*
X18945Y-17319D01*
X18916Y-17250D01*
X18945Y-17182D01*
X18945Y-17083D01*
X18945Y-16651D01*
X18907Y-16559D01*
X18850Y-16502D01*
X18850Y-16426D01*
X18965Y-16311D01*
X19000Y-16226D01*
X19035Y-16311D01*
X19189Y-16465D01*
X19391Y-16549D01*
X19609Y-16549D01*
X19811Y-16465D01*
X19965Y-16311D01*
X20049Y-16109D01*
X20049Y-15891D01*
X19965Y-15689D01*
X19811Y-15535D01*
X19726Y-15500D01*
X19794Y-15472D01*
X22150Y-15472D01*
X22150Y-15550D01*
X22151Y-15554D01*
X22151Y-15824D01*
X22189Y-15916D01*
X22259Y-15986D01*
X22350Y-16024D01*
X22449Y-16024D01*
X22649Y-16024D01*
X22658Y-16020D01*
X22677Y-16112D01*
X22753Y-16225D01*
X23055Y-16528D01*
X23056Y-16528D01*
X23169Y-16604D01*
X23303Y-16631D01*
X25403Y-16631D01*
X25403Y-16630D01*
X25537Y-16604D01*
X25650Y-16528D01*
X26166Y-16012D01*
X26254Y-16049D01*
X26353Y-16049D01*
X26745Y-16049D01*
X26837Y-16011D01*
X26907Y-15941D01*
X26909Y-15934D01*
X27090Y-15934D01*
X27093Y-15941D01*
X27163Y-16011D01*
X27254Y-16049D01*
X27353Y-16049D01*
X27745Y-16049D01*
X27837Y-16011D01*
X27907Y-15941D01*
X27909Y-15934D01*
X28090Y-15934D01*
X28093Y-15941D01*
X28163Y-16011D01*
X28254Y-16049D01*
X28353Y-16049D01*
X28745Y-16049D01*
X28837Y-16011D01*
X28907Y-15941D01*
X28909Y-15934D01*
X29090Y-15934D01*
X29093Y-15941D01*
X29163Y-16011D01*
X29254Y-16049D01*
X29353Y-16049D01*
X29745Y-16049D01*
X29837Y-16011D01*
X29907Y-15941D01*
X29909Y-15934D01*
X30090Y-15934D01*
X30093Y-15941D01*
X30163Y-16011D01*
X30254Y-16049D01*
X30353Y-16049D01*
X30745Y-16049D01*
X30837Y-16011D01*
X30907Y-15941D01*
X30909Y-15934D01*
X31090Y-15934D01*
X31093Y-15941D01*
X31163Y-16011D01*
X31254Y-16049D01*
X31353Y-16049D01*
X31745Y-16049D01*
X31837Y-16011D01*
X31907Y-15941D01*
X31909Y-15934D01*
X32443Y-15934D01*
X32443Y-15933D01*
X32577Y-15907D01*
X32690Y-15831D01*
X32746Y-15776D01*
X32746Y-15775D01*
X32822Y-15662D01*
X32848Y-15528D01*
X32849Y-15528D01*
X32849Y-14427D01*
X32965Y-14311D01*
X33049Y-14109D01*
X33049Y-13891D01*
X32965Y-13689D01*
X32825Y-13549D01*
X32849Y-13549D01*
X32941Y-13511D01*
X33011Y-13441D01*
X33049Y-13350D01*
X33049Y-13251D01*
X33049Y-12651D01*
X33011Y-12559D01*
X32941Y-12489D01*
X32938Y-12488D01*
X33744Y-12488D01*
X34948Y-13691D01*
X34948Y-18320D01*
X34975Y-18454D01*
X35051Y-18567D01*
X36900Y-20416D01*
X36900Y-20700D01*
X36900Y-21007D01*
X36900Y-21008D01*
X36837Y-21071D01*
X36772Y-21227D01*
X36772Y-21396D01*
X36774Y-21403D01*
X36702Y-21418D01*
X36588Y-21494D01*
X36212Y-21870D01*
X36113Y-21771D01*
X35957Y-21706D01*
X35924Y-21706D01*
X36009Y-21502D01*
X36010Y-21001D01*
X35819Y-20538D01*
X35465Y-20183D01*
X35002Y-19991D01*
X34501Y-19990D01*
X34038Y-20181D01*
X33683Y-20535D01*
X33491Y-20998D01*
X33490Y-21499D01*
X33681Y-21962D01*
X34035Y-22317D01*
X34498Y-22509D01*
X34998Y-22509D01*
X31273Y-26235D01*
X24921Y-26235D01*
X26747Y-24410D01*
X26747Y-24409D01*
X26823Y-24296D01*
X26849Y-24163D01*
X26850Y-24162D01*
X26850Y-23498D01*
X26907Y-23441D01*
X26909Y-23434D01*
X27090Y-23434D01*
X27093Y-23441D01*
X27163Y-23511D01*
X27254Y-23549D01*
X27353Y-23549D01*
X27745Y-23549D01*
X27837Y-23511D01*
X27907Y-23441D01*
X27909Y-23434D01*
X28090Y-23434D01*
X28093Y-23441D01*
X28163Y-23511D01*
X28254Y-23549D01*
X28353Y-23549D01*
X28745Y-23549D01*
X28837Y-23511D01*
X28907Y-23441D01*
X28909Y-23434D01*
X29090Y-23434D01*
X29093Y-23441D01*
X29163Y-23511D01*
X29254Y-23549D01*
X29353Y-23549D01*
X29745Y-23549D01*
X29837Y-23511D01*
X29907Y-23441D01*
X29909Y-23434D01*
X30090Y-23434D01*
X30093Y-23441D01*
X30163Y-23511D01*
X30254Y-23549D01*
X30353Y-23549D01*
X30745Y-23549D01*
X30837Y-23511D01*
X30907Y-23441D01*
X30909Y-23434D01*
X31090Y-23434D01*
X31093Y-23441D01*
X31163Y-23511D01*
X31254Y-23549D01*
X31353Y-23549D01*
X31745Y-23549D01*
X31837Y-23511D01*
X31907Y-23441D01*
X31909Y-23434D01*
X32004Y-23434D01*
X32004Y-23433D01*
X32138Y-23407D01*
X32251Y-23331D01*
X32747Y-22836D01*
X32747Y-22835D01*
X32823Y-22722D01*
X32849Y-22588D01*
X32850Y-22588D01*
X32850Y-21926D01*
X32965Y-21811D01*
X33049Y-21609D01*
X33049Y-21391D01*
X32965Y-21189D01*
X32825Y-21049D01*
X32849Y-21049D01*
X32941Y-21011D01*
X33011Y-20941D01*
X33049Y-20850D01*
X33049Y-20751D01*
X33049Y-20151D01*
X33011Y-20059D01*
X32941Y-19989D01*
X32850Y-19951D01*
X32751Y-19951D01*
X32151Y-19951D01*
X32059Y-19989D01*
X31989Y-20059D01*
X31951Y-20150D01*
X31926Y-20150D01*
X31811Y-20035D01*
X31609Y-19951D01*
X31391Y-19951D01*
X31189Y-20035D01*
X31074Y-20150D01*
X30926Y-20150D01*
X30811Y-20035D01*
X30609Y-19951D01*
X30391Y-19951D01*
X30189Y-20035D01*
X30074Y-20150D01*
X29926Y-20150D01*
X29811Y-20035D01*
X29609Y-19951D01*
X29391Y-19951D01*
X29189Y-20035D01*
X29074Y-20150D01*
X28926Y-20150D01*
X28811Y-20035D01*
X28609Y-19951D01*
X28391Y-19951D01*
X28189Y-20035D01*
X28074Y-20150D01*
X27926Y-20150D01*
X27811Y-20035D01*
X27609Y-19951D01*
X27391Y-19951D01*
X27189Y-20035D01*
X27074Y-20150D01*
X26926Y-20150D01*
X26811Y-20035D01*
X26609Y-19951D01*
X26445Y-19951D01*
X26191Y-19697D01*
X26078Y-19621D01*
X25944Y-19594D01*
X25053Y-19594D01*
X24919Y-19621D01*
X24805Y-19697D01*
X24448Y-20055D01*
X24372Y-20168D01*
X24345Y-20302D01*
X24345Y-22297D01*
X24300Y-22253D01*
X24187Y-22177D01*
X24053Y-22150D01*
X23131Y-22150D01*
X23317Y-21965D01*
X23509Y-21502D01*
X23510Y-21001D01*
X23319Y-20538D01*
X22965Y-20183D01*
X22502Y-19991D01*
X22001Y-19990D01*
X21538Y-20181D01*
X21183Y-20535D01*
X20991Y-20998D01*
X20990Y-21499D01*
X21181Y-21962D01*
X21368Y-22150D01*
X19926Y-22150D01*
X19811Y-22035D01*
X19726Y-22000D01*
X19811Y-21965D01*
X19965Y-21811D01*
X20049Y-21609D01*
X20049Y-21391D01*
X19965Y-21189D01*
X19811Y-21035D01*
X19726Y-21000D01*
X19811Y-20965D01*
X19965Y-20811D01*
X20049Y-20609D01*
X20049Y-20391D01*
X19965Y-20189D01*
X19811Y-20035D01*
X19609Y-19951D01*
X19391Y-19951D01*
X19189Y-20035D01*
X19035Y-20189D01*
X19000Y-20273D01*
X18965Y-20189D01*
X18850Y-20074D01*
X18850Y-19998D01*
X18907Y-19941D01*
X18945Y-19850D01*
X18945Y-19751D01*
X18945Y-19319D01*
X18916Y-19250D01*
X18945Y-19181D01*
X18946Y-19028D01*
X18946Y-18804D01*
X18946Y-17696D01*
X18884Y-17634D01*
X18550Y-17634D01*
X18550Y-17988D01*
X18612Y-18050D01*
X18647Y-18049D01*
X18746Y-18049D01*
X18837Y-18011D01*
X18907Y-17941D01*
X18945Y-17849D01*
X18946Y-17696D01*
X18946Y-18804D01*
X18945Y-18651D01*
X18907Y-18559D01*
X18837Y-18489D01*
X18746Y-18451D01*
X18647Y-18451D01*
X18612Y-18450D01*
X18550Y-18512D01*
X18550Y-18866D01*
X18884Y-18866D01*
X18946Y-18804D01*
X18946Y-19028D01*
X18884Y-18966D01*
X18600Y-18966D01*
X18550Y-18966D01*
X18450Y-18966D01*
X18450Y-18866D01*
X18450Y-18512D01*
X18450Y-17988D01*
X18450Y-17634D01*
X18116Y-17634D01*
X18054Y-17696D01*
X18055Y-17849D01*
X18093Y-17941D01*
X18163Y-18011D01*
X18254Y-18049D01*
X18353Y-18049D01*
X18388Y-18050D01*
X18450Y-17988D01*
X18450Y-18512D01*
X18388Y-18450D01*
X18353Y-18451D01*
X18254Y-18451D01*
X18163Y-18489D01*
X18093Y-18559D01*
X18055Y-18651D01*
X18054Y-18804D01*
X18116Y-18866D01*
X18450Y-18866D01*
X18450Y-18966D01*
X18400Y-18966D01*
X18116Y-18966D01*
X18054Y-19028D01*
X18055Y-19181D01*
X18083Y-19249D01*
X18055Y-19318D01*
X18055Y-19417D01*
X18055Y-19849D01*
X18093Y-19941D01*
X18150Y-19998D01*
X18150Y-20074D01*
X18035Y-20189D01*
X18000Y-20273D01*
X17965Y-20189D01*
X17850Y-20074D01*
X17850Y-19998D01*
X17907Y-19941D01*
X17945Y-19850D01*
X17945Y-19751D01*
X17945Y-19319D01*
X17916Y-19250D01*
X17945Y-19181D01*
X17946Y-19028D01*
X17946Y-18804D01*
X17946Y-17696D01*
X17884Y-17634D01*
X17550Y-17634D01*
X17550Y-17988D01*
X17612Y-18050D01*
X17647Y-18049D01*
X17746Y-18049D01*
X17837Y-18011D01*
X17907Y-17941D01*
X17945Y-17849D01*
X17946Y-17696D01*
X17946Y-18804D01*
X17945Y-18651D01*
X17907Y-18559D01*
X17837Y-18489D01*
X17746Y-18451D01*
X17647Y-18451D01*
X17612Y-18450D01*
X17550Y-18512D01*
X17550Y-18866D01*
X17884Y-18866D01*
X17946Y-18804D01*
X17946Y-19028D01*
X17884Y-18966D01*
X17600Y-18966D01*
X17550Y-18966D01*
X17450Y-18966D01*
X17450Y-18866D01*
X17450Y-18512D01*
X17450Y-17988D01*
X17450Y-17634D01*
X17116Y-17634D01*
X17054Y-17696D01*
X17055Y-17849D01*
X17093Y-17941D01*
X17163Y-18011D01*
X17254Y-18049D01*
X17353Y-18049D01*
X17388Y-18050D01*
X17450Y-17988D01*
X17450Y-18512D01*
X17388Y-18450D01*
X17353Y-18451D01*
X17254Y-18451D01*
X17163Y-18489D01*
X17093Y-18559D01*
X17055Y-18651D01*
X17054Y-18804D01*
X17116Y-18866D01*
X17450Y-18866D01*
X17450Y-18966D01*
X17400Y-18966D01*
X17116Y-18966D01*
X17054Y-19028D01*
X17055Y-19181D01*
X17083Y-19249D01*
X17055Y-19318D01*
X17055Y-19417D01*
X17055Y-19849D01*
X17093Y-19941D01*
X17150Y-19998D01*
X17150Y-20074D01*
X17035Y-20189D01*
X17000Y-20273D01*
X16965Y-20189D01*
X16850Y-20074D01*
X16850Y-19998D01*
X16907Y-19941D01*
X16945Y-19850D01*
X16945Y-19751D01*
X16945Y-19319D01*
X16916Y-19250D01*
X16945Y-19181D01*
X16946Y-19028D01*
X16946Y-18804D01*
X16946Y-17696D01*
X16884Y-17634D01*
X16550Y-17634D01*
X16550Y-17988D01*
X16612Y-18050D01*
X16647Y-18049D01*
X16746Y-18049D01*
X16837Y-18011D01*
X16907Y-17941D01*
X16945Y-17849D01*
X16946Y-17696D01*
X16946Y-18804D01*
X16945Y-18651D01*
X16907Y-18559D01*
X16837Y-18489D01*
X16746Y-18451D01*
X16647Y-18451D01*
X16612Y-18450D01*
X16550Y-18512D01*
X16550Y-18866D01*
X16884Y-18866D01*
X16946Y-18804D01*
X16946Y-19028D01*
X16884Y-18966D01*
X16600Y-18966D01*
X16550Y-18966D01*
X16450Y-18966D01*
X16450Y-18866D01*
X16450Y-18512D01*
X16450Y-17988D01*
X16450Y-17634D01*
X16116Y-17634D01*
X16054Y-17696D01*
X16055Y-17849D01*
X16093Y-17941D01*
X16163Y-18011D01*
X16254Y-18049D01*
X16353Y-18049D01*
X16388Y-18050D01*
X16450Y-17988D01*
X16450Y-18512D01*
X16388Y-18450D01*
X16353Y-18451D01*
X16254Y-18451D01*
X16163Y-18489D01*
X16093Y-18559D01*
X16055Y-18651D01*
X16054Y-18804D01*
X16116Y-18866D01*
X16450Y-18866D01*
X16450Y-18966D01*
X16400Y-18966D01*
X16116Y-18966D01*
X16054Y-19028D01*
X16055Y-19181D01*
X16083Y-19249D01*
X16055Y-19318D01*
X16055Y-19417D01*
X16055Y-19849D01*
X16093Y-19941D01*
X16150Y-19998D01*
X16150Y-20074D01*
X16035Y-20189D01*
X15951Y-20391D01*
X15951Y-20609D01*
X15974Y-20665D01*
X15896Y-20587D01*
X15783Y-20511D01*
X15671Y-20488D01*
X15695Y-20432D01*
X15695Y-20333D01*
X15695Y-19901D01*
X15657Y-19809D01*
X15587Y-19739D01*
X15496Y-19701D01*
X15397Y-19701D01*
X15005Y-19701D01*
X14913Y-19739D01*
X14843Y-19809D01*
X14840Y-19816D01*
X13895Y-19816D01*
X13761Y-19843D01*
X13647Y-19919D01*
X12897Y-20669D01*
X12879Y-20662D01*
X12621Y-20662D01*
X12382Y-20761D01*
X12200Y-20943D01*
X12101Y-21182D01*
X12101Y-21440D01*
X12200Y-21679D01*
X12382Y-21861D01*
X12621Y-21960D01*
X12879Y-21960D01*
X13118Y-21861D01*
X13300Y-21679D01*
X13399Y-21440D01*
X13399Y-21182D01*
X13391Y-21163D01*
X14039Y-20516D01*
X14826Y-20516D01*
X14805Y-20568D01*
X14805Y-20667D01*
X14805Y-21099D01*
X14843Y-21191D01*
X14913Y-21261D01*
X15004Y-21299D01*
X15103Y-21299D01*
X15495Y-21299D01*
X15583Y-21262D01*
X15647Y-21326D01*
X15647Y-21500D01*
X15674Y-21634D01*
X15750Y-21747D01*
X15863Y-21823D01*
X15951Y-21840D01*
X15951Y-21849D01*
X15989Y-21941D01*
X16059Y-22011D01*
X16150Y-22049D01*
X16175Y-22049D01*
X16035Y-22189D01*
X15966Y-22353D01*
X15583Y-22737D01*
X15496Y-22701D01*
X15397Y-22701D01*
X15005Y-22701D01*
X14913Y-22739D01*
X14843Y-22809D01*
X14805Y-22900D01*
X14805Y-22999D01*
X14805Y-23431D01*
X14826Y-23484D01*
X14039Y-23484D01*
X13391Y-22836D01*
X13399Y-22818D01*
X13399Y-22560D01*
X13300Y-22321D01*
X13118Y-22139D01*
X12879Y-22040D01*
X12621Y-22040D01*
X12382Y-22139D01*
X12200Y-22321D01*
X12101Y-22560D01*
X12101Y-22818D01*
X12200Y-23057D01*
X12382Y-23239D01*
X12621Y-23338D01*
X12879Y-23338D01*
X12897Y-23330D01*
X13647Y-24081D01*
X13648Y-24081D01*
X13761Y-24157D01*
X13895Y-24184D01*
X14840Y-24184D01*
X14843Y-24191D01*
X14913Y-24261D01*
X15004Y-24299D01*
X15103Y-24299D01*
X15495Y-24299D01*
X15587Y-24261D01*
X15657Y-24191D01*
X15695Y-24100D01*
X15695Y-24001D01*
X15695Y-23569D01*
X15671Y-23511D01*
X15783Y-23489D01*
X15896Y-23413D01*
X15951Y-23358D01*
X15951Y-23849D01*
X15989Y-23941D01*
X16059Y-24011D01*
X16116Y-24035D01*
X16093Y-24059D01*
X16055Y-24150D01*
X16055Y-24249D01*
X16055Y-24681D01*
X16083Y-24750D01*
X16055Y-24819D01*
X16054Y-24972D01*
X16116Y-25034D01*
X16400Y-25034D01*
X16450Y-25034D01*
X16550Y-25034D01*
X16600Y-25034D01*
X16884Y-25034D01*
X16946Y-24972D01*
X16945Y-24819D01*
X16916Y-24750D01*
X16945Y-24682D01*
X16945Y-24583D01*
X16945Y-24151D01*
X16907Y-24059D01*
X16882Y-24034D01*
X16941Y-24011D01*
X17011Y-23941D01*
X17049Y-23850D01*
X17049Y-23825D01*
X17150Y-23926D01*
X17150Y-24002D01*
X17093Y-24059D01*
X17055Y-24150D01*
X17055Y-24249D01*
X17055Y-24681D01*
X17083Y-24750D01*
X17055Y-24819D01*
X17054Y-24972D01*
X17116Y-25034D01*
X17400Y-25034D01*
X17450Y-25034D01*
X17550Y-25034D01*
X17600Y-25034D01*
X17884Y-25034D01*
X17946Y-24972D01*
X17945Y-24819D01*
X17916Y-24750D01*
X17945Y-24682D01*
X17945Y-24583D01*
X17945Y-24151D01*
X17907Y-24059D01*
X17850Y-24002D01*
X17850Y-23926D01*
X17965Y-23811D01*
X18000Y-23726D01*
X18035Y-23811D01*
X18150Y-23926D01*
X18150Y-24002D01*
X18093Y-24059D01*
X18055Y-24150D01*
X18055Y-24249D01*
X18055Y-24681D01*
X18083Y-24750D01*
X18055Y-24819D01*
X18054Y-24972D01*
X18116Y-25034D01*
X18400Y-25034D01*
X18450Y-25034D01*
X18550Y-25034D01*
X18600Y-25034D01*
X18884Y-25034D01*
X18946Y-24972D01*
X18945Y-24819D01*
X18916Y-24750D01*
X18945Y-24682D01*
X18945Y-24583D01*
X18945Y-24151D01*
X18907Y-24059D01*
X18850Y-24002D01*
X18850Y-23926D01*
X18965Y-23811D01*
X19000Y-23726D01*
X19035Y-23811D01*
X19189Y-23965D01*
X19391Y-24049D01*
X19609Y-24049D01*
X19811Y-23965D01*
X19965Y-23811D01*
X20049Y-23609D01*
X20049Y-23391D01*
X19965Y-23189D01*
X19811Y-23035D01*
X19726Y-23000D01*
X19811Y-22965D01*
X19926Y-22850D01*
X23505Y-22850D01*
X23500Y-22862D01*
X23500Y-22975D01*
X23400Y-22975D01*
X23400Y-22987D01*
X23388Y-22975D01*
X23351Y-22976D01*
X23259Y-23014D01*
X23250Y-23023D01*
X23241Y-23014D01*
X23150Y-22976D01*
X23051Y-22976D01*
X22851Y-22976D01*
X22759Y-23014D01*
X22750Y-23023D01*
X22741Y-23014D01*
X22650Y-22976D01*
X22551Y-22976D01*
X22351Y-22976D01*
X22259Y-23014D01*
X22189Y-23084D01*
X22151Y-23175D01*
X22151Y-23274D01*
X22151Y-23445D01*
X22150Y-23450D01*
X22150Y-23733D01*
X21560Y-24324D01*
X21484Y-24437D01*
X21457Y-24571D01*
X21457Y-27890D01*
X21484Y-28024D01*
X21520Y-28079D01*
X21506Y-28115D01*
X21506Y-28284D01*
X21570Y-28440D01*
X21690Y-28560D01*
X21846Y-28625D01*
X22015Y-28625D01*
X22171Y-28561D01*
X22182Y-28549D01*
X22189Y-28566D01*
X22259Y-28636D01*
X22350Y-28674D01*
X22449Y-28674D01*
X22649Y-28674D01*
X22741Y-28636D01*
X22750Y-28627D01*
X22759Y-28636D01*
X22850Y-28674D01*
X22949Y-28674D01*
X23149Y-28674D01*
X23241Y-28636D01*
X23250Y-28627D01*
X23259Y-28636D01*
X23351Y-28674D01*
X23388Y-28675D01*
X23450Y-28613D01*
X23450Y-28300D01*
X23450Y-28250D01*
X23450Y-28150D01*
X23550Y-28150D01*
X23550Y-28250D01*
X23550Y-28300D01*
X23550Y-28613D01*
X23612Y-28675D01*
X23649Y-28674D01*
X23741Y-28636D01*
X23750Y-28627D01*
X23759Y-28636D01*
X23850Y-28674D01*
X23949Y-28674D01*
X24149Y-28674D01*
X24241Y-28636D01*
X24311Y-28566D01*
X24349Y-28475D01*
X24349Y-28376D01*
X24349Y-28204D01*
X24350Y-28200D01*
X24350Y-27772D01*
X24350Y-27766D01*
X24350Y-27756D01*
X24350Y-27750D01*
X24646Y-27454D01*
X24646Y-29838D01*
X24350Y-30134D01*
X24350Y-29625D01*
X24323Y-29491D01*
X24247Y-29378D01*
X24247Y-29377D01*
X24190Y-29321D01*
X24077Y-29245D01*
X23943Y-29218D01*
X20462Y-29218D01*
X20049Y-28804D01*
X20049Y-28641D01*
X19965Y-28439D01*
X19811Y-28285D01*
X19726Y-28250D01*
X19811Y-28215D01*
X19965Y-28061D01*
X20049Y-27859D01*
X20049Y-27641D01*
X19965Y-27439D01*
X19811Y-27285D01*
X19609Y-27201D01*
X19391Y-27201D01*
X19189Y-27285D01*
X19035Y-27439D01*
X19000Y-27523D01*
X18965Y-27439D01*
X18850Y-27324D01*
X18850Y-27248D01*
X18907Y-27191D01*
X18945Y-27100D01*
X18945Y-27001D01*
X18945Y-26569D01*
X18916Y-26500D01*
X18945Y-26431D01*
X18946Y-26278D01*
X18946Y-26054D01*
X18946Y-25196D01*
X18884Y-25134D01*
X18550Y-25134D01*
X18550Y-25488D01*
X18612Y-25550D01*
X18647Y-25549D01*
X18746Y-25549D01*
X18837Y-25511D01*
X18907Y-25441D01*
X18945Y-25349D01*
X18946Y-25196D01*
X18946Y-26054D01*
X18945Y-25901D01*
X18907Y-25809D01*
X18837Y-25739D01*
X18746Y-25701D01*
X18647Y-25701D01*
X18612Y-25700D01*
X18550Y-25762D01*
X18550Y-26116D01*
X18884Y-26116D01*
X18946Y-26054D01*
X18946Y-26278D01*
X18884Y-26216D01*
X18600Y-26216D01*
X18550Y-26216D01*
X18450Y-26216D01*
X18450Y-26116D01*
X18450Y-25762D01*
X18450Y-25488D01*
X18450Y-25134D01*
X18116Y-25134D01*
X18054Y-25196D01*
X18055Y-25349D01*
X18093Y-25441D01*
X18163Y-25511D01*
X18254Y-25549D01*
X18353Y-25549D01*
X18388Y-25550D01*
X18450Y-25488D01*
X18450Y-25762D01*
X18388Y-25700D01*
X18353Y-25701D01*
X18254Y-25701D01*
X18163Y-25739D01*
X18093Y-25809D01*
X18055Y-25901D01*
X18054Y-26054D01*
X18116Y-26116D01*
X18450Y-26116D01*
X18450Y-26216D01*
X18400Y-26216D01*
X18116Y-26216D01*
X18054Y-26278D01*
X18055Y-26431D01*
X18083Y-26499D01*
X18055Y-26568D01*
X18055Y-26667D01*
X18055Y-27099D01*
X18093Y-27191D01*
X18150Y-27248D01*
X18150Y-27324D01*
X18035Y-27439D01*
X18000Y-27523D01*
X17965Y-27439D01*
X17850Y-27324D01*
X17850Y-27248D01*
X17907Y-27191D01*
X17945Y-27100D01*
X17945Y-27001D01*
X17945Y-26569D01*
X17916Y-26500D01*
X17945Y-26431D01*
X17946Y-26278D01*
X17946Y-26054D01*
X17946Y-25196D01*
X17884Y-25134D01*
X17550Y-25134D01*
X17550Y-25488D01*
X17612Y-25550D01*
X17647Y-25549D01*
X17746Y-25549D01*
X17837Y-25511D01*
X17907Y-25441D01*
X17945Y-25349D01*
X17946Y-25196D01*
X17946Y-26054D01*
X17945Y-25901D01*
X17907Y-25809D01*
X17837Y-25739D01*
X17746Y-25701D01*
X17647Y-25701D01*
X17612Y-25700D01*
X17550Y-25762D01*
X17550Y-26116D01*
X17884Y-26116D01*
X17946Y-26054D01*
X17946Y-26278D01*
X17884Y-26216D01*
X17600Y-26216D01*
X17550Y-26216D01*
X17450Y-26216D01*
X17450Y-26116D01*
X17450Y-25762D01*
X17450Y-25488D01*
X17450Y-25134D01*
X17116Y-25134D01*
X17054Y-25196D01*
X17055Y-25349D01*
X17093Y-25441D01*
X17163Y-25511D01*
X17254Y-25549D01*
X17353Y-25549D01*
X17388Y-25550D01*
X17450Y-25488D01*
X17450Y-25762D01*
X17388Y-25700D01*
X17353Y-25701D01*
X17254Y-25701D01*
X17163Y-25739D01*
X17093Y-25809D01*
X17055Y-25901D01*
X17054Y-26054D01*
X17116Y-26116D01*
X17450Y-26116D01*
X17450Y-26216D01*
X17400Y-26216D01*
X17116Y-26216D01*
X17054Y-26278D01*
X17055Y-26431D01*
X17083Y-26499D01*
X17055Y-26568D01*
X17055Y-26667D01*
X17055Y-27099D01*
X17093Y-27191D01*
X17150Y-27248D01*
X17150Y-27324D01*
X17035Y-27439D01*
X17000Y-27523D01*
X16965Y-27439D01*
X16850Y-27324D01*
X16850Y-27248D01*
X16907Y-27191D01*
X16945Y-27100D01*
X16945Y-27001D01*
X16945Y-26569D01*
X16916Y-26500D01*
X16945Y-26431D01*
X16946Y-26278D01*
X16946Y-26054D01*
X16946Y-25196D01*
X16884Y-25134D01*
X16550Y-25134D01*
X16550Y-25488D01*
X16612Y-25550D01*
X16647Y-25549D01*
X16746Y-25549D01*
X16837Y-25511D01*
X16907Y-25441D01*
X16945Y-25349D01*
X16946Y-25196D01*
X16946Y-26054D01*
X16945Y-25901D01*
X16907Y-25809D01*
X16837Y-25739D01*
X16746Y-25701D01*
X16647Y-25701D01*
X16612Y-25700D01*
X16550Y-25762D01*
X16550Y-26116D01*
X16884Y-26116D01*
X16946Y-26054D01*
X16946Y-26278D01*
X16884Y-26216D01*
X16600Y-26216D01*
X16550Y-26216D01*
X16450Y-26216D01*
X16450Y-26116D01*
X16450Y-25762D01*
X16450Y-25488D01*
X16450Y-25134D01*
X16116Y-25134D01*
X16054Y-25196D01*
X16055Y-25349D01*
X16093Y-25441D01*
X16163Y-25511D01*
X16254Y-25549D01*
X16353Y-25549D01*
X16388Y-25550D01*
X16450Y-25488D01*
X16450Y-25762D01*
X16388Y-25700D01*
X16353Y-25701D01*
X16254Y-25701D01*
X16163Y-25739D01*
X16093Y-25809D01*
X16055Y-25901D01*
X16054Y-26054D01*
X16116Y-26116D01*
X16450Y-26116D01*
X16450Y-26216D01*
X16400Y-26216D01*
X16116Y-26216D01*
X16054Y-26278D01*
X16055Y-26431D01*
X16083Y-26499D01*
X16055Y-26568D01*
X16055Y-26667D01*
X16055Y-27099D01*
X16093Y-27191D01*
X16150Y-27248D01*
X16150Y-27324D01*
X16035Y-27439D01*
X15951Y-27641D01*
X15951Y-27859D01*
X16035Y-28061D01*
X16175Y-28201D01*
X16151Y-28201D01*
X16059Y-28239D01*
X16053Y-28244D01*
X15646Y-27837D01*
X15533Y-27761D01*
X15421Y-27738D01*
X15445Y-27682D01*
X15445Y-27583D01*
X15445Y-27151D01*
X15407Y-27059D01*
X15337Y-26989D01*
X15246Y-26951D01*
X15147Y-26951D01*
X14755Y-26951D01*
X14663Y-26989D01*
X14593Y-27059D01*
X14590Y-27066D01*
X13895Y-27066D01*
X13761Y-27093D01*
X13647Y-27169D01*
X12897Y-27919D01*
X12879Y-27912D01*
X12621Y-27912D01*
X12382Y-28011D01*
X12200Y-28193D01*
X12101Y-28432D01*
X12101Y-28690D01*
X12200Y-28929D01*
X12382Y-29111D01*
X12621Y-29210D01*
X12879Y-29210D01*
X13118Y-29111D01*
X13300Y-28929D01*
X13399Y-28690D01*
X13399Y-28432D01*
X13391Y-28413D01*
X14039Y-27766D01*
X14576Y-27766D01*
X14555Y-27818D01*
X14555Y-27917D01*
X14555Y-28349D01*
X14593Y-28441D01*
X14663Y-28511D01*
X14754Y-28549D01*
X14853Y-28549D01*
X15245Y-28549D01*
X15333Y-28512D01*
X15666Y-28846D01*
X15674Y-28884D01*
X15750Y-28997D01*
X15863Y-29073D01*
X15951Y-29090D01*
X15951Y-29099D01*
X15989Y-29191D01*
X16059Y-29261D01*
X16150Y-29299D01*
X16175Y-29299D01*
X16074Y-29400D01*
X16065Y-29400D01*
X15931Y-29427D01*
X15817Y-29503D01*
X15333Y-29987D01*
X15246Y-29951D01*
X15147Y-29951D01*
X14755Y-29951D01*
X14663Y-29989D01*
X14593Y-30059D01*
X14555Y-30150D01*
X14555Y-30249D01*
X14555Y-30681D01*
X14576Y-30734D01*
X14039Y-30734D01*
X13391Y-30086D01*
X13399Y-30068D01*
X13399Y-29810D01*
X13300Y-29571D01*
X13118Y-29389D01*
X12879Y-29290D01*
X12621Y-29290D01*
X12382Y-29389D01*
X12200Y-29571D01*
X12101Y-29810D01*
X12101Y-30068D01*
X12200Y-30307D01*
X12382Y-30489D01*
X12621Y-30588D01*
X12879Y-30588D01*
X12897Y-30580D01*
X13647Y-31331D01*
X13648Y-31331D01*
X13761Y-31407D01*
X13895Y-31434D01*
X14590Y-31434D01*
X14593Y-31441D01*
X14663Y-31511D01*
X14754Y-31549D01*
X14853Y-31549D01*
X15245Y-31549D01*
X15337Y-31511D01*
X15407Y-31441D01*
X15445Y-31350D01*
X15445Y-31251D01*
X15445Y-30819D01*
X15421Y-30761D01*
X15533Y-30739D01*
X15646Y-30663D01*
X15980Y-30328D01*
X15951Y-30400D01*
X15951Y-30499D01*
X15951Y-31099D01*
X15989Y-31191D01*
X16059Y-31261D01*
X16116Y-31285D01*
X16093Y-31309D01*
X16055Y-31400D01*
X16055Y-31499D01*
X16055Y-31931D01*
X16083Y-32000D01*
X16055Y-32069D01*
X16054Y-32222D01*
X16116Y-32284D01*
X16400Y-32284D01*
X16450Y-32284D01*
X16550Y-32284D01*
X16600Y-32284D01*
X16884Y-32284D01*
X16946Y-32222D01*
X16945Y-32069D01*
X16916Y-32000D01*
X16945Y-31932D01*
X16945Y-31833D01*
X16945Y-31401D01*
X16907Y-31309D01*
X16882Y-31284D01*
X16941Y-31261D01*
X17011Y-31191D01*
X17049Y-31100D01*
X17049Y-31075D01*
X17150Y-31176D01*
X17150Y-31252D01*
X17093Y-31309D01*
X17055Y-31400D01*
X17055Y-31499D01*
X17055Y-31931D01*
X17083Y-32000D01*
X17055Y-32069D01*
X17054Y-32222D01*
X17116Y-32284D01*
X17400Y-32284D01*
X17450Y-32284D01*
X17550Y-32284D01*
X17600Y-32284D01*
X17884Y-32284D01*
X17946Y-32222D01*
X17945Y-32069D01*
X17916Y-32000D01*
X17945Y-31932D01*
X17945Y-31833D01*
X17945Y-31401D01*
X17907Y-31309D01*
X17850Y-31252D01*
X17850Y-31176D01*
X17965Y-31061D01*
X18000Y-30976D01*
X18035Y-31061D01*
X18150Y-31176D01*
X18150Y-31252D01*
X18093Y-31309D01*
X18055Y-31400D01*
X18055Y-31499D01*
X18055Y-31931D01*
X18083Y-32000D01*
X18055Y-32069D01*
X18054Y-32222D01*
X18116Y-32284D01*
X18400Y-32284D01*
X18450Y-32284D01*
X18550Y-32284D01*
X18600Y-32284D01*
X18884Y-32284D01*
X18946Y-32222D01*
X18945Y-32069D01*
X18916Y-32000D01*
X18945Y-31932D01*
X18945Y-31833D01*
X18945Y-31401D01*
X18907Y-31309D01*
X18850Y-31252D01*
X18850Y-31176D01*
X18965Y-31061D01*
X19000Y-30976D01*
X19035Y-31061D01*
X19189Y-31215D01*
X19391Y-31299D01*
X19609Y-31299D01*
X19811Y-31215D01*
X19965Y-31061D01*
X20049Y-30859D01*
X20049Y-30641D01*
X19965Y-30439D01*
X19811Y-30285D01*
X19726Y-30250D01*
X19794Y-30222D01*
X22150Y-30222D01*
X22150Y-30300D01*
X22151Y-30304D01*
X22151Y-30574D01*
X22189Y-30666D01*
X22259Y-30736D01*
X22350Y-30774D01*
X22449Y-30774D01*
X22649Y-30774D01*
X22658Y-30770D01*
X22677Y-30862D01*
X22753Y-30975D01*
X23055Y-31278D01*
X23056Y-31278D01*
X23145Y-31338D01*
X23016Y-31338D01*
X22860Y-31402D01*
X22740Y-31522D01*
X22675Y-31678D01*
X22675Y-31847D01*
X22739Y-32003D01*
X22859Y-32123D01*
X23015Y-32188D01*
X23184Y-32188D01*
X23340Y-32124D01*
X23351Y-32113D01*
X26057Y-32113D01*
X23510Y-34660D01*
X23510Y-33501D01*
X23319Y-33038D01*
X22965Y-32683D01*
X22502Y-32491D01*
X22001Y-32490D01*
X21538Y-32681D01*
X21183Y-33035D01*
X20991Y-33498D01*
X20990Y-33999D01*
X21181Y-34462D01*
X21535Y-34817D01*
X21998Y-35009D01*
X22499Y-35010D01*
X22962Y-34819D01*
X23317Y-34465D01*
X23509Y-34002D01*
X23510Y-33501D01*
X23510Y-34660D01*
X22753Y-35418D01*
X22701Y-35494D01*
X22634Y-35449D01*
X22500Y-35422D01*
X22269Y-35422D01*
X22259Y-35412D01*
X22103Y-35347D01*
X21934Y-35347D01*
X21778Y-35411D01*
X21658Y-35531D01*
X21593Y-35687D01*
X21593Y-35856D01*
X21657Y-36012D01*
X21777Y-36132D01*
X21933Y-36197D01*
X22102Y-36197D01*
X22150Y-36177D01*
X22150Y-36200D01*
X22151Y-36204D01*
X22151Y-36474D01*
X22189Y-36566D01*
X22259Y-36636D01*
X22350Y-36674D01*
X22449Y-36674D01*
X22649Y-36674D01*
X22741Y-36636D01*
X22750Y-36627D01*
X22759Y-36636D01*
X22850Y-36674D01*
X22949Y-36674D01*
X23149Y-36674D01*
X23241Y-36636D01*
X23250Y-36627D01*
X23259Y-36636D01*
X23351Y-36674D01*
X23388Y-36675D01*
X23450Y-36613D01*
X23450Y-36300D01*
X23450Y-36250D01*
X23450Y-36150D01*
X23550Y-36150D01*
X23550Y-36250D01*
X23550Y-36300D01*
X23550Y-36613D01*
X23612Y-36675D01*
X23649Y-36674D01*
X23741Y-36636D01*
X23750Y-36627D01*
X23759Y-36636D01*
X23850Y-36674D01*
X23949Y-36674D01*
X24149Y-36674D01*
X24241Y-36636D01*
X24311Y-36566D01*
X24349Y-36475D01*
X24349Y-36376D01*
X24349Y-36204D01*
X24350Y-36200D01*
X24350Y-35772D01*
X24323Y-35638D01*
X24247Y-35525D01*
X24247Y-35524D01*
X24143Y-35421D01*
X24030Y-35345D01*
X23896Y-35318D01*
X23841Y-35318D01*
X26482Y-32677D01*
X34047Y-32677D01*
X34038Y-32681D01*
X33683Y-33035D01*
X33491Y-33498D01*
X33490Y-33999D01*
X33681Y-34462D01*
X34035Y-34817D01*
X34498Y-35009D01*
X34999Y-35010D01*
X35141Y-34951D01*
X35103Y-34990D01*
X35027Y-35103D01*
X35000Y-35237D01*
X35000Y-36834D01*
X35027Y-36968D01*
X35103Y-37081D01*
X35216Y-37157D01*
X35339Y-37181D01*
X35343Y-37191D01*
X35413Y-37261D01*
X35504Y-37299D01*
X35603Y-37299D01*
X35995Y-37299D01*
X36087Y-37261D01*
X36157Y-37191D01*
X36159Y-37184D01*
X36817Y-37184D01*
X36900Y-37266D01*
X36900Y-37550D01*
X36901Y-37554D01*
X36901Y-37824D01*
X36939Y-37916D01*
X37009Y-37986D01*
X37100Y-38024D01*
X37199Y-38024D01*
X37399Y-38024D01*
X37491Y-37986D01*
X37500Y-37977D01*
X37509Y-37986D01*
X37600Y-38024D01*
X37699Y-38024D01*
X37899Y-38024D01*
X37991Y-37986D01*
X38000Y-37977D01*
X38009Y-37986D01*
X38101Y-38024D01*
X38138Y-38025D01*
X38200Y-37963D01*
X38200Y-37650D01*
X38200Y-37600D01*
X38200Y-37500D01*
X38300Y-37500D01*
X38300Y-37600D01*
X38300Y-37650D01*
X38300Y-37963D01*
X38362Y-38025D01*
X38399Y-38024D01*
X38400Y-38023D01*
X38400Y-42013D01*
X36525Y-43888D01*
X36524Y-43851D01*
X36486Y-43759D01*
X36477Y-43750D01*
X36486Y-43741D01*
X36524Y-43650D01*
X36524Y-43551D01*
X36524Y-43351D01*
X36486Y-43259D01*
X36477Y-43250D01*
X36486Y-43241D01*
X36524Y-43150D01*
X36524Y-43051D01*
X36524Y-42851D01*
X36520Y-42841D01*
X36612Y-42823D01*
X36725Y-42747D01*
X36801Y-42634D01*
X36828Y-42500D01*
X36828Y-40370D01*
X36827Y-40369D01*
X36801Y-40236D01*
X36725Y-40123D01*
X36725Y-40122D01*
X36317Y-39714D01*
X36317Y-39700D01*
X36253Y-39544D01*
X36133Y-39424D01*
X35977Y-39359D01*
X35808Y-39359D01*
X35652Y-39423D01*
X35641Y-39434D01*
X33049Y-39434D01*
X33049Y-36109D01*
X33049Y-35891D01*
X32965Y-35689D01*
X32825Y-35549D01*
X32849Y-35549D01*
X32941Y-35511D01*
X33011Y-35441D01*
X33049Y-35350D01*
X33049Y-35251D01*
X33049Y-34651D01*
X33011Y-34559D01*
X32941Y-34489D01*
X32850Y-34451D01*
X32751Y-34451D01*
X32151Y-34451D01*
X32059Y-34489D01*
X31989Y-34559D01*
X31951Y-34650D01*
X31926Y-34650D01*
X31811Y-34535D01*
X31609Y-34451D01*
X31391Y-34451D01*
X31189Y-34535D01*
X31074Y-34650D01*
X30926Y-34650D01*
X30811Y-34535D01*
X30609Y-34451D01*
X30391Y-34451D01*
X30189Y-34535D01*
X30074Y-34650D01*
X29926Y-34650D01*
X29811Y-34535D01*
X29609Y-34451D01*
X29391Y-34451D01*
X29189Y-34535D01*
X29074Y-34650D01*
X28926Y-34650D01*
X28811Y-34535D01*
X28609Y-34451D01*
X28391Y-34451D01*
X28189Y-34535D01*
X28074Y-34650D01*
X27926Y-34650D01*
X27811Y-34535D01*
X27609Y-34451D01*
X27391Y-34451D01*
X27189Y-34535D01*
X27074Y-34650D01*
X26926Y-34650D01*
X26811Y-34535D01*
X26609Y-34451D01*
X26391Y-34451D01*
X26189Y-34535D01*
X26035Y-34689D01*
X26000Y-34773D01*
X25965Y-34689D01*
X25811Y-34535D01*
X25609Y-34451D01*
X25391Y-34451D01*
X25189Y-34535D01*
X25035Y-34689D01*
X24951Y-34891D01*
X24951Y-35109D01*
X25035Y-35311D01*
X25189Y-35465D01*
X25273Y-35500D01*
X25189Y-35535D01*
X25035Y-35689D01*
X24951Y-35891D01*
X24951Y-36109D01*
X25035Y-36311D01*
X25189Y-36465D01*
X25391Y-36549D01*
X25609Y-36549D01*
X25811Y-36465D01*
X25965Y-36311D01*
X26000Y-36226D01*
X26035Y-36311D01*
X26150Y-36426D01*
X26150Y-36502D01*
X26093Y-36559D01*
X26055Y-36650D01*
X26055Y-36749D01*
X26055Y-37181D01*
X26083Y-37249D01*
X26055Y-37318D01*
X26055Y-37417D01*
X26055Y-37849D01*
X26093Y-37941D01*
X26163Y-38011D01*
X26254Y-38049D01*
X26353Y-38049D01*
X26745Y-38049D01*
X26837Y-38011D01*
X26907Y-37941D01*
X26909Y-37934D01*
X27090Y-37934D01*
X27093Y-37941D01*
X27163Y-38011D01*
X27254Y-38049D01*
X27353Y-38049D01*
X27745Y-38049D01*
X27837Y-38011D01*
X27907Y-37941D01*
X27909Y-37934D01*
X28090Y-37934D01*
X28093Y-37941D01*
X28163Y-38011D01*
X28254Y-38049D01*
X28353Y-38049D01*
X28745Y-38049D01*
X28837Y-38011D01*
X28907Y-37941D01*
X28909Y-37934D01*
X29090Y-37934D01*
X29093Y-37941D01*
X29163Y-38011D01*
X29254Y-38049D01*
X29353Y-38049D01*
X29745Y-38049D01*
X29837Y-38011D01*
X29907Y-37941D01*
X29909Y-37934D01*
X30090Y-37934D01*
X30093Y-37941D01*
X30163Y-38011D01*
X30254Y-38049D01*
X30353Y-38049D01*
X30745Y-38049D01*
X30837Y-38011D01*
X30907Y-37941D01*
X30909Y-37934D01*
X31090Y-37934D01*
X31093Y-37941D01*
X31163Y-38011D01*
X31254Y-38049D01*
X31353Y-38049D01*
X31745Y-38049D01*
X31837Y-38011D01*
X31907Y-37941D01*
X31910Y-37931D01*
X32034Y-37907D01*
X32147Y-37831D01*
X32747Y-37232D01*
X32747Y-37231D01*
X32823Y-37118D01*
X32849Y-36984D01*
X32850Y-36984D01*
X32850Y-36426D01*
X32965Y-36311D01*
X33049Y-36109D01*
X33049Y-39434D01*
X31537Y-39434D01*
X31403Y-39461D01*
X31289Y-39537D01*
X29699Y-41127D01*
X29699Y-41101D01*
X29699Y-40301D01*
X29661Y-40209D01*
X29591Y-40139D01*
X29500Y-40101D01*
X29401Y-40101D01*
X28801Y-40101D01*
X28709Y-40139D01*
X28639Y-40209D01*
X28601Y-40300D01*
X28601Y-40399D01*
X28601Y-41199D01*
X28639Y-41291D01*
X28689Y-41341D01*
X28659Y-41387D01*
X28632Y-41521D01*
X28632Y-42860D01*
X28659Y-42994D01*
X28704Y-43062D01*
X28587Y-43180D01*
X28522Y-43336D01*
X28522Y-43505D01*
X28586Y-43661D01*
X28706Y-43781D01*
X28862Y-43846D01*
X29031Y-43846D01*
X29087Y-43822D01*
X29076Y-43851D01*
X29075Y-43888D01*
X29137Y-43950D01*
X29450Y-43950D01*
X29500Y-43950D01*
X29600Y-43950D01*
X29650Y-43950D01*
X29963Y-43950D01*
X30025Y-43888D01*
X30024Y-43851D01*
X29986Y-43759D01*
X29977Y-43750D01*
X29986Y-43741D01*
X30024Y-43650D01*
X30024Y-43643D01*
X31351Y-42316D01*
X31351Y-42349D01*
X31351Y-42949D01*
X31389Y-43041D01*
X31459Y-43111D01*
X31550Y-43149D01*
X31649Y-43149D01*
X32449Y-43149D01*
X32541Y-43111D01*
X32580Y-43071D01*
X32755Y-43247D01*
X32756Y-43247D01*
X32759Y-43249D01*
X32759Y-43250D01*
X32755Y-43253D01*
X32580Y-43428D01*
X32541Y-43389D01*
X32450Y-43351D01*
X32351Y-43351D01*
X31551Y-43351D01*
X31459Y-43389D01*
X31389Y-43459D01*
X31351Y-43550D01*
X31351Y-43649D01*
X31351Y-44205D01*
X30000Y-44205D01*
X30024Y-44149D01*
X30025Y-44112D01*
X29963Y-44050D01*
X29650Y-44050D01*
X29600Y-44050D01*
X29500Y-44050D01*
X29450Y-44050D01*
X29137Y-44050D01*
X29075Y-44112D01*
X29076Y-44149D01*
X29099Y-44205D01*
X28577Y-44205D01*
X28125Y-43753D01*
X28012Y-43677D01*
X27920Y-43658D01*
X27924Y-43650D01*
X27924Y-43551D01*
X27924Y-43351D01*
X27886Y-43259D01*
X27877Y-43250D01*
X27886Y-43241D01*
X27924Y-43150D01*
X27924Y-43051D01*
X27924Y-42851D01*
X27920Y-42841D01*
X28012Y-42823D01*
X28125Y-42747D01*
X28201Y-42634D01*
X28228Y-42500D01*
X28228Y-41387D01*
X28291Y-41361D01*
X28361Y-41291D01*
X28399Y-41200D01*
X28399Y-41101D01*
X28399Y-40301D01*
X28361Y-40209D01*
X28291Y-40139D01*
X28200Y-40101D01*
X28101Y-40101D01*
X27501Y-40101D01*
X27409Y-40139D01*
X27339Y-40209D01*
X27301Y-40300D01*
X27301Y-40399D01*
X27301Y-41199D01*
X27339Y-41291D01*
X27409Y-41361D01*
X27500Y-41399D01*
X27509Y-41399D01*
X27527Y-41487D01*
X27528Y-41488D01*
X27528Y-42150D01*
X27450Y-42150D01*
X27445Y-42151D01*
X27176Y-42151D01*
X27084Y-42189D01*
X27014Y-42259D01*
X26976Y-42350D01*
X26976Y-42449D01*
X26976Y-42649D01*
X26976Y-42650D01*
X26897Y-42650D01*
X26600Y-42353D01*
X26487Y-42277D01*
X26399Y-42259D01*
X26399Y-42251D01*
X26361Y-42159D01*
X26291Y-42089D01*
X26200Y-42051D01*
X26101Y-42051D01*
X25301Y-42051D01*
X25209Y-42089D01*
X25139Y-42159D01*
X25101Y-42250D01*
X25101Y-42349D01*
X25101Y-42949D01*
X25139Y-43041D01*
X25209Y-43111D01*
X25300Y-43149D01*
X25399Y-43149D01*
X26199Y-43149D01*
X26291Y-43111D01*
X26330Y-43071D01*
X26505Y-43247D01*
X26506Y-43247D01*
X26509Y-43249D01*
X26509Y-43250D01*
X26505Y-43253D01*
X26330Y-43428D01*
X26291Y-43389D01*
X26200Y-43351D01*
X26101Y-43351D01*
X25301Y-43351D01*
X25209Y-43389D01*
X25139Y-43459D01*
X25101Y-43550D01*
X25101Y-43649D01*
X25101Y-44053D01*
X24350Y-44053D01*
X24350Y-38728D01*
X24350Y-38300D01*
X24349Y-38295D01*
X24349Y-38026D01*
X24311Y-37934D01*
X24241Y-37864D01*
X24150Y-37826D01*
X24110Y-37826D01*
X24110Y-37673D01*
X24046Y-37517D01*
X23926Y-37397D01*
X23770Y-37332D01*
X23601Y-37332D01*
X23445Y-37396D01*
X23335Y-37506D01*
X23263Y-37434D01*
X23107Y-37369D01*
X22938Y-37369D01*
X22782Y-37433D01*
X22662Y-37553D01*
X22657Y-37564D01*
X22634Y-37549D01*
X22500Y-37522D01*
X20516Y-37522D01*
X20049Y-37054D01*
X20049Y-36891D01*
X19965Y-36689D01*
X19811Y-36535D01*
X19726Y-36500D01*
X19811Y-36465D01*
X19965Y-36311D01*
X20049Y-36109D01*
X20049Y-35891D01*
X19965Y-35689D01*
X19811Y-35535D01*
X19726Y-35500D01*
X19811Y-35465D01*
X19965Y-35311D01*
X20049Y-35109D01*
X20049Y-34891D01*
X19965Y-34689D01*
X19811Y-34535D01*
X19609Y-34451D01*
X19391Y-34451D01*
X19189Y-34535D01*
X19035Y-34689D01*
X19000Y-34773D01*
X18965Y-34689D01*
X18850Y-34574D01*
X18850Y-34498D01*
X18907Y-34441D01*
X18945Y-34350D01*
X18945Y-34251D01*
X18945Y-33819D01*
X18916Y-33750D01*
X18945Y-33681D01*
X18946Y-33528D01*
X18946Y-33304D01*
X18946Y-32446D01*
X18884Y-32384D01*
X18550Y-32384D01*
X18550Y-32738D01*
X18612Y-32800D01*
X18647Y-32799D01*
X18746Y-32799D01*
X18837Y-32761D01*
X18907Y-32691D01*
X18945Y-32599D01*
X18946Y-32446D01*
X18946Y-33304D01*
X18945Y-33151D01*
X18907Y-33059D01*
X18837Y-32989D01*
X18746Y-32951D01*
X18647Y-32951D01*
X18612Y-32950D01*
X18550Y-33012D01*
X18550Y-33366D01*
X18884Y-33366D01*
X18946Y-33304D01*
X18946Y-33528D01*
X18884Y-33466D01*
X18600Y-33466D01*
X18550Y-33466D01*
X18450Y-33466D01*
X18450Y-33366D01*
X18450Y-33012D01*
X18450Y-32738D01*
X18450Y-32384D01*
X18116Y-32384D01*
X18054Y-32446D01*
X18055Y-32599D01*
X18093Y-32691D01*
X18163Y-32761D01*
X18254Y-32799D01*
X18353Y-32799D01*
X18388Y-32800D01*
X18450Y-32738D01*
X18450Y-33012D01*
X18388Y-32950D01*
X18353Y-32951D01*
X18254Y-32951D01*
X18163Y-32989D01*
X18093Y-33059D01*
X18055Y-33151D01*
X18054Y-33304D01*
X18116Y-33366D01*
X18450Y-33366D01*
X18450Y-33466D01*
X18400Y-33466D01*
X18116Y-33466D01*
X18054Y-33528D01*
X18055Y-33681D01*
X18083Y-33749D01*
X18055Y-33818D01*
X18055Y-33917D01*
X18055Y-34349D01*
X18093Y-34441D01*
X18150Y-34498D01*
X18150Y-34574D01*
X18035Y-34689D01*
X18000Y-34773D01*
X17965Y-34689D01*
X17850Y-34574D01*
X17850Y-34498D01*
X17907Y-34441D01*
X17945Y-34350D01*
X17945Y-34251D01*
X17945Y-33819D01*
X17916Y-33750D01*
X17945Y-33681D01*
X17946Y-33528D01*
X17946Y-33304D01*
X17946Y-32446D01*
X17884Y-32384D01*
X17550Y-32384D01*
X17550Y-32738D01*
X17612Y-32800D01*
X17647Y-32799D01*
X17746Y-32799D01*
X17837Y-32761D01*
X17907Y-32691D01*
X17945Y-32599D01*
X17946Y-32446D01*
X17946Y-33304D01*
X17945Y-33151D01*
X17907Y-33059D01*
X17837Y-32989D01*
X17746Y-32951D01*
X17647Y-32951D01*
X17612Y-32950D01*
X17550Y-33012D01*
X17550Y-33366D01*
X17884Y-33366D01*
X17946Y-33304D01*
X17946Y-33528D01*
X17884Y-33466D01*
X17600Y-33466D01*
X17550Y-33466D01*
X17450Y-33466D01*
X17450Y-33366D01*
X17450Y-33012D01*
X17450Y-32738D01*
X17450Y-32384D01*
X17116Y-32384D01*
X17054Y-32446D01*
X17055Y-32599D01*
X17093Y-32691D01*
X17163Y-32761D01*
X17254Y-32799D01*
X17353Y-32799D01*
X17388Y-32800D01*
X17450Y-32738D01*
X17450Y-33012D01*
X17388Y-32950D01*
X17353Y-32951D01*
X17254Y-32951D01*
X17163Y-32989D01*
X17093Y-33059D01*
X17055Y-33151D01*
X17054Y-33304D01*
X17116Y-33366D01*
X17450Y-33366D01*
X17450Y-33466D01*
X17400Y-33466D01*
X17116Y-33466D01*
X17054Y-33528D01*
X17055Y-33681D01*
X17083Y-33749D01*
X17055Y-33818D01*
X17055Y-33917D01*
X17055Y-34349D01*
X17093Y-34441D01*
X17150Y-34498D01*
X17150Y-34574D01*
X17035Y-34689D01*
X17000Y-34773D01*
X16965Y-34689D01*
X16850Y-34574D01*
X16850Y-34498D01*
X16907Y-34441D01*
X16945Y-34350D01*
X16945Y-34251D01*
X16945Y-33819D01*
X16916Y-33750D01*
X16945Y-33681D01*
X16946Y-33528D01*
X16946Y-33304D01*
X16946Y-32446D01*
X16884Y-32384D01*
X16550Y-32384D01*
X16550Y-32738D01*
X16612Y-32800D01*
X16647Y-32799D01*
X16746Y-32799D01*
X16837Y-32761D01*
X16907Y-32691D01*
X16945Y-32599D01*
X16946Y-32446D01*
X16946Y-33304D01*
X16945Y-33151D01*
X16907Y-33059D01*
X16837Y-32989D01*
X16746Y-32951D01*
X16647Y-32951D01*
X16612Y-32950D01*
X16550Y-33012D01*
X16550Y-33366D01*
X16884Y-33366D01*
X16946Y-33304D01*
X16946Y-33528D01*
X16884Y-33466D01*
X16600Y-33466D01*
X16550Y-33466D01*
X16450Y-33466D01*
X16450Y-33366D01*
X16450Y-33012D01*
X16450Y-32738D01*
X16450Y-32384D01*
X16116Y-32384D01*
X16054Y-32446D01*
X16055Y-32599D01*
X16093Y-32691D01*
X16163Y-32761D01*
X16254Y-32799D01*
X16353Y-32799D01*
X16388Y-32800D01*
X16450Y-32738D01*
X16450Y-33012D01*
X16388Y-32950D01*
X16353Y-32951D01*
X16254Y-32951D01*
X16163Y-32989D01*
X16093Y-33059D01*
X16055Y-33151D01*
X16054Y-33304D01*
X16116Y-33366D01*
X16450Y-33366D01*
X16450Y-33466D01*
X16400Y-33466D01*
X16116Y-33466D01*
X16054Y-33528D01*
X16055Y-33681D01*
X16083Y-33749D01*
X16055Y-33818D01*
X16055Y-33917D01*
X16055Y-34349D01*
X16093Y-34441D01*
X16150Y-34498D01*
X16150Y-34574D01*
X16035Y-34689D01*
X15951Y-34891D01*
X15951Y-35109D01*
X16035Y-35311D01*
X16175Y-35451D01*
X16151Y-35451D01*
X16059Y-35489D01*
X16053Y-35494D01*
X15646Y-35087D01*
X15533Y-35011D01*
X15421Y-34988D01*
X15445Y-34932D01*
X15445Y-34833D01*
X15445Y-34401D01*
X15407Y-34309D01*
X15337Y-34239D01*
X15246Y-34201D01*
X15147Y-34201D01*
X14755Y-34201D01*
X14663Y-34239D01*
X14593Y-34309D01*
X14590Y-34316D01*
X13895Y-34316D01*
X13761Y-34343D01*
X13647Y-34419D01*
X12897Y-35169D01*
X12879Y-35162D01*
X12621Y-35162D01*
X12382Y-35261D01*
X12200Y-35443D01*
X12101Y-35682D01*
X12101Y-35940D01*
X12200Y-36179D01*
X12382Y-36361D01*
X12621Y-36460D01*
X12879Y-36460D01*
X13118Y-36361D01*
X13300Y-36179D01*
X13399Y-35940D01*
X13399Y-35682D01*
X13391Y-35663D01*
X14039Y-35016D01*
X14576Y-35016D01*
X14555Y-35068D01*
X14555Y-35167D01*
X14555Y-35599D01*
X14593Y-35691D01*
X14663Y-35761D01*
X14754Y-35799D01*
X14853Y-35799D01*
X15245Y-35799D01*
X15333Y-35762D01*
X15666Y-36096D01*
X15674Y-36134D01*
X15750Y-36247D01*
X15863Y-36323D01*
X15951Y-36340D01*
X15951Y-36349D01*
X15989Y-36441D01*
X16059Y-36511D01*
X16150Y-36549D01*
X16175Y-36549D01*
X16074Y-36650D01*
X16065Y-36650D01*
X15931Y-36677D01*
X15817Y-36753D01*
X15333Y-37237D01*
X15246Y-37201D01*
X15147Y-37201D01*
X14755Y-37201D01*
X14663Y-37239D01*
X14593Y-37309D01*
X14555Y-37400D01*
X14555Y-37499D01*
X14555Y-37931D01*
X14576Y-37984D01*
X14039Y-37984D01*
X13391Y-37336D01*
X13399Y-37318D01*
X13399Y-37060D01*
X13300Y-36821D01*
X13118Y-36639D01*
X12879Y-36540D01*
X12621Y-36540D01*
X12382Y-36639D01*
X12200Y-36821D01*
X12101Y-37060D01*
X12101Y-37318D01*
X12200Y-37557D01*
X12382Y-37739D01*
X12621Y-37838D01*
X12879Y-37838D01*
X12897Y-37830D01*
X13647Y-38581D01*
X13648Y-38581D01*
X13761Y-38657D01*
X13895Y-38684D01*
X14590Y-38684D01*
X14593Y-38691D01*
X14663Y-38761D01*
X14754Y-38799D01*
X14853Y-38799D01*
X15245Y-38799D01*
X15337Y-38761D01*
X15407Y-38691D01*
X15445Y-38600D01*
X15445Y-38501D01*
X15445Y-38069D01*
X15421Y-38011D01*
X15533Y-37989D01*
X15646Y-37913D01*
X15980Y-37578D01*
X15951Y-37650D01*
X15951Y-37749D01*
X15951Y-38349D01*
X15989Y-38441D01*
X16059Y-38511D01*
X16116Y-38535D01*
X16093Y-38559D01*
X16055Y-38650D01*
X16055Y-38749D01*
X16055Y-39181D01*
X16083Y-39250D01*
X16055Y-39319D01*
X16054Y-39472D01*
X16116Y-39534D01*
X16400Y-39534D01*
X16450Y-39534D01*
X16550Y-39534D01*
X16600Y-39534D01*
X16884Y-39534D01*
X16946Y-39472D01*
X16945Y-39319D01*
X16916Y-39250D01*
X16945Y-39182D01*
X16945Y-39083D01*
X16945Y-38651D01*
X16907Y-38559D01*
X16882Y-38534D01*
X16941Y-38511D01*
X17011Y-38441D01*
X17049Y-38350D01*
X17049Y-38325D01*
X17150Y-38426D01*
X17150Y-38502D01*
X17093Y-38559D01*
X17055Y-38650D01*
X17055Y-38749D01*
X17055Y-39181D01*
X17083Y-39250D01*
X17055Y-39319D01*
X17054Y-39472D01*
X17116Y-39534D01*
X17400Y-39534D01*
X17450Y-39534D01*
X17550Y-39534D01*
X17600Y-39534D01*
X17884Y-39534D01*
X17946Y-39472D01*
X17945Y-39319D01*
X17916Y-39250D01*
X17945Y-39182D01*
X17945Y-39083D01*
X17945Y-38651D01*
X17907Y-38559D01*
X17850Y-38502D01*
X17850Y-38426D01*
X17965Y-38311D01*
X18000Y-38226D01*
X18035Y-38311D01*
X18150Y-38426D01*
X18150Y-38502D01*
X18093Y-38559D01*
X18055Y-38650D01*
X18055Y-38749D01*
X18055Y-39181D01*
X18083Y-39250D01*
X18055Y-39319D01*
X18054Y-39472D01*
X18116Y-39534D01*
X18400Y-39534D01*
X18450Y-39534D01*
X18550Y-39534D01*
X18600Y-39534D01*
X18884Y-39534D01*
X18946Y-39472D01*
X18945Y-39319D01*
X18916Y-39250D01*
X18945Y-39182D01*
X18945Y-39083D01*
X18945Y-38651D01*
X18907Y-38559D01*
X18850Y-38502D01*
X18850Y-38426D01*
X18965Y-38311D01*
X19000Y-38226D01*
X19035Y-38311D01*
X19189Y-38465D01*
X19391Y-38549D01*
X19609Y-38549D01*
X19811Y-38465D01*
X19965Y-38311D01*
X20049Y-38109D01*
X20049Y-38043D01*
X20124Y-38119D01*
X20125Y-38119D01*
X20238Y-38195D01*
X20372Y-38222D01*
X20700Y-38222D01*
X20581Y-38271D01*
X20461Y-38391D01*
X20396Y-38547D01*
X20396Y-38716D01*
X20460Y-38872D01*
X20580Y-38992D01*
X20736Y-39057D01*
X20812Y-39057D01*
X20813Y-39057D01*
X20916Y-39077D01*
X20917Y-39078D01*
X24000Y-39078D01*
X24134Y-39051D01*
X24247Y-38975D01*
X24323Y-38862D01*
X24350Y-38728D01*
X24350Y-44053D01*
X23900Y-44053D01*
X23900Y-42712D01*
X23900Y-42488D01*
X23899Y-42251D01*
X23861Y-42159D01*
X23791Y-42089D01*
X23700Y-42051D01*
X23700Y-40612D01*
X23700Y-40388D01*
X23699Y-40149D01*
X23699Y-40050D01*
X23661Y-39959D01*
X23591Y-39889D01*
X23499Y-39851D01*
X23262Y-39850D01*
X23200Y-39912D01*
X23200Y-40450D01*
X23638Y-40450D01*
X23700Y-40388D01*
X23700Y-40612D01*
X23638Y-40550D01*
X23200Y-40550D01*
X23200Y-41088D01*
X23262Y-41150D01*
X23499Y-41149D01*
X23591Y-41111D01*
X23661Y-41041D01*
X23699Y-40950D01*
X23699Y-40851D01*
X23700Y-40612D01*
X23700Y-42051D01*
X23601Y-42051D01*
X23362Y-42050D01*
X23300Y-42112D01*
X23300Y-42550D01*
X23838Y-42550D01*
X23900Y-42488D01*
X23900Y-42712D01*
X23838Y-42650D01*
X23300Y-42650D01*
X23300Y-43088D01*
X23362Y-43150D01*
X23601Y-43149D01*
X23700Y-43149D01*
X23791Y-43111D01*
X23861Y-43041D01*
X23899Y-42949D01*
X23900Y-42712D01*
X23900Y-44053D01*
X23899Y-44053D01*
X23899Y-43551D01*
X23861Y-43459D01*
X23791Y-43389D01*
X23700Y-43351D01*
X23601Y-43351D01*
X23200Y-43351D01*
X23200Y-43088D01*
X23200Y-42650D01*
X23200Y-42550D01*
X23200Y-42112D01*
X23138Y-42050D01*
X23100Y-42050D01*
X23100Y-41088D01*
X23100Y-40550D01*
X23100Y-40450D01*
X23100Y-39912D01*
X23038Y-39850D01*
X22801Y-39851D01*
X22709Y-39889D01*
X22639Y-39959D01*
X22601Y-40050D01*
X22601Y-40149D01*
X22600Y-40388D01*
X22662Y-40450D01*
X23100Y-40450D01*
X23100Y-40550D01*
X22662Y-40550D01*
X22600Y-40612D01*
X22601Y-40851D01*
X22601Y-40950D01*
X22639Y-41041D01*
X22709Y-41111D01*
X22801Y-41149D01*
X23038Y-41150D01*
X23100Y-41088D01*
X23100Y-42050D01*
X22899Y-42051D01*
X22800Y-42051D01*
X22709Y-42089D01*
X22639Y-42159D01*
X22601Y-42251D01*
X22600Y-42488D01*
X22662Y-42550D01*
X23200Y-42550D01*
X23200Y-42650D01*
X22662Y-42650D01*
X22600Y-42712D01*
X22601Y-42949D01*
X22639Y-43041D01*
X22709Y-43111D01*
X22800Y-43149D01*
X22899Y-43149D01*
X23138Y-43150D01*
X23200Y-43088D01*
X23200Y-43351D01*
X22801Y-43351D01*
X22709Y-43389D01*
X22639Y-43459D01*
X22601Y-43550D01*
X21483Y-43550D01*
X21330Y-43396D01*
X21338Y-43379D01*
X21338Y-43121D01*
X21239Y-42882D01*
X21057Y-42700D01*
X20818Y-42601D01*
X20560Y-42601D01*
X20379Y-42675D01*
X21594Y-41462D01*
X21594Y-41461D01*
X21670Y-41348D01*
X21696Y-41214D01*
X21697Y-41214D01*
X21697Y-41149D01*
X22199Y-41149D01*
X22291Y-41111D01*
X22361Y-41041D01*
X22399Y-40950D01*
X22399Y-40851D01*
X22399Y-40051D01*
X22361Y-39959D01*
X22291Y-39889D01*
X22200Y-39851D01*
X22101Y-39851D01*
X21501Y-39851D01*
X21409Y-39889D01*
X21339Y-39959D01*
X21301Y-40050D01*
X21301Y-40149D01*
X21301Y-40159D01*
X21213Y-40177D01*
X21100Y-40253D01*
X21024Y-40366D01*
X20997Y-40500D01*
X20997Y-41069D01*
X19458Y-42608D01*
X19440Y-42601D01*
X19182Y-42601D01*
X18946Y-42698D01*
X18946Y-39696D01*
X18884Y-39634D01*
X18550Y-39634D01*
X18550Y-39988D01*
X18612Y-40050D01*
X18647Y-40049D01*
X18746Y-40049D01*
X18837Y-40011D01*
X18907Y-39941D01*
X18945Y-39849D01*
X18946Y-39696D01*
X18946Y-42698D01*
X18943Y-42700D01*
X18761Y-42882D01*
X18662Y-43121D01*
X18662Y-43379D01*
X18761Y-43618D01*
X18943Y-43800D01*
X19182Y-43899D01*
X19440Y-43899D01*
X19679Y-43800D01*
X19861Y-43618D01*
X19960Y-43379D01*
X19960Y-43121D01*
X19952Y-43102D01*
X20114Y-42940D01*
X20040Y-43121D01*
X20040Y-43379D01*
X20139Y-43618D01*
X20321Y-43800D01*
X20560Y-43899D01*
X20818Y-43899D01*
X20835Y-43891D01*
X21091Y-44147D01*
X21092Y-44147D01*
X21205Y-44223D01*
X21339Y-44250D01*
X22601Y-44250D01*
X22639Y-44341D01*
X22709Y-44411D01*
X22800Y-44449D01*
X22899Y-44449D01*
X22909Y-44449D01*
X22909Y-44450D01*
X18580Y-44450D01*
X18580Y-43353D01*
X18570Y-43099D01*
X18493Y-42910D01*
X18450Y-42894D01*
X18450Y-39988D01*
X18450Y-39634D01*
X18116Y-39634D01*
X18054Y-39696D01*
X18055Y-39849D01*
X18093Y-39941D01*
X18163Y-40011D01*
X18254Y-40049D01*
X18353Y-40049D01*
X18388Y-40050D01*
X18450Y-39988D01*
X18450Y-42894D01*
X18388Y-42872D01*
X18317Y-42943D01*
X18317Y-42801D01*
X18279Y-42696D01*
X18042Y-42609D01*
X17946Y-42612D01*
X17946Y-39696D01*
X17884Y-39634D01*
X17550Y-39634D01*
X17550Y-39988D01*
X17612Y-40050D01*
X17647Y-40049D01*
X17746Y-40049D01*
X17837Y-40011D01*
X17907Y-39941D01*
X17945Y-39849D01*
X17946Y-39696D01*
X17946Y-42612D01*
X17788Y-42619D01*
X17599Y-42696D01*
X17561Y-42801D01*
X17939Y-43179D01*
X18317Y-42801D01*
X18317Y-42943D01*
X18010Y-43250D01*
X18388Y-43628D01*
X18493Y-43590D01*
X18580Y-43353D01*
X18580Y-44450D01*
X18317Y-44450D01*
X18317Y-43699D01*
X17939Y-43321D01*
X17868Y-43392D01*
X17868Y-43250D01*
X17490Y-42872D01*
X17450Y-42886D01*
X17450Y-39988D01*
X17450Y-39634D01*
X17116Y-39634D01*
X17054Y-39696D01*
X17055Y-39849D01*
X17093Y-39941D01*
X17163Y-40011D01*
X17254Y-40049D01*
X17353Y-40049D01*
X17388Y-40050D01*
X17450Y-39988D01*
X17450Y-42886D01*
X17385Y-42910D01*
X17298Y-43147D01*
X17308Y-43401D01*
X17385Y-43590D01*
X17490Y-43628D01*
X17868Y-43250D01*
X17868Y-43392D01*
X17561Y-43699D01*
X17599Y-43804D01*
X17836Y-43891D01*
X18090Y-43881D01*
X18279Y-43804D01*
X18317Y-43699D01*
X18317Y-44450D01*
X17210Y-44450D01*
X17210Y-43379D01*
X17210Y-43121D01*
X17111Y-42882D01*
X16946Y-42717D01*
X16946Y-39696D01*
X16884Y-39634D01*
X16550Y-39634D01*
X16550Y-39988D01*
X16612Y-40050D01*
X16647Y-40049D01*
X16746Y-40049D01*
X16837Y-40011D01*
X16907Y-39941D01*
X16945Y-39849D01*
X16946Y-39696D01*
X16946Y-42717D01*
X16929Y-42700D01*
X16690Y-42601D01*
X16450Y-42601D01*
X16450Y-39988D01*
X16450Y-39634D01*
X16116Y-39634D01*
X16054Y-39696D01*
X16055Y-39849D01*
X16093Y-39941D01*
X16163Y-40011D01*
X16254Y-40049D01*
X16353Y-40049D01*
X16388Y-40050D01*
X16450Y-39988D01*
X16450Y-42601D01*
X16432Y-42601D01*
X16193Y-42700D01*
X16011Y-42882D01*
X15912Y-43121D01*
X15912Y-43379D01*
X16011Y-43618D01*
X16193Y-43800D01*
X16432Y-43899D01*
X16690Y-43899D01*
X16929Y-43800D01*
X17111Y-43618D01*
X17210Y-43379D01*
X17210Y-44450D01*
X15830Y-44450D01*
X15830Y-43353D01*
X15820Y-43099D01*
X15743Y-42910D01*
X15638Y-42872D01*
X15567Y-42943D01*
X15567Y-42801D01*
X15529Y-42696D01*
X15292Y-42609D01*
X15038Y-42619D01*
X14849Y-42696D01*
X14811Y-42801D01*
X15189Y-43179D01*
X15567Y-42801D01*
X15567Y-42943D01*
X15260Y-43250D01*
X15638Y-43628D01*
X15743Y-43590D01*
X15830Y-43353D01*
X15830Y-44450D01*
X15567Y-44450D01*
X15567Y-43699D01*
X15189Y-43321D01*
X15118Y-43392D01*
X15118Y-43250D01*
X14740Y-42872D01*
X14635Y-42910D01*
X14548Y-43147D01*
X14558Y-43401D01*
X14635Y-43590D01*
X14740Y-43628D01*
X15118Y-43250D01*
X15118Y-43392D01*
X14811Y-43699D01*
X14849Y-43804D01*
X15086Y-43891D01*
X15340Y-43881D01*
X15529Y-43804D01*
X15567Y-43699D01*
X15567Y-44450D01*
X14460Y-44450D01*
X14460Y-43379D01*
X14460Y-43121D01*
X14361Y-42882D01*
X14179Y-42700D01*
X13940Y-42601D01*
X13682Y-42601D01*
X13443Y-42700D01*
X13261Y-42882D01*
X13162Y-43121D01*
X13162Y-43379D01*
X13261Y-43618D01*
X13443Y-43800D01*
X13682Y-43899D01*
X13940Y-43899D01*
X14179Y-43800D01*
X14361Y-43618D01*
X14460Y-43379D01*
X14460Y-44450D01*
X11550Y-44450D01*
X11550Y-10550D01*
X45450Y-10550D01*
X45450Y-19364D01*
X45450Y-19364D01*
G37*
G54D24*
X45450Y-19364D02*
X44799Y-18713D01*
X44799Y-16359D01*
X44799Y-16141D01*
X44715Y-15939D01*
X44561Y-15785D01*
X44359Y-15701D01*
X44141Y-15701D01*
X43939Y-15785D01*
X43799Y-15925D01*
X43799Y-15359D01*
X43799Y-15141D01*
X43715Y-14939D01*
X43561Y-14785D01*
X43359Y-14701D01*
X43141Y-14701D01*
X42939Y-14785D01*
X42824Y-14900D01*
X41998Y-14900D01*
X41941Y-14843D01*
X41850Y-14805D01*
X41751Y-14805D01*
X41319Y-14805D01*
X41250Y-14833D01*
X41181Y-14805D01*
X41028Y-14804D01*
X40966Y-14866D01*
X40966Y-15150D01*
X40966Y-15200D01*
X40966Y-15300D01*
X40966Y-15350D01*
X40966Y-15634D01*
X41028Y-15696D01*
X41181Y-15695D01*
X41249Y-15666D01*
X41318Y-15695D01*
X41417Y-15695D01*
X41849Y-15695D01*
X41941Y-15657D01*
X41998Y-15600D01*
X42824Y-15600D01*
X42939Y-15715D01*
X43141Y-15799D01*
X43359Y-15799D01*
X43561Y-15715D01*
X43715Y-15561D01*
X43799Y-15359D01*
X43799Y-15925D01*
X43785Y-15939D01*
X43701Y-16141D01*
X43701Y-16359D01*
X43785Y-16561D01*
X43939Y-16715D01*
X44141Y-16799D01*
X44359Y-16799D01*
X44561Y-16715D01*
X44715Y-16561D01*
X44799Y-16359D01*
X44799Y-18713D01*
X43785Y-17700D01*
X43672Y-17624D01*
X43655Y-17620D01*
X43715Y-17561D01*
X43799Y-17359D01*
X43799Y-17141D01*
X43715Y-16939D01*
X43561Y-16785D01*
X43359Y-16701D01*
X43141Y-16701D01*
X42939Y-16785D01*
X42824Y-16900D01*
X41998Y-16900D01*
X41941Y-16843D01*
X41850Y-16805D01*
X41751Y-16805D01*
X41319Y-16805D01*
X41250Y-16833D01*
X41182Y-16805D01*
X41083Y-16805D01*
X40866Y-16805D01*
X40866Y-15634D01*
X40866Y-15300D01*
X40866Y-15200D01*
X40866Y-14866D01*
X40804Y-14804D01*
X40651Y-14805D01*
X40559Y-14843D01*
X40489Y-14913D01*
X40451Y-15004D01*
X40451Y-15103D01*
X40450Y-15138D01*
X40512Y-15200D01*
X40866Y-15200D01*
X40866Y-15300D01*
X40512Y-15300D01*
X40450Y-15362D01*
X40451Y-15397D01*
X40451Y-15496D01*
X40489Y-15587D01*
X40559Y-15657D01*
X40651Y-15695D01*
X40804Y-15696D01*
X40866Y-15634D01*
X40866Y-16805D01*
X40651Y-16805D01*
X40559Y-16843D01*
X40489Y-16913D01*
X40451Y-17004D01*
X40451Y-17103D01*
X40451Y-17184D01*
X39100Y-15833D01*
X39100Y-15550D01*
X39099Y-15545D01*
X39099Y-15276D01*
X39061Y-15184D01*
X38991Y-15114D01*
X38900Y-15076D01*
X38801Y-15076D01*
X38601Y-15076D01*
X38509Y-15114D01*
X38500Y-15123D01*
X38491Y-15114D01*
X38399Y-15076D01*
X38362Y-15075D01*
X38350Y-15087D01*
X38350Y-15075D01*
X38291Y-15075D01*
X38296Y-15070D01*
X38940Y-15070D01*
X38940Y-15069D01*
X39074Y-15043D01*
X39187Y-14967D01*
X40487Y-13666D01*
X40451Y-13754D01*
X40451Y-13853D01*
X40451Y-14245D01*
X40489Y-14337D01*
X40559Y-14407D01*
X40650Y-14445D01*
X40749Y-14445D01*
X41181Y-14445D01*
X41249Y-14416D01*
X41318Y-14445D01*
X41417Y-14445D01*
X41849Y-14445D01*
X41941Y-14407D01*
X41998Y-14350D01*
X42003Y-14350D01*
X42003Y-14349D01*
X42137Y-14323D01*
X42250Y-14247D01*
X42397Y-14100D01*
X42824Y-14100D01*
X42939Y-14215D01*
X43141Y-14299D01*
X43359Y-14299D01*
X43561Y-14215D01*
X43715Y-14061D01*
X43799Y-13859D01*
X43799Y-13641D01*
X43788Y-13616D01*
X44698Y-13616D01*
X44698Y-13615D01*
X44832Y-13589D01*
X44945Y-13513D01*
X45002Y-13457D01*
X45002Y-13456D01*
X45078Y-13343D01*
X45104Y-13209D01*
X45105Y-13209D01*
X45105Y-12228D01*
X45104Y-12227D01*
X45078Y-12094D01*
X45002Y-11981D01*
X45002Y-11980D01*
X44008Y-10987D01*
X43895Y-10911D01*
X43761Y-10884D01*
X23940Y-10884D01*
X23806Y-10911D01*
X23737Y-10956D01*
X23692Y-10987D01*
X21938Y-12742D01*
X21862Y-12855D01*
X21835Y-12989D01*
X21835Y-13859D01*
X21862Y-13993D01*
X21938Y-14106D01*
X21956Y-14125D01*
X21957Y-14125D01*
X22070Y-14201D01*
X22194Y-14226D01*
X20220Y-14226D01*
X20049Y-14054D01*
X20049Y-13891D01*
X19965Y-13689D01*
X19811Y-13535D01*
X19726Y-13500D01*
X19811Y-13465D01*
X19965Y-13311D01*
X20049Y-13109D01*
X20049Y-12891D01*
X19965Y-12689D01*
X19811Y-12535D01*
X19609Y-12451D01*
X19391Y-12451D01*
X19189Y-12535D01*
X19035Y-12689D01*
X19000Y-12773D01*
X18965Y-12689D01*
X18850Y-12574D01*
X18850Y-12498D01*
X18907Y-12441D01*
X18945Y-12350D01*
X18945Y-12251D01*
X18945Y-11819D01*
X18916Y-11750D01*
X18945Y-11681D01*
X18946Y-11528D01*
X18946Y-11304D01*
X18945Y-11151D01*
X18907Y-11059D01*
X18837Y-10989D01*
X18746Y-10951D01*
X18647Y-10951D01*
X18612Y-10950D01*
X18550Y-11012D01*
X18550Y-11366D01*
X18884Y-11366D01*
X18946Y-11304D01*
X18946Y-11528D01*
X18884Y-11466D01*
X18600Y-11466D01*
X18550Y-11466D01*
X18450Y-11466D01*
X18450Y-11366D01*
X18450Y-11012D01*
X18388Y-10950D01*
X18353Y-10951D01*
X18254Y-10951D01*
X18163Y-10989D01*
X18093Y-11059D01*
X18055Y-11151D01*
X18054Y-11304D01*
X18116Y-11366D01*
X18450Y-11366D01*
X18450Y-11466D01*
X18400Y-11466D01*
X18116Y-11466D01*
X18054Y-11528D01*
X18055Y-11681D01*
X18083Y-11749D01*
X18055Y-11818D01*
X18055Y-11917D01*
X18055Y-12349D01*
X18093Y-12441D01*
X18150Y-12498D01*
X18150Y-12574D01*
X18035Y-12689D01*
X18000Y-12773D01*
X17965Y-12689D01*
X17850Y-12574D01*
X17850Y-12498D01*
X17907Y-12441D01*
X17945Y-12350D01*
X17945Y-12251D01*
X17945Y-11819D01*
X17916Y-11750D01*
X17945Y-11681D01*
X17946Y-11528D01*
X17946Y-11304D01*
X17945Y-11151D01*
X17907Y-11059D01*
X17837Y-10989D01*
X17746Y-10951D01*
X17647Y-10951D01*
X17612Y-10950D01*
X17550Y-11012D01*
X17550Y-11366D01*
X17884Y-11366D01*
X17946Y-11304D01*
X17946Y-11528D01*
X17884Y-11466D01*
X17600Y-11466D01*
X17550Y-11466D01*
X17450Y-11466D01*
X17450Y-11366D01*
X17450Y-11012D01*
X17388Y-10950D01*
X17353Y-10951D01*
X17254Y-10951D01*
X17163Y-10989D01*
X17093Y-11059D01*
X17055Y-11151D01*
X17054Y-11304D01*
X17116Y-11366D01*
X17450Y-11366D01*
X17450Y-11466D01*
X17400Y-11466D01*
X17116Y-11466D01*
X17054Y-11528D01*
X17055Y-11681D01*
X17083Y-11749D01*
X17055Y-11818D01*
X17055Y-11917D01*
X17055Y-12349D01*
X17093Y-12441D01*
X17150Y-12498D01*
X17150Y-12574D01*
X17035Y-12689D01*
X17000Y-12773D01*
X16965Y-12689D01*
X16850Y-12574D01*
X16850Y-12498D01*
X16907Y-12441D01*
X16945Y-12350D01*
X16945Y-12251D01*
X16945Y-11819D01*
X16916Y-11750D01*
X16945Y-11681D01*
X16946Y-11528D01*
X16946Y-11304D01*
X16945Y-11151D01*
X16907Y-11059D01*
X16837Y-10989D01*
X16746Y-10951D01*
X16647Y-10951D01*
X16612Y-10950D01*
X16550Y-11012D01*
X16550Y-11366D01*
X16884Y-11366D01*
X16946Y-11304D01*
X16946Y-11528D01*
X16884Y-11466D01*
X16600Y-11466D01*
X16550Y-11466D01*
X16450Y-11466D01*
X16450Y-11366D01*
X16450Y-11012D01*
X16388Y-10950D01*
X16353Y-10951D01*
X16254Y-10951D01*
X16163Y-10989D01*
X16093Y-11059D01*
X16055Y-11151D01*
X16054Y-11304D01*
X16116Y-11366D01*
X16450Y-11366D01*
X16450Y-11466D01*
X16400Y-11466D01*
X16116Y-11466D01*
X16054Y-11528D01*
X16055Y-11681D01*
X16083Y-11749D01*
X16055Y-11818D01*
X16055Y-11917D01*
X16055Y-12349D01*
X16093Y-12441D01*
X16150Y-12498D01*
X16150Y-12574D01*
X16035Y-12689D01*
X15951Y-12891D01*
X15951Y-13109D01*
X15974Y-13165D01*
X15896Y-13087D01*
X15783Y-13011D01*
X15671Y-12988D01*
X15695Y-12932D01*
X15695Y-12833D01*
X15695Y-12401D01*
X15657Y-12309D01*
X15587Y-12239D01*
X15496Y-12201D01*
X15397Y-12201D01*
X15005Y-12201D01*
X14913Y-12239D01*
X14843Y-12309D01*
X14840Y-12316D01*
X13895Y-12316D01*
X13761Y-12343D01*
X13647Y-12419D01*
X12897Y-13169D01*
X12879Y-13162D01*
X12621Y-13162D01*
X12382Y-13261D01*
X12200Y-13443D01*
X12101Y-13682D01*
X12101Y-13940D01*
X12200Y-14179D01*
X12382Y-14361D01*
X12621Y-14460D01*
X12879Y-14460D01*
X13118Y-14361D01*
X13300Y-14179D01*
X13399Y-13940D01*
X13399Y-13682D01*
X13391Y-13663D01*
X14039Y-13016D01*
X14826Y-13016D01*
X14805Y-13068D01*
X14805Y-13167D01*
X14805Y-13599D01*
X14843Y-13691D01*
X14913Y-13761D01*
X15004Y-13799D01*
X15103Y-13799D01*
X15495Y-13799D01*
X15583Y-13762D01*
X15647Y-13826D01*
X15647Y-14000D01*
X15674Y-14134D01*
X15750Y-14247D01*
X15863Y-14323D01*
X15951Y-14340D01*
X15951Y-14349D01*
X15989Y-14441D01*
X16059Y-14511D01*
X16150Y-14549D01*
X16175Y-14549D01*
X16035Y-14689D01*
X15966Y-14853D01*
X15583Y-15237D01*
X15496Y-15201D01*
X15397Y-15201D01*
X15005Y-15201D01*
X14913Y-15239D01*
X14843Y-15309D01*
X14805Y-15400D01*
X14805Y-15499D01*
X14805Y-15931D01*
X14826Y-15984D01*
X14039Y-15984D01*
X13391Y-15336D01*
X13399Y-15318D01*
X13399Y-15060D01*
X13300Y-14821D01*
X13118Y-14639D01*
X12879Y-14540D01*
X12621Y-14540D01*
X12382Y-14639D01*
X12200Y-14821D01*
X12101Y-15060D01*
X12101Y-15318D01*
X12200Y-15557D01*
X12382Y-15739D01*
X12621Y-15838D01*
X12879Y-15838D01*
X12897Y-15830D01*
X13647Y-16581D01*
X13648Y-16581D01*
X13761Y-16657D01*
X13895Y-16684D01*
X14840Y-16684D01*
X14843Y-16691D01*
X14913Y-16761D01*
X15004Y-16799D01*
X15103Y-16799D01*
X15495Y-16799D01*
X15587Y-16761D01*
X15657Y-16691D01*
X15695Y-16600D01*
X15695Y-16501D01*
X15695Y-16069D01*
X15671Y-16011D01*
X15783Y-15989D01*
X15896Y-15913D01*
X15951Y-15858D01*
X15951Y-16349D01*
X15989Y-16441D01*
X16059Y-16511D01*
X16116Y-16535D01*
X16093Y-16559D01*
X16055Y-16650D01*
X16055Y-16749D01*
X16055Y-17181D01*
X16083Y-17250D01*
X16055Y-17319D01*
X16054Y-17472D01*
X16116Y-17534D01*
X16400Y-17534D01*
X16450Y-17534D01*
X16550Y-17534D01*
X16600Y-17534D01*
X16884Y-17534D01*
X16946Y-17472D01*
X16945Y-17319D01*
X16916Y-17250D01*
X16945Y-17182D01*
X16945Y-17083D01*
X16945Y-16651D01*
X16907Y-16559D01*
X16882Y-16534D01*
X16941Y-16511D01*
X17011Y-16441D01*
X17049Y-16350D01*
X17049Y-16325D01*
X17150Y-16426D01*
X17150Y-16502D01*
X17093Y-16559D01*
X17055Y-16650D01*
X17055Y-16749D01*
X17055Y-17181D01*
X17083Y-17250D01*
X17055Y-17319D01*
X17054Y-17472D01*
X17116Y-17534D01*
X17400Y-17534D01*
X17450Y-17534D01*
X17550Y-17534D01*
X17600Y-17534D01*
X17884Y-17534D01*
X17946Y-17472D01*
X17945Y-17319D01*
X17916Y-17250D01*
X17945Y-17182D01*
X17945Y-17083D01*
X17945Y-16651D01*
X17907Y-16559D01*
X17850Y-16502D01*
X17850Y-16426D01*
X17965Y-16311D01*
X18000Y-16226D01*
X18035Y-16311D01*
X18150Y-16426D01*
X18150Y-16502D01*
X18093Y-16559D01*
X18055Y-16650D01*
X18055Y-16749D01*
X18055Y-17181D01*
X18083Y-17250D01*
X18055Y-17319D01*
X18054Y-17472D01*
X18116Y-17534D01*
X18400Y-17534D01*
X18450Y-17534D01*
X18550Y-17534D01*
X18600Y-17534D01*
X18884Y-17534D01*
X18946Y-17472D01*
X18945Y-17319D01*
X18916Y-17250D01*
X18945Y-17182D01*
X18945Y-17083D01*
X18945Y-16651D01*
X18907Y-16559D01*
X18850Y-16502D01*
X18850Y-16426D01*
X18965Y-16311D01*
X19000Y-16226D01*
X19035Y-16311D01*
X19189Y-16465D01*
X19391Y-16549D01*
X19609Y-16549D01*
X19811Y-16465D01*
X19965Y-16311D01*
X20049Y-16109D01*
X20049Y-15891D01*
X19965Y-15689D01*
X19811Y-15535D01*
X19726Y-15500D01*
X19794Y-15472D01*
X22150Y-15472D01*
X22150Y-15550D01*
X22151Y-15554D01*
X22151Y-15824D01*
X22189Y-15916D01*
X22259Y-15986D01*
X22350Y-16024D01*
X22449Y-16024D01*
X22649Y-16024D01*
X22658Y-16020D01*
X22677Y-16112D01*
X22753Y-16225D01*
X23055Y-16528D01*
X23056Y-16528D01*
X23169Y-16604D01*
X23303Y-16631D01*
X25403Y-16631D01*
X25403Y-16630D01*
X25537Y-16604D01*
X25650Y-16528D01*
X26166Y-16012D01*
X26254Y-16049D01*
X26353Y-16049D01*
X26745Y-16049D01*
X26837Y-16011D01*
X26907Y-15941D01*
X26909Y-15934D01*
X27090Y-15934D01*
X27093Y-15941D01*
X27163Y-16011D01*
X27254Y-16049D01*
X27353Y-16049D01*
X27745Y-16049D01*
X27837Y-16011D01*
X27907Y-15941D01*
X27909Y-15934D01*
X28090Y-15934D01*
X28093Y-15941D01*
X28163Y-16011D01*
X28254Y-16049D01*
X28353Y-16049D01*
X28745Y-16049D01*
X28837Y-16011D01*
X28907Y-15941D01*
X28909Y-15934D01*
X29090Y-15934D01*
X29093Y-15941D01*
X29163Y-16011D01*
X29254Y-16049D01*
X29353Y-16049D01*
X29745Y-16049D01*
X29837Y-16011D01*
X29907Y-15941D01*
X29909Y-15934D01*
X30090Y-15934D01*
X30093Y-15941D01*
X30163Y-16011D01*
X30254Y-16049D01*
X30353Y-16049D01*
X30745Y-16049D01*
X30837Y-16011D01*
X30907Y-15941D01*
X30909Y-15934D01*
X31090Y-15934D01*
X31093Y-15941D01*
X31163Y-16011D01*
X31254Y-16049D01*
X31353Y-16049D01*
X31745Y-16049D01*
X31837Y-16011D01*
X31907Y-15941D01*
X31909Y-15934D01*
X32443Y-15934D01*
X32443Y-15933D01*
X32577Y-15907D01*
X32690Y-15831D01*
X32746Y-15776D01*
X32746Y-15775D01*
X32822Y-15662D01*
X32848Y-15528D01*
X32849Y-15528D01*
X32849Y-14427D01*
X32965Y-14311D01*
X33049Y-14109D01*
X33049Y-13891D01*
X32965Y-13689D01*
X32825Y-13549D01*
X32849Y-13549D01*
X32941Y-13511D01*
X33011Y-13441D01*
X33049Y-13350D01*
X33049Y-13251D01*
X33049Y-12651D01*
X33011Y-12559D01*
X32941Y-12489D01*
X32938Y-12488D01*
X33744Y-12488D01*
X34948Y-13691D01*
X34948Y-18320D01*
X34975Y-18454D01*
X35051Y-18567D01*
X36900Y-20416D01*
X36900Y-20700D01*
X36900Y-21007D01*
X36900Y-21008D01*
X36837Y-21071D01*
X36772Y-21227D01*
X36772Y-21396D01*
X36774Y-21403D01*
X36702Y-21418D01*
X36588Y-21494D01*
X36212Y-21870D01*
X36113Y-21771D01*
X35957Y-21706D01*
X35924Y-21706D01*
X36009Y-21502D01*
X36010Y-21001D01*
X35819Y-20538D01*
X35465Y-20183D01*
X35002Y-19991D01*
X34501Y-19990D01*
X34038Y-20181D01*
X33683Y-20535D01*
X33491Y-20998D01*
X33490Y-21499D01*
X33681Y-21962D01*
X34035Y-22317D01*
X34498Y-22509D01*
X34998Y-22509D01*
X31273Y-26235D01*
X24921Y-26235D01*
X26747Y-24410D01*
X26747Y-24409D01*
X26823Y-24296D01*
X26849Y-24163D01*
X26850Y-24162D01*
X26850Y-23498D01*
X26907Y-23441D01*
X26909Y-23434D01*
X27090Y-23434D01*
X27093Y-23441D01*
X27163Y-23511D01*
X27254Y-23549D01*
X27353Y-23549D01*
X27745Y-23549D01*
X27837Y-23511D01*
X27907Y-23441D01*
X27909Y-23434D01*
X28090Y-23434D01*
X28093Y-23441D01*
X28163Y-23511D01*
X28254Y-23549D01*
X28353Y-23549D01*
X28745Y-23549D01*
X28837Y-23511D01*
X28907Y-23441D01*
X28909Y-23434D01*
X29090Y-23434D01*
X29093Y-23441D01*
X29163Y-23511D01*
X29254Y-23549D01*
X29353Y-23549D01*
X29745Y-23549D01*
X29837Y-23511D01*
X29907Y-23441D01*
X29909Y-23434D01*
X30090Y-23434D01*
X30093Y-23441D01*
X30163Y-23511D01*
X30254Y-23549D01*
X30353Y-23549D01*
X30745Y-23549D01*
X30837Y-23511D01*
X30907Y-23441D01*
X30909Y-23434D01*
X31090Y-23434D01*
X31093Y-23441D01*
X31163Y-23511D01*
X31254Y-23549D01*
X31353Y-23549D01*
X31745Y-23549D01*
X31837Y-23511D01*
X31907Y-23441D01*
X31909Y-23434D01*
X32004Y-23434D01*
X32004Y-23433D01*
X32138Y-23407D01*
X32251Y-23331D01*
X32747Y-22836D01*
X32747Y-22835D01*
X32823Y-22722D01*
X32849Y-22588D01*
X32850Y-22588D01*
X32850Y-21926D01*
X32965Y-21811D01*
X33049Y-21609D01*
X33049Y-21391D01*
X32965Y-21189D01*
X32825Y-21049D01*
X32849Y-21049D01*
X32941Y-21011D01*
X33011Y-20941D01*
X33049Y-20850D01*
X33049Y-20751D01*
X33049Y-20151D01*
X33011Y-20059D01*
X32941Y-19989D01*
X32850Y-19951D01*
X32751Y-19951D01*
X32151Y-19951D01*
X32059Y-19989D01*
X31989Y-20059D01*
X31951Y-20150D01*
X31926Y-20150D01*
X31811Y-20035D01*
X31609Y-19951D01*
X31391Y-19951D01*
X31189Y-20035D01*
X31074Y-20150D01*
X30926Y-20150D01*
X30811Y-20035D01*
X30609Y-19951D01*
X30391Y-19951D01*
X30189Y-20035D01*
X30074Y-20150D01*
X29926Y-20150D01*
X29811Y-20035D01*
X29609Y-19951D01*
X29391Y-19951D01*
X29189Y-20035D01*
X29074Y-20150D01*
X28926Y-20150D01*
X28811Y-20035D01*
X28609Y-19951D01*
X28391Y-19951D01*
X28189Y-20035D01*
X28074Y-20150D01*
X27926Y-20150D01*
X27811Y-20035D01*
X27609Y-19951D01*
X27391Y-19951D01*
X27189Y-20035D01*
X27074Y-20150D01*
X26926Y-20150D01*
X26811Y-20035D01*
X26609Y-19951D01*
X26445Y-19951D01*
X26191Y-19697D01*
X26078Y-19621D01*
X25944Y-19594D01*
X25053Y-19594D01*
X24919Y-19621D01*
X24805Y-19697D01*
X24448Y-20055D01*
X24372Y-20168D01*
X24345Y-20302D01*
X24345Y-22297D01*
X24300Y-22253D01*
X24187Y-22177D01*
X24053Y-22150D01*
X23131Y-22150D01*
X23317Y-21965D01*
X23509Y-21502D01*
X23510Y-21001D01*
X23319Y-20538D01*
X22965Y-20183D01*
X22502Y-19991D01*
X22001Y-19990D01*
X21538Y-20181D01*
X21183Y-20535D01*
X20991Y-20998D01*
X20990Y-21499D01*
X21181Y-21962D01*
X21368Y-22150D01*
X19926Y-22150D01*
X19811Y-22035D01*
X19726Y-22000D01*
X19811Y-21965D01*
X19965Y-21811D01*
X20049Y-21609D01*
X20049Y-21391D01*
X19965Y-21189D01*
X19811Y-21035D01*
X19726Y-21000D01*
X19811Y-20965D01*
X19965Y-20811D01*
X20049Y-20609D01*
X20049Y-20391D01*
X19965Y-20189D01*
X19811Y-20035D01*
X19609Y-19951D01*
X19391Y-19951D01*
X19189Y-20035D01*
X19035Y-20189D01*
X19000Y-20273D01*
X18965Y-20189D01*
X18850Y-20074D01*
X18850Y-19998D01*
X18907Y-19941D01*
X18945Y-19850D01*
X18945Y-19751D01*
X18945Y-19319D01*
X18916Y-19250D01*
X18945Y-19181D01*
X18946Y-19028D01*
X18946Y-18804D01*
X18946Y-17696D01*
X18884Y-17634D01*
X18550Y-17634D01*
X18550Y-17988D01*
X18612Y-18050D01*
X18647Y-18049D01*
X18746Y-18049D01*
X18837Y-18011D01*
X18907Y-17941D01*
X18945Y-17849D01*
X18946Y-17696D01*
X18946Y-18804D01*
X18945Y-18651D01*
X18907Y-18559D01*
X18837Y-18489D01*
X18746Y-18451D01*
X18647Y-18451D01*
X18612Y-18450D01*
X18550Y-18512D01*
X18550Y-18866D01*
X18884Y-18866D01*
X18946Y-18804D01*
X18946Y-19028D01*
X18884Y-18966D01*
X18600Y-18966D01*
X18550Y-18966D01*
X18450Y-18966D01*
X18450Y-18866D01*
X18450Y-18512D01*
X18450Y-17988D01*
X18450Y-17634D01*
X18116Y-17634D01*
X18054Y-17696D01*
X18055Y-17849D01*
X18093Y-17941D01*
X18163Y-18011D01*
X18254Y-18049D01*
X18353Y-18049D01*
X18388Y-18050D01*
X18450Y-17988D01*
X18450Y-18512D01*
X18388Y-18450D01*
X18353Y-18451D01*
X18254Y-18451D01*
X18163Y-18489D01*
X18093Y-18559D01*
X18055Y-18651D01*
X18054Y-18804D01*
X18116Y-18866D01*
X18450Y-18866D01*
X18450Y-18966D01*
X18400Y-18966D01*
X18116Y-18966D01*
X18054Y-19028D01*
X18055Y-19181D01*
X18083Y-19249D01*
X18055Y-19318D01*
X18055Y-19417D01*
X18055Y-19849D01*
X18093Y-19941D01*
X18150Y-19998D01*
X18150Y-20074D01*
X18035Y-20189D01*
X18000Y-20273D01*
X17965Y-20189D01*
X17850Y-20074D01*
X17850Y-19998D01*
X17907Y-19941D01*
X17945Y-19850D01*
X17945Y-19751D01*
X17945Y-19319D01*
X17916Y-19250D01*
X17945Y-19181D01*
X17946Y-19028D01*
X17946Y-18804D01*
X17946Y-17696D01*
X17884Y-17634D01*
X17550Y-17634D01*
X17550Y-17988D01*
X17612Y-18050D01*
X17647Y-18049D01*
X17746Y-18049D01*
X17837Y-18011D01*
X17907Y-17941D01*
X17945Y-17849D01*
X17946Y-17696D01*
X17946Y-18804D01*
X17945Y-18651D01*
X17907Y-18559D01*
X17837Y-18489D01*
X17746Y-18451D01*
X17647Y-18451D01*
X17612Y-18450D01*
X17550Y-18512D01*
X17550Y-18866D01*
X17884Y-18866D01*
X17946Y-18804D01*
X17946Y-19028D01*
X17884Y-18966D01*
X17600Y-18966D01*
X17550Y-18966D01*
X17450Y-18966D01*
X17450Y-18866D01*
X17450Y-18512D01*
X17450Y-17988D01*
X17450Y-17634D01*
X17116Y-17634D01*
X17054Y-17696D01*
X17055Y-17849D01*
X17093Y-17941D01*
X17163Y-18011D01*
X17254Y-18049D01*
X17353Y-18049D01*
X17388Y-18050D01*
X17450Y-17988D01*
X17450Y-18512D01*
X17388Y-18450D01*
X17353Y-18451D01*
X17254Y-18451D01*
X17163Y-18489D01*
X17093Y-18559D01*
X17055Y-18651D01*
X17054Y-18804D01*
X17116Y-18866D01*
X17450Y-18866D01*
X17450Y-18966D01*
X17400Y-18966D01*
X17116Y-18966D01*
X17054Y-19028D01*
X17055Y-19181D01*
X17083Y-19249D01*
X17055Y-19318D01*
X17055Y-19417D01*
X17055Y-19849D01*
X17093Y-19941D01*
X17150Y-19998D01*
X17150Y-20074D01*
X17035Y-20189D01*
X17000Y-20273D01*
X16965Y-20189D01*
X16850Y-20074D01*
X16850Y-19998D01*
X16907Y-19941D01*
X16945Y-19850D01*
X16945Y-19751D01*
X16945Y-19319D01*
X16916Y-19250D01*
X16945Y-19181D01*
X16946Y-19028D01*
X16946Y-18804D01*
X16946Y-17696D01*
X16884Y-17634D01*
X16550Y-17634D01*
X16550Y-17988D01*
X16612Y-18050D01*
X16647Y-18049D01*
X16746Y-18049D01*
X16837Y-18011D01*
X16907Y-17941D01*
X16945Y-17849D01*
X16946Y-17696D01*
X16946Y-18804D01*
X16945Y-18651D01*
X16907Y-18559D01*
X16837Y-18489D01*
X16746Y-18451D01*
X16647Y-18451D01*
X16612Y-18450D01*
X16550Y-18512D01*
X16550Y-18866D01*
X16884Y-18866D01*
X16946Y-18804D01*
X16946Y-19028D01*
X16884Y-18966D01*
X16600Y-18966D01*
X16550Y-18966D01*
X16450Y-18966D01*
X16450Y-18866D01*
X16450Y-18512D01*
X16450Y-17988D01*
X16450Y-17634D01*
X16116Y-17634D01*
X16054Y-17696D01*
X16055Y-17849D01*
X16093Y-17941D01*
X16163Y-18011D01*
X16254Y-18049D01*
X16353Y-18049D01*
X16388Y-18050D01*
X16450Y-17988D01*
X16450Y-18512D01*
X16388Y-18450D01*
X16353Y-18451D01*
X16254Y-18451D01*
X16163Y-18489D01*
X16093Y-18559D01*
X16055Y-18651D01*
X16054Y-18804D01*
X16116Y-18866D01*
X16450Y-18866D01*
X16450Y-18966D01*
X16400Y-18966D01*
X16116Y-18966D01*
X16054Y-19028D01*
X16055Y-19181D01*
X16083Y-19249D01*
X16055Y-19318D01*
X16055Y-19417D01*
X16055Y-19849D01*
X16093Y-19941D01*
X16150Y-19998D01*
X16150Y-20074D01*
X16035Y-20189D01*
X15951Y-20391D01*
X15951Y-20609D01*
X15974Y-20665D01*
X15896Y-20587D01*
X15783Y-20511D01*
X15671Y-20488D01*
X15695Y-20432D01*
X15695Y-20333D01*
X15695Y-19901D01*
X15657Y-19809D01*
X15587Y-19739D01*
X15496Y-19701D01*
X15397Y-19701D01*
X15005Y-19701D01*
X14913Y-19739D01*
X14843Y-19809D01*
X14840Y-19816D01*
X13895Y-19816D01*
X13761Y-19843D01*
X13647Y-19919D01*
X12897Y-20669D01*
X12879Y-20662D01*
X12621Y-20662D01*
X12382Y-20761D01*
X12200Y-20943D01*
X12101Y-21182D01*
X12101Y-21440D01*
X12200Y-21679D01*
X12382Y-21861D01*
X12621Y-21960D01*
X12879Y-21960D01*
X13118Y-21861D01*
X13300Y-21679D01*
X13399Y-21440D01*
X13399Y-21182D01*
X13391Y-21163D01*
X14039Y-20516D01*
X14826Y-20516D01*
X14805Y-20568D01*
X14805Y-20667D01*
X14805Y-21099D01*
X14843Y-21191D01*
X14913Y-21261D01*
X15004Y-21299D01*
X15103Y-21299D01*
X15495Y-21299D01*
X15583Y-21262D01*
X15647Y-21326D01*
X15647Y-21500D01*
X15674Y-21634D01*
X15750Y-21747D01*
X15863Y-21823D01*
X15951Y-21840D01*
X15951Y-21849D01*
X15989Y-21941D01*
X16059Y-22011D01*
X16150Y-22049D01*
X16175Y-22049D01*
X16035Y-22189D01*
X15966Y-22353D01*
X15583Y-22737D01*
X15496Y-22701D01*
X15397Y-22701D01*
X15005Y-22701D01*
X14913Y-22739D01*
X14843Y-22809D01*
X14805Y-22900D01*
X14805Y-22999D01*
X14805Y-23431D01*
X14826Y-23484D01*
X14039Y-23484D01*
X13391Y-22836D01*
X13399Y-22818D01*
X13399Y-22560D01*
X13300Y-22321D01*
X13118Y-22139D01*
X12879Y-22040D01*
X12621Y-22040D01*
X12382Y-22139D01*
X12200Y-22321D01*
X12101Y-22560D01*
X12101Y-22818D01*
X12200Y-23057D01*
X12382Y-23239D01*
X12621Y-23338D01*
X12879Y-23338D01*
X12897Y-23330D01*
X13647Y-24081D01*
X13648Y-24081D01*
X13761Y-24157D01*
X13895Y-24184D01*
X14840Y-24184D01*
X14843Y-24191D01*
X14913Y-24261D01*
X15004Y-24299D01*
X15103Y-24299D01*
X15495Y-24299D01*
X15587Y-24261D01*
X15657Y-24191D01*
X15695Y-24100D01*
X15695Y-24001D01*
X15695Y-23569D01*
X15671Y-23511D01*
X15783Y-23489D01*
X15896Y-23413D01*
X15951Y-23358D01*
X15951Y-23849D01*
X15989Y-23941D01*
X16059Y-24011D01*
X16116Y-24035D01*
X16093Y-24059D01*
X16055Y-24150D01*
X16055Y-24249D01*
X16055Y-24681D01*
X16083Y-24750D01*
X16055Y-24819D01*
X16054Y-24972D01*
X16116Y-25034D01*
X16400Y-25034D01*
X16450Y-25034D01*
X16550Y-25034D01*
X16600Y-25034D01*
X16884Y-25034D01*
X16946Y-24972D01*
X16945Y-24819D01*
X16916Y-24750D01*
X16945Y-24682D01*
X16945Y-24583D01*
X16945Y-24151D01*
X16907Y-24059D01*
X16882Y-24034D01*
X16941Y-24011D01*
X17011Y-23941D01*
X17049Y-23850D01*
X17049Y-23825D01*
X17150Y-23926D01*
X17150Y-24002D01*
X17093Y-24059D01*
X17055Y-24150D01*
X17055Y-24249D01*
X17055Y-24681D01*
X17083Y-24750D01*
X17055Y-24819D01*
X17054Y-24972D01*
X17116Y-25034D01*
X17400Y-25034D01*
X17450Y-25034D01*
X17550Y-25034D01*
X17600Y-25034D01*
X17884Y-25034D01*
X17946Y-24972D01*
X17945Y-24819D01*
X17916Y-24750D01*
X17945Y-24682D01*
X17945Y-24583D01*
X17945Y-24151D01*
X17907Y-24059D01*
X17850Y-24002D01*
X17850Y-23926D01*
X17965Y-23811D01*
X18000Y-23726D01*
X18035Y-23811D01*
X18150Y-23926D01*
X18150Y-24002D01*
X18093Y-24059D01*
X18055Y-24150D01*
X18055Y-24249D01*
X18055Y-24681D01*
X18083Y-24750D01*
X18055Y-24819D01*
X18054Y-24972D01*
X18116Y-25034D01*
X18400Y-25034D01*
X18450Y-25034D01*
X18550Y-25034D01*
X18600Y-25034D01*
X18884Y-25034D01*
X18946Y-24972D01*
X18945Y-24819D01*
X18916Y-24750D01*
X18945Y-24682D01*
X18945Y-24583D01*
X18945Y-24151D01*
X18907Y-24059D01*
X18850Y-24002D01*
X18850Y-23926D01*
X18965Y-23811D01*
X19000Y-23726D01*
X19035Y-23811D01*
X19189Y-23965D01*
X19391Y-24049D01*
X19609Y-24049D01*
X19811Y-23965D01*
X19965Y-23811D01*
X20049Y-23609D01*
X20049Y-23391D01*
X19965Y-23189D01*
X19811Y-23035D01*
X19726Y-23000D01*
X19811Y-22965D01*
X19926Y-22850D01*
X23505Y-22850D01*
X23500Y-22862D01*
X23500Y-22975D01*
X23400Y-22975D01*
X23400Y-22987D01*
X23388Y-22975D01*
X23351Y-22976D01*
X23259Y-23014D01*
X23250Y-23023D01*
X23241Y-23014D01*
X23150Y-22976D01*
X23051Y-22976D01*
X22851Y-22976D01*
X22759Y-23014D01*
X22750Y-23023D01*
X22741Y-23014D01*
X22650Y-22976D01*
X22551Y-22976D01*
X22351Y-22976D01*
X22259Y-23014D01*
X22189Y-23084D01*
X22151Y-23175D01*
X22151Y-23274D01*
X22151Y-23445D01*
X22150Y-23450D01*
X22150Y-23733D01*
X21560Y-24324D01*
X21484Y-24437D01*
X21457Y-24571D01*
X21457Y-27890D01*
X21484Y-28024D01*
X21520Y-28079D01*
X21506Y-28115D01*
X21506Y-28284D01*
X21570Y-28440D01*
X21690Y-28560D01*
X21846Y-28625D01*
X22015Y-28625D01*
X22171Y-28561D01*
X22182Y-28549D01*
X22189Y-28566D01*
X22259Y-28636D01*
X22350Y-28674D01*
X22449Y-28674D01*
X22649Y-28674D01*
X22741Y-28636D01*
X22750Y-28627D01*
X22759Y-28636D01*
X22850Y-28674D01*
X22949Y-28674D01*
X23149Y-28674D01*
X23241Y-28636D01*
X23250Y-28627D01*
X23259Y-28636D01*
X23351Y-28674D01*
X23388Y-28675D01*
X23450Y-28613D01*
X23450Y-28300D01*
X23450Y-28250D01*
X23450Y-28150D01*
X23550Y-28150D01*
X23550Y-28250D01*
X23550Y-28300D01*
X23550Y-28613D01*
X23612Y-28675D01*
X23649Y-28674D01*
X23741Y-28636D01*
X23750Y-28627D01*
X23759Y-28636D01*
X23850Y-28674D01*
X23949Y-28674D01*
X24149Y-28674D01*
X24241Y-28636D01*
X24311Y-28566D01*
X24349Y-28475D01*
X24349Y-28376D01*
X24349Y-28204D01*
X24350Y-28200D01*
X24350Y-27772D01*
X24350Y-27766D01*
X24350Y-27756D01*
X24350Y-27750D01*
X24646Y-27454D01*
X24646Y-29838D01*
X24350Y-30134D01*
X24350Y-29625D01*
X24323Y-29491D01*
X24247Y-29378D01*
X24247Y-29377D01*
X24190Y-29321D01*
X24077Y-29245D01*
X23943Y-29218D01*
X20462Y-29218D01*
X20049Y-28804D01*
X20049Y-28641D01*
X19965Y-28439D01*
X19811Y-28285D01*
X19726Y-28250D01*
X19811Y-28215D01*
X19965Y-28061D01*
X20049Y-27859D01*
X20049Y-27641D01*
X19965Y-27439D01*
X19811Y-27285D01*
X19609Y-27201D01*
X19391Y-27201D01*
X19189Y-27285D01*
X19035Y-27439D01*
X19000Y-27523D01*
X18965Y-27439D01*
X18850Y-27324D01*
X18850Y-27248D01*
X18907Y-27191D01*
X18945Y-27100D01*
X18945Y-27001D01*
X18945Y-26569D01*
X18916Y-26500D01*
X18945Y-26431D01*
X18946Y-26278D01*
X18946Y-26054D01*
X18946Y-25196D01*
X18884Y-25134D01*
X18550Y-25134D01*
X18550Y-25488D01*
X18612Y-25550D01*
X18647Y-25549D01*
X18746Y-25549D01*
X18837Y-25511D01*
X18907Y-25441D01*
X18945Y-25349D01*
X18946Y-25196D01*
X18946Y-26054D01*
X18945Y-25901D01*
X18907Y-25809D01*
X18837Y-25739D01*
X18746Y-25701D01*
X18647Y-25701D01*
X18612Y-25700D01*
X18550Y-25762D01*
X18550Y-26116D01*
X18884Y-26116D01*
X18946Y-26054D01*
X18946Y-26278D01*
X18884Y-26216D01*
X18600Y-26216D01*
X18550Y-26216D01*
X18450Y-26216D01*
X18450Y-26116D01*
X18450Y-25762D01*
X18450Y-25488D01*
X18450Y-25134D01*
X18116Y-25134D01*
X18054Y-25196D01*
X18055Y-25349D01*
X18093Y-25441D01*
X18163Y-25511D01*
X18254Y-25549D01*
X18353Y-25549D01*
X18388Y-25550D01*
X18450Y-25488D01*
X18450Y-25762D01*
X18388Y-25700D01*
X18353Y-25701D01*
X18254Y-25701D01*
X18163Y-25739D01*
X18093Y-25809D01*
X18055Y-25901D01*
X18054Y-26054D01*
X18116Y-26116D01*
X18450Y-26116D01*
X18450Y-26216D01*
X18400Y-26216D01*
X18116Y-26216D01*
X18054Y-26278D01*
X18055Y-26431D01*
X18083Y-26499D01*
X18055Y-26568D01*
X18055Y-26667D01*
X18055Y-27099D01*
X18093Y-27191D01*
X18150Y-27248D01*
X18150Y-27324D01*
X18035Y-27439D01*
X18000Y-27523D01*
X17965Y-27439D01*
X17850Y-27324D01*
X17850Y-27248D01*
X17907Y-27191D01*
X17945Y-27100D01*
X17945Y-27001D01*
X17945Y-26569D01*
X17916Y-26500D01*
X17945Y-26431D01*
X17946Y-26278D01*
X17946Y-26054D01*
X17946Y-25196D01*
X17884Y-25134D01*
X17550Y-25134D01*
X17550Y-25488D01*
X17612Y-25550D01*
X17647Y-25549D01*
X17746Y-25549D01*
X17837Y-25511D01*
X17907Y-25441D01*
X17945Y-25349D01*
X17946Y-25196D01*
X17946Y-26054D01*
X17945Y-25901D01*
X17907Y-25809D01*
X17837Y-25739D01*
X17746Y-25701D01*
X17647Y-25701D01*
X17612Y-25700D01*
X17550Y-25762D01*
X17550Y-26116D01*
X17884Y-26116D01*
X17946Y-26054D01*
X17946Y-26278D01*
X17884Y-26216D01*
X17600Y-26216D01*
X17550Y-26216D01*
X17450Y-26216D01*
X17450Y-26116D01*
X17450Y-25762D01*
X17450Y-25488D01*
X17450Y-25134D01*
X17116Y-25134D01*
X17054Y-25196D01*
X17055Y-25349D01*
X17093Y-25441D01*
X17163Y-25511D01*
X17254Y-25549D01*
X17353Y-25549D01*
X17388Y-25550D01*
X17450Y-25488D01*
X17450Y-25762D01*
X17388Y-25700D01*
X17353Y-25701D01*
X17254Y-25701D01*
X17163Y-25739D01*
X17093Y-25809D01*
X17055Y-25901D01*
X17054Y-26054D01*
X17116Y-26116D01*
X17450Y-26116D01*
X17450Y-26216D01*
X17400Y-26216D01*
X17116Y-26216D01*
X17054Y-26278D01*
X17055Y-26431D01*
X17083Y-26499D01*
X17055Y-26568D01*
X17055Y-26667D01*
X17055Y-27099D01*
X17093Y-27191D01*
X17150Y-27248D01*
X17150Y-27324D01*
X17035Y-27439D01*
X17000Y-27523D01*
X16965Y-27439D01*
X16850Y-27324D01*
X16850Y-27248D01*
X16907Y-27191D01*
X16945Y-27100D01*
X16945Y-27001D01*
X16945Y-26569D01*
X16916Y-26500D01*
X16945Y-26431D01*
X16946Y-26278D01*
X16946Y-26054D01*
X16946Y-25196D01*
X16884Y-25134D01*
X16550Y-25134D01*
X16550Y-25488D01*
X16612Y-25550D01*
X16647Y-25549D01*
X16746Y-25549D01*
X16837Y-25511D01*
X16907Y-25441D01*
X16945Y-25349D01*
X16946Y-25196D01*
X16946Y-26054D01*
X16945Y-25901D01*
X16907Y-25809D01*
X16837Y-25739D01*
X16746Y-25701D01*
X16647Y-25701D01*
X16612Y-25700D01*
X16550Y-25762D01*
X16550Y-26116D01*
X16884Y-26116D01*
X16946Y-26054D01*
X16946Y-26278D01*
X16884Y-26216D01*
X16600Y-26216D01*
X16550Y-26216D01*
X16450Y-26216D01*
X16450Y-26116D01*
X16450Y-25762D01*
X16450Y-25488D01*
X16450Y-25134D01*
X16116Y-25134D01*
X16054Y-25196D01*
X16055Y-25349D01*
X16093Y-25441D01*
X16163Y-25511D01*
X16254Y-25549D01*
X16353Y-25549D01*
X16388Y-25550D01*
X16450Y-25488D01*
X16450Y-25762D01*
X16388Y-25700D01*
X16353Y-25701D01*
X16254Y-25701D01*
X16163Y-25739D01*
X16093Y-25809D01*
X16055Y-25901D01*
X16054Y-26054D01*
X16116Y-26116D01*
X16450Y-26116D01*
X16450Y-26216D01*
X16400Y-26216D01*
X16116Y-26216D01*
X16054Y-26278D01*
X16055Y-26431D01*
X16083Y-26499D01*
X16055Y-26568D01*
X16055Y-26667D01*
X16055Y-27099D01*
X16093Y-27191D01*
X16150Y-27248D01*
X16150Y-27324D01*
X16035Y-27439D01*
X15951Y-27641D01*
X15951Y-27859D01*
X16035Y-28061D01*
X16175Y-28201D01*
X16151Y-28201D01*
X16059Y-28239D01*
X16053Y-28244D01*
X15646Y-27837D01*
X15533Y-27761D01*
X15421Y-27738D01*
X15445Y-27682D01*
X15445Y-27583D01*
X15445Y-27151D01*
X15407Y-27059D01*
X15337Y-26989D01*
X15246Y-26951D01*
X15147Y-26951D01*
X14755Y-26951D01*
X14663Y-26989D01*
X14593Y-27059D01*
X14590Y-27066D01*
X13895Y-27066D01*
X13761Y-27093D01*
X13647Y-27169D01*
X12897Y-27919D01*
X12879Y-27912D01*
X12621Y-27912D01*
X12382Y-28011D01*
X12200Y-28193D01*
X12101Y-28432D01*
X12101Y-28690D01*
X12200Y-28929D01*
X12382Y-29111D01*
X12621Y-29210D01*
X12879Y-29210D01*
X13118Y-29111D01*
X13300Y-28929D01*
X13399Y-28690D01*
X13399Y-28432D01*
X13391Y-28413D01*
X14039Y-27766D01*
X14576Y-27766D01*
X14555Y-27818D01*
X14555Y-27917D01*
X14555Y-28349D01*
X14593Y-28441D01*
X14663Y-28511D01*
X14754Y-28549D01*
X14853Y-28549D01*
X15245Y-28549D01*
X15333Y-28512D01*
X15666Y-28846D01*
X15674Y-28884D01*
X15750Y-28997D01*
X15863Y-29073D01*
X15951Y-29090D01*
X15951Y-29099D01*
X15989Y-29191D01*
X16059Y-29261D01*
X16150Y-29299D01*
X16175Y-29299D01*
X16074Y-29400D01*
X16065Y-29400D01*
X15931Y-29427D01*
X15817Y-29503D01*
X15333Y-29987D01*
X15246Y-29951D01*
X15147Y-29951D01*
X14755Y-29951D01*
X14663Y-29989D01*
X14593Y-30059D01*
X14555Y-30150D01*
X14555Y-30249D01*
X14555Y-30681D01*
X14576Y-30734D01*
X14039Y-30734D01*
X13391Y-30086D01*
X13399Y-30068D01*
X13399Y-29810D01*
X13300Y-29571D01*
X13118Y-29389D01*
X12879Y-29290D01*
X12621Y-29290D01*
X12382Y-29389D01*
X12200Y-29571D01*
X12101Y-29810D01*
X12101Y-30068D01*
X12200Y-30307D01*
X12382Y-30489D01*
X12621Y-30588D01*
X12879Y-30588D01*
X12897Y-30580D01*
X13647Y-31331D01*
X13648Y-31331D01*
X13761Y-31407D01*
X13895Y-31434D01*
X14590Y-31434D01*
X14593Y-31441D01*
X14663Y-31511D01*
X14754Y-31549D01*
X14853Y-31549D01*
X15245Y-31549D01*
X15337Y-31511D01*
X15407Y-31441D01*
X15445Y-31350D01*
X15445Y-31251D01*
X15445Y-30819D01*
X15421Y-30761D01*
X15533Y-30739D01*
X15646Y-30663D01*
X15980Y-30328D01*
X15951Y-30400D01*
X15951Y-30499D01*
X15951Y-31099D01*
X15989Y-31191D01*
X16059Y-31261D01*
X16116Y-31285D01*
X16093Y-31309D01*
X16055Y-31400D01*
X16055Y-31499D01*
X16055Y-31931D01*
X16083Y-32000D01*
X16055Y-32069D01*
X16054Y-32222D01*
X16116Y-32284D01*
X16400Y-32284D01*
X16450Y-32284D01*
X16550Y-32284D01*
X16600Y-32284D01*
X16884Y-32284D01*
X16946Y-32222D01*
X16945Y-32069D01*
X16916Y-32000D01*
X16945Y-31932D01*
X16945Y-31833D01*
X16945Y-31401D01*
X16907Y-31309D01*
X16882Y-31284D01*
X16941Y-31261D01*
X17011Y-31191D01*
X17049Y-31100D01*
X17049Y-31075D01*
X17150Y-31176D01*
X17150Y-31252D01*
X17093Y-31309D01*
X17055Y-31400D01*
X17055Y-31499D01*
X17055Y-31931D01*
X17083Y-32000D01*
X17055Y-32069D01*
X17054Y-32222D01*
X17116Y-32284D01*
X17400Y-32284D01*
X17450Y-32284D01*
X17550Y-32284D01*
X17600Y-32284D01*
X17884Y-32284D01*
X17946Y-32222D01*
X17945Y-32069D01*
X17916Y-32000D01*
X17945Y-31932D01*
X17945Y-31833D01*
X17945Y-31401D01*
X17907Y-31309D01*
X17850Y-31252D01*
X17850Y-31176D01*
X17965Y-31061D01*
X18000Y-30976D01*
X18035Y-31061D01*
X18150Y-31176D01*
X18150Y-31252D01*
X18093Y-31309D01*
X18055Y-31400D01*
X18055Y-31499D01*
X18055Y-31931D01*
X18083Y-32000D01*
X18055Y-32069D01*
X18054Y-32222D01*
X18116Y-32284D01*
X18400Y-32284D01*
X18450Y-32284D01*
X18550Y-32284D01*
X18600Y-32284D01*
X18884Y-32284D01*
X18946Y-32222D01*
X18945Y-32069D01*
X18916Y-32000D01*
X18945Y-31932D01*
X18945Y-31833D01*
X18945Y-31401D01*
X18907Y-31309D01*
X18850Y-31252D01*
X18850Y-31176D01*
X18965Y-31061D01*
X19000Y-30976D01*
X19035Y-31061D01*
X19189Y-31215D01*
X19391Y-31299D01*
X19609Y-31299D01*
X19811Y-31215D01*
X19965Y-31061D01*
X20049Y-30859D01*
X20049Y-30641D01*
X19965Y-30439D01*
X19811Y-30285D01*
X19726Y-30250D01*
X19794Y-30222D01*
X22150Y-30222D01*
X22150Y-30300D01*
X22151Y-30304D01*
X22151Y-30574D01*
X22189Y-30666D01*
X22259Y-30736D01*
X22350Y-30774D01*
X22449Y-30774D01*
X22649Y-30774D01*
X22658Y-30770D01*
X22677Y-30862D01*
X22753Y-30975D01*
X23055Y-31278D01*
X23056Y-31278D01*
X23145Y-31338D01*
X23016Y-31338D01*
X22860Y-31402D01*
X22740Y-31522D01*
X22675Y-31678D01*
X22675Y-31847D01*
X22739Y-32003D01*
X22859Y-32123D01*
X23015Y-32188D01*
X23184Y-32188D01*
X23340Y-32124D01*
X23351Y-32113D01*
X26057Y-32113D01*
X23510Y-34660D01*
X23510Y-33501D01*
X23319Y-33038D01*
X22965Y-32683D01*
X22502Y-32491D01*
X22001Y-32490D01*
X21538Y-32681D01*
X21183Y-33035D01*
X20991Y-33498D01*
X20990Y-33999D01*
X21181Y-34462D01*
X21535Y-34817D01*
X21998Y-35009D01*
X22499Y-35010D01*
X22962Y-34819D01*
X23317Y-34465D01*
X23509Y-34002D01*
X23510Y-33501D01*
X23510Y-34660D01*
X22753Y-35418D01*
X22701Y-35494D01*
X22634Y-35449D01*
X22500Y-35422D01*
X22269Y-35422D01*
X22259Y-35412D01*
X22103Y-35347D01*
X21934Y-35347D01*
X21778Y-35411D01*
X21658Y-35531D01*
X21593Y-35687D01*
X21593Y-35856D01*
X21657Y-36012D01*
X21777Y-36132D01*
X21933Y-36197D01*
X22102Y-36197D01*
X22150Y-36177D01*
X22150Y-36200D01*
X22151Y-36204D01*
X22151Y-36474D01*
X22189Y-36566D01*
X22259Y-36636D01*
X22350Y-36674D01*
X22449Y-36674D01*
X22649Y-36674D01*
X22741Y-36636D01*
X22750Y-36627D01*
X22759Y-36636D01*
X22850Y-36674D01*
X22949Y-36674D01*
X23149Y-36674D01*
X23241Y-36636D01*
X23250Y-36627D01*
X23259Y-36636D01*
X23351Y-36674D01*
X23388Y-36675D01*
X23450Y-36613D01*
X23450Y-36300D01*
X23450Y-36250D01*
X23450Y-36150D01*
X23550Y-36150D01*
X23550Y-36250D01*
X23550Y-36300D01*
X23550Y-36613D01*
X23612Y-36675D01*
X23649Y-36674D01*
X23741Y-36636D01*
X23750Y-36627D01*
X23759Y-36636D01*
X23850Y-36674D01*
X23949Y-36674D01*
X24149Y-36674D01*
X24241Y-36636D01*
X24311Y-36566D01*
X24349Y-36475D01*
X24349Y-36376D01*
X24349Y-36204D01*
X24350Y-36200D01*
X24350Y-35772D01*
X24323Y-35638D01*
X24247Y-35525D01*
X24247Y-35524D01*
X24143Y-35421D01*
X24030Y-35345D01*
X23896Y-35318D01*
X23841Y-35318D01*
X26482Y-32677D01*
X34047Y-32677D01*
X34038Y-32681D01*
X33683Y-33035D01*
X33491Y-33498D01*
X33490Y-33999D01*
X33681Y-34462D01*
X34035Y-34817D01*
X34498Y-35009D01*
X34999Y-35010D01*
X35141Y-34951D01*
X35103Y-34990D01*
X35027Y-35103D01*
X35000Y-35237D01*
X35000Y-36834D01*
X35027Y-36968D01*
X35103Y-37081D01*
X35216Y-37157D01*
X35339Y-37181D01*
X35343Y-37191D01*
X35413Y-37261D01*
X35504Y-37299D01*
X35603Y-37299D01*
X35995Y-37299D01*
X36087Y-37261D01*
X36157Y-37191D01*
X36159Y-37184D01*
X36817Y-37184D01*
X36900Y-37266D01*
X36900Y-37550D01*
X36901Y-37554D01*
X36901Y-37824D01*
X36939Y-37916D01*
X37009Y-37986D01*
X37100Y-38024D01*
X37199Y-38024D01*
X37399Y-38024D01*
X37491Y-37986D01*
X37500Y-37977D01*
X37509Y-37986D01*
X37600Y-38024D01*
X37699Y-38024D01*
X37899Y-38024D01*
X37991Y-37986D01*
X38000Y-37977D01*
X38009Y-37986D01*
X38101Y-38024D01*
X38138Y-38025D01*
X38200Y-37963D01*
X38200Y-37650D01*
X38200Y-37600D01*
X38200Y-37500D01*
X38300Y-37500D01*
X38300Y-37600D01*
X38300Y-37650D01*
X38300Y-37963D01*
X38362Y-38025D01*
X38399Y-38024D01*
X38400Y-38023D01*
X38400Y-42013D01*
X36525Y-43888D01*
X36524Y-43851D01*
X36486Y-43759D01*
X36477Y-43750D01*
X36486Y-43741D01*
X36524Y-43650D01*
X36524Y-43551D01*
X36524Y-43351D01*
X36486Y-43259D01*
X36477Y-43250D01*
X36486Y-43241D01*
X36524Y-43150D01*
X36524Y-43051D01*
X36524Y-42851D01*
X36520Y-42841D01*
X36612Y-42823D01*
X36725Y-42747D01*
X36801Y-42634D01*
X36828Y-42500D01*
X36828Y-40370D01*
X36827Y-40369D01*
X36801Y-40236D01*
X36725Y-40123D01*
X36725Y-40122D01*
X36317Y-39714D01*
X36317Y-39700D01*
X36253Y-39544D01*
X36133Y-39424D01*
X35977Y-39359D01*
X35808Y-39359D01*
X35652Y-39423D01*
X35641Y-39434D01*
X33049Y-39434D01*
X33049Y-36109D01*
X33049Y-35891D01*
X32965Y-35689D01*
X32825Y-35549D01*
X32849Y-35549D01*
X32941Y-35511D01*
X33011Y-35441D01*
X33049Y-35350D01*
X33049Y-35251D01*
X33049Y-34651D01*
X33011Y-34559D01*
X32941Y-34489D01*
X32850Y-34451D01*
X32751Y-34451D01*
X32151Y-34451D01*
X32059Y-34489D01*
X31989Y-34559D01*
X31951Y-34650D01*
X31926Y-34650D01*
X31811Y-34535D01*
X31609Y-34451D01*
X31391Y-34451D01*
X31189Y-34535D01*
X31074Y-34650D01*
X30926Y-34650D01*
X30811Y-34535D01*
X30609Y-34451D01*
X30391Y-34451D01*
X30189Y-34535D01*
X30074Y-34650D01*
X29926Y-34650D01*
X29811Y-34535D01*
X29609Y-34451D01*
X29391Y-34451D01*
X29189Y-34535D01*
X29074Y-34650D01*
X28926Y-34650D01*
X28811Y-34535D01*
X28609Y-34451D01*
X28391Y-34451D01*
X28189Y-34535D01*
X28074Y-34650D01*
X27926Y-34650D01*
X27811Y-34535D01*
X27609Y-34451D01*
X27391Y-34451D01*
X27189Y-34535D01*
X27074Y-34650D01*
X26926Y-34650D01*
X26811Y-34535D01*
X26609Y-34451D01*
X26391Y-34451D01*
X26189Y-34535D01*
X26035Y-34689D01*
X26000Y-34773D01*
X25965Y-34689D01*
X25811Y-34535D01*
X25609Y-34451D01*
X25391Y-34451D01*
X25189Y-34535D01*
X25035Y-34689D01*
X24951Y-34891D01*
X24951Y-35109D01*
X25035Y-35311D01*
X25189Y-35465D01*
X25273Y-35500D01*
X25189Y-35535D01*
X25035Y-35689D01*
X24951Y-35891D01*
X24951Y-36109D01*
X25035Y-36311D01*
X25189Y-36465D01*
X25391Y-36549D01*
X25609Y-36549D01*
X25811Y-36465D01*
X25965Y-36311D01*
X26000Y-36226D01*
X26035Y-36311D01*
X26150Y-36426D01*
X26150Y-36502D01*
X26093Y-36559D01*
X26055Y-36650D01*
X26055Y-36749D01*
X26055Y-37181D01*
X26083Y-37249D01*
X26055Y-37318D01*
X26055Y-37417D01*
X26055Y-37849D01*
X26093Y-37941D01*
X26163Y-38011D01*
X26254Y-38049D01*
X26353Y-38049D01*
X26745Y-38049D01*
X26837Y-38011D01*
X26907Y-37941D01*
X26909Y-37934D01*
X27090Y-37934D01*
X27093Y-37941D01*
X27163Y-38011D01*
X27254Y-38049D01*
X27353Y-38049D01*
X27745Y-38049D01*
X27837Y-38011D01*
X27907Y-37941D01*
X27909Y-37934D01*
X28090Y-37934D01*
X28093Y-37941D01*
X28163Y-38011D01*
X28254Y-38049D01*
X28353Y-38049D01*
X28745Y-38049D01*
X28837Y-38011D01*
X28907Y-37941D01*
X28909Y-37934D01*
X29090Y-37934D01*
X29093Y-37941D01*
X29163Y-38011D01*
X29254Y-38049D01*
X29353Y-38049D01*
X29745Y-38049D01*
X29837Y-38011D01*
X29907Y-37941D01*
X29909Y-37934D01*
X30090Y-37934D01*
X30093Y-37941D01*
X30163Y-38011D01*
X30254Y-38049D01*
X30353Y-38049D01*
X30745Y-38049D01*
X30837Y-38011D01*
X30907Y-37941D01*
X30909Y-37934D01*
X31090Y-37934D01*
X31093Y-37941D01*
X31163Y-38011D01*
X31254Y-38049D01*
X31353Y-38049D01*
X31745Y-38049D01*
X31837Y-38011D01*
X31907Y-37941D01*
X31910Y-37931D01*
X32034Y-37907D01*
X32147Y-37831D01*
X32747Y-37232D01*
X32747Y-37231D01*
X32823Y-37118D01*
X32849Y-36984D01*
X32850Y-36984D01*
X32850Y-36426D01*
X32965Y-36311D01*
X33049Y-36109D01*
X33049Y-39434D01*
X31537Y-39434D01*
X31403Y-39461D01*
X31289Y-39537D01*
X29699Y-41127D01*
X29699Y-41101D01*
X29699Y-40301D01*
X29661Y-40209D01*
X29591Y-40139D01*
X29500Y-40101D01*
X29401Y-40101D01*
X28801Y-40101D01*
X28709Y-40139D01*
X28639Y-40209D01*
X28601Y-40300D01*
X28601Y-40399D01*
X28601Y-41199D01*
X28639Y-41291D01*
X28689Y-41341D01*
X28659Y-41387D01*
X28632Y-41521D01*
X28632Y-42860D01*
X28659Y-42994D01*
X28704Y-43062D01*
X28587Y-43180D01*
X28522Y-43336D01*
X28522Y-43505D01*
X28586Y-43661D01*
X28706Y-43781D01*
X28862Y-43846D01*
X29031Y-43846D01*
X29087Y-43822D01*
X29076Y-43851D01*
X29075Y-43888D01*
X29137Y-43950D01*
X29450Y-43950D01*
X29500Y-43950D01*
X29600Y-43950D01*
X29650Y-43950D01*
X29963Y-43950D01*
X30025Y-43888D01*
X30024Y-43851D01*
X29986Y-43759D01*
X29977Y-43750D01*
X29986Y-43741D01*
X30024Y-43650D01*
X30024Y-43643D01*
X31351Y-42316D01*
X31351Y-42349D01*
X31351Y-42949D01*
X31389Y-43041D01*
X31459Y-43111D01*
X31550Y-43149D01*
X31649Y-43149D01*
X32449Y-43149D01*
X32541Y-43111D01*
X32580Y-43071D01*
X32755Y-43247D01*
X32756Y-43247D01*
X32759Y-43249D01*
X32759Y-43250D01*
X32755Y-43253D01*
X32580Y-43428D01*
X32541Y-43389D01*
X32450Y-43351D01*
X32351Y-43351D01*
X31551Y-43351D01*
X31459Y-43389D01*
X31389Y-43459D01*
X31351Y-43550D01*
X31351Y-43649D01*
X31351Y-44205D01*
X30000Y-44205D01*
X30024Y-44149D01*
X30025Y-44112D01*
X29963Y-44050D01*
X29650Y-44050D01*
X29600Y-44050D01*
X29500Y-44050D01*
X29450Y-44050D01*
X29137Y-44050D01*
X29075Y-44112D01*
X29076Y-44149D01*
X29099Y-44205D01*
X28577Y-44205D01*
X28125Y-43753D01*
X28012Y-43677D01*
X27920Y-43658D01*
X27924Y-43650D01*
X27924Y-43551D01*
X27924Y-43351D01*
X27886Y-43259D01*
X27877Y-43250D01*
X27886Y-43241D01*
X27924Y-43150D01*
X27924Y-43051D01*
X27924Y-42851D01*
X27920Y-42841D01*
X28012Y-42823D01*
X28125Y-42747D01*
X28201Y-42634D01*
X28228Y-42500D01*
X28228Y-41387D01*
X28291Y-41361D01*
X28361Y-41291D01*
X28399Y-41200D01*
X28399Y-41101D01*
X28399Y-40301D01*
X28361Y-40209D01*
X28291Y-40139D01*
X28200Y-40101D01*
X28101Y-40101D01*
X27501Y-40101D01*
X27409Y-40139D01*
X27339Y-40209D01*
X27301Y-40300D01*
X27301Y-40399D01*
X27301Y-41199D01*
X27339Y-41291D01*
X27409Y-41361D01*
X27500Y-41399D01*
X27509Y-41399D01*
X27527Y-41487D01*
X27528Y-41488D01*
X27528Y-42150D01*
X27450Y-42150D01*
X27445Y-42151D01*
X27176Y-42151D01*
X27084Y-42189D01*
X27014Y-42259D01*
X26976Y-42350D01*
X26976Y-42449D01*
X26976Y-42649D01*
X26976Y-42650D01*
X26897Y-42650D01*
X26600Y-42353D01*
X26487Y-42277D01*
X26399Y-42259D01*
X26399Y-42251D01*
X26361Y-42159D01*
X26291Y-42089D01*
X26200Y-42051D01*
X26101Y-42051D01*
X25301Y-42051D01*
X25209Y-42089D01*
X25139Y-42159D01*
X25101Y-42250D01*
X25101Y-42349D01*
X25101Y-42949D01*
X25139Y-43041D01*
X25209Y-43111D01*
X25300Y-43149D01*
X25399Y-43149D01*
X26199Y-43149D01*
X26291Y-43111D01*
X26330Y-43071D01*
X26505Y-43247D01*
X26506Y-43247D01*
X26509Y-43249D01*
X26509Y-43250D01*
X26505Y-43253D01*
X26330Y-43428D01*
X26291Y-43389D01*
X26200Y-43351D01*
X26101Y-43351D01*
X25301Y-43351D01*
X25209Y-43389D01*
X25139Y-43459D01*
X25101Y-43550D01*
X25101Y-43649D01*
X25101Y-44053D01*
X24350Y-44053D01*
X24350Y-38728D01*
X24350Y-38300D01*
X24349Y-38295D01*
X24349Y-38026D01*
X24311Y-37934D01*
X24241Y-37864D01*
X24150Y-37826D01*
X24110Y-37826D01*
X24110Y-37673D01*
X24046Y-37517D01*
X23926Y-37397D01*
X23770Y-37332D01*
X23601Y-37332D01*
X23445Y-37396D01*
X23335Y-37506D01*
X23263Y-37434D01*
X23107Y-37369D01*
X22938Y-37369D01*
X22782Y-37433D01*
X22662Y-37553D01*
X22657Y-37564D01*
X22634Y-37549D01*
X22500Y-37522D01*
X20516Y-37522D01*
X20049Y-37054D01*
X20049Y-36891D01*
X19965Y-36689D01*
X19811Y-36535D01*
X19726Y-36500D01*
X19811Y-36465D01*
X19965Y-36311D01*
X20049Y-36109D01*
X20049Y-35891D01*
X19965Y-35689D01*
X19811Y-35535D01*
X19726Y-35500D01*
X19811Y-35465D01*
X19965Y-35311D01*
X20049Y-35109D01*
X20049Y-34891D01*
X19965Y-34689D01*
X19811Y-34535D01*
X19609Y-34451D01*
X19391Y-34451D01*
X19189Y-34535D01*
X19035Y-34689D01*
X19000Y-34773D01*
X18965Y-34689D01*
X18850Y-34574D01*
X18850Y-34498D01*
X18907Y-34441D01*
X18945Y-34350D01*
X18945Y-34251D01*
X18945Y-33819D01*
X18916Y-33750D01*
X18945Y-33681D01*
X18946Y-33528D01*
X18946Y-33304D01*
X18946Y-32446D01*
X18884Y-32384D01*
X18550Y-32384D01*
X18550Y-32738D01*
X18612Y-32800D01*
X18647Y-32799D01*
X18746Y-32799D01*
X18837Y-32761D01*
X18907Y-32691D01*
X18945Y-32599D01*
X18946Y-32446D01*
X18946Y-33304D01*
X18945Y-33151D01*
X18907Y-33059D01*
X18837Y-32989D01*
X18746Y-32951D01*
X18647Y-32951D01*
X18612Y-32950D01*
X18550Y-33012D01*
X18550Y-33366D01*
X18884Y-33366D01*
X18946Y-33304D01*
X18946Y-33528D01*
X18884Y-33466D01*
X18600Y-33466D01*
X18550Y-33466D01*
X18450Y-33466D01*
X18450Y-33366D01*
X18450Y-33012D01*
X18450Y-32738D01*
X18450Y-32384D01*
X18116Y-32384D01*
X18054Y-32446D01*
X18055Y-32599D01*
X18093Y-32691D01*
X18163Y-32761D01*
X18254Y-32799D01*
X18353Y-32799D01*
X18388Y-32800D01*
X18450Y-32738D01*
X18450Y-33012D01*
X18388Y-32950D01*
X18353Y-32951D01*
X18254Y-32951D01*
X18163Y-32989D01*
X18093Y-33059D01*
X18055Y-33151D01*
X18054Y-33304D01*
X18116Y-33366D01*
X18450Y-33366D01*
X18450Y-33466D01*
X18400Y-33466D01*
X18116Y-33466D01*
X18054Y-33528D01*
X18055Y-33681D01*
X18083Y-33749D01*
X18055Y-33818D01*
X18055Y-33917D01*
X18055Y-34349D01*
X18093Y-34441D01*
X18150Y-34498D01*
X18150Y-34574D01*
X18035Y-34689D01*
X18000Y-34773D01*
X17965Y-34689D01*
X17850Y-34574D01*
X17850Y-34498D01*
X17907Y-34441D01*
X17945Y-34350D01*
X17945Y-34251D01*
X17945Y-33819D01*
X17916Y-33750D01*
X17945Y-33681D01*
X17946Y-33528D01*
X17946Y-33304D01*
X17946Y-32446D01*
X17884Y-32384D01*
X17550Y-32384D01*
X17550Y-32738D01*
X17612Y-32800D01*
X17647Y-32799D01*
X17746Y-32799D01*
X17837Y-32761D01*
X17907Y-32691D01*
X17945Y-32599D01*
X17946Y-32446D01*
X17946Y-33304D01*
X17945Y-33151D01*
X17907Y-33059D01*
X17837Y-32989D01*
X17746Y-32951D01*
X17647Y-32951D01*
X17612Y-32950D01*
X17550Y-33012D01*
X17550Y-33366D01*
X17884Y-33366D01*
X17946Y-33304D01*
X17946Y-33528D01*
X17884Y-33466D01*
X17600Y-33466D01*
X17550Y-33466D01*
X17450Y-33466D01*
X17450Y-33366D01*
X17450Y-33012D01*
X17450Y-32738D01*
X17450Y-32384D01*
X17116Y-32384D01*
X17054Y-32446D01*
X17055Y-32599D01*
X17093Y-32691D01*
X17163Y-32761D01*
X17254Y-32799D01*
X17353Y-32799D01*
X17388Y-32800D01*
X17450Y-32738D01*
X17450Y-33012D01*
X17388Y-32950D01*
X17353Y-32951D01*
X17254Y-32951D01*
X17163Y-32989D01*
X17093Y-33059D01*
X17055Y-33151D01*
X17054Y-33304D01*
X17116Y-33366D01*
X17450Y-33366D01*
X17450Y-33466D01*
X17400Y-33466D01*
X17116Y-33466D01*
X17054Y-33528D01*
X17055Y-33681D01*
X17083Y-33749D01*
X17055Y-33818D01*
X17055Y-33917D01*
X17055Y-34349D01*
X17093Y-34441D01*
X17150Y-34498D01*
X17150Y-34574D01*
X17035Y-34689D01*
X17000Y-34773D01*
X16965Y-34689D01*
X16850Y-34574D01*
X16850Y-34498D01*
X16907Y-34441D01*
X16945Y-34350D01*
X16945Y-34251D01*
X16945Y-33819D01*
X16916Y-33750D01*
X16945Y-33681D01*
X16946Y-33528D01*
X16946Y-33304D01*
X16946Y-32446D01*
X16884Y-32384D01*
X16550Y-32384D01*
X16550Y-32738D01*
X16612Y-32800D01*
X16647Y-32799D01*
X16746Y-32799D01*
X16837Y-32761D01*
X16907Y-32691D01*
X16945Y-32599D01*
X16946Y-32446D01*
X16946Y-33304D01*
X16945Y-33151D01*
X16907Y-33059D01*
X16837Y-32989D01*
X16746Y-32951D01*
X16647Y-32951D01*
X16612Y-32950D01*
X16550Y-33012D01*
X16550Y-33366D01*
X16884Y-33366D01*
X16946Y-33304D01*
X16946Y-33528D01*
X16884Y-33466D01*
X16600Y-33466D01*
X16550Y-33466D01*
X16450Y-33466D01*
X16450Y-33366D01*
X16450Y-33012D01*
X16450Y-32738D01*
X16450Y-32384D01*
X16116Y-32384D01*
X16054Y-32446D01*
X16055Y-32599D01*
X16093Y-32691D01*
X16163Y-32761D01*
X16254Y-32799D01*
X16353Y-32799D01*
X16388Y-32800D01*
X16450Y-32738D01*
X16450Y-33012D01*
X16388Y-32950D01*
X16353Y-32951D01*
X16254Y-32951D01*
X16163Y-32989D01*
X16093Y-33059D01*
X16055Y-33151D01*
X16054Y-33304D01*
X16116Y-33366D01*
X16450Y-33366D01*
X16450Y-33466D01*
X16400Y-33466D01*
X16116Y-33466D01*
X16054Y-33528D01*
X16055Y-33681D01*
X16083Y-33749D01*
X16055Y-33818D01*
X16055Y-33917D01*
X16055Y-34349D01*
X16093Y-34441D01*
X16150Y-34498D01*
X16150Y-34574D01*
X16035Y-34689D01*
X15951Y-34891D01*
X15951Y-35109D01*
X16035Y-35311D01*
X16175Y-35451D01*
X16151Y-35451D01*
X16059Y-35489D01*
X16053Y-35494D01*
X15646Y-35087D01*
X15533Y-35011D01*
X15421Y-34988D01*
X15445Y-34932D01*
X15445Y-34833D01*
X15445Y-34401D01*
X15407Y-34309D01*
X15337Y-34239D01*
X15246Y-34201D01*
X15147Y-34201D01*
X14755Y-34201D01*
X14663Y-34239D01*
X14593Y-34309D01*
X14590Y-34316D01*
X13895Y-34316D01*
X13761Y-34343D01*
X13647Y-34419D01*
X12897Y-35169D01*
X12879Y-35162D01*
X12621Y-35162D01*
X12382Y-35261D01*
X12200Y-35443D01*
X12101Y-35682D01*
X12101Y-35940D01*
X12200Y-36179D01*
X12382Y-36361D01*
X12621Y-36460D01*
X12879Y-36460D01*
X13118Y-36361D01*
X13300Y-36179D01*
X13399Y-35940D01*
X13399Y-35682D01*
X13391Y-35663D01*
X14039Y-35016D01*
X14576Y-35016D01*
X14555Y-35068D01*
X14555Y-35167D01*
X14555Y-35599D01*
X14593Y-35691D01*
X14663Y-35761D01*
X14754Y-35799D01*
X14853Y-35799D01*
X15245Y-35799D01*
X15333Y-35762D01*
X15666Y-36096D01*
X15674Y-36134D01*
X15750Y-36247D01*
X15863Y-36323D01*
X15951Y-36340D01*
X15951Y-36349D01*
X15989Y-36441D01*
X16059Y-36511D01*
X16150Y-36549D01*
X16175Y-36549D01*
X16074Y-36650D01*
X16065Y-36650D01*
X15931Y-36677D01*
X15817Y-36753D01*
X15333Y-37237D01*
X15246Y-37201D01*
X15147Y-37201D01*
X14755Y-37201D01*
X14663Y-37239D01*
X14593Y-37309D01*
X14555Y-37400D01*
X14555Y-37499D01*
X14555Y-37931D01*
X14576Y-37984D01*
X14039Y-37984D01*
X13391Y-37336D01*
X13399Y-37318D01*
X13399Y-37060D01*
X13300Y-36821D01*
X13118Y-36639D01*
X12879Y-36540D01*
X12621Y-36540D01*
X12382Y-36639D01*
X12200Y-36821D01*
X12101Y-37060D01*
X12101Y-37318D01*
X12200Y-37557D01*
X12382Y-37739D01*
X12621Y-37838D01*
X12879Y-37838D01*
X12897Y-37830D01*
X13647Y-38581D01*
X13648Y-38581D01*
X13761Y-38657D01*
X13895Y-38684D01*
X14590Y-38684D01*
X14593Y-38691D01*
X14663Y-38761D01*
X14754Y-38799D01*
X14853Y-38799D01*
X15245Y-38799D01*
X15337Y-38761D01*
X15407Y-38691D01*
X15445Y-38600D01*
X15445Y-38501D01*
X15445Y-38069D01*
X15421Y-38011D01*
X15533Y-37989D01*
X15646Y-37913D01*
X15980Y-37578D01*
X15951Y-37650D01*
X15951Y-37749D01*
X15951Y-38349D01*
X15989Y-38441D01*
X16059Y-38511D01*
X16116Y-38535D01*
X16093Y-38559D01*
X16055Y-38650D01*
X16055Y-38749D01*
X16055Y-39181D01*
X16083Y-39250D01*
X16055Y-39319D01*
X16054Y-39472D01*
X16116Y-39534D01*
X16400Y-39534D01*
X16450Y-39534D01*
X16550Y-39534D01*
X16600Y-39534D01*
X16884Y-39534D01*
X16946Y-39472D01*
X16945Y-39319D01*
X16916Y-39250D01*
X16945Y-39182D01*
X16945Y-39083D01*
X16945Y-38651D01*
X16907Y-38559D01*
X16882Y-38534D01*
X16941Y-38511D01*
X17011Y-38441D01*
X17049Y-38350D01*
X17049Y-38325D01*
X17150Y-38426D01*
X17150Y-38502D01*
X17093Y-38559D01*
X17055Y-38650D01*
X17055Y-38749D01*
X17055Y-39181D01*
X17083Y-39250D01*
X17055Y-39319D01*
X17054Y-39472D01*
X17116Y-39534D01*
X17400Y-39534D01*
X17450Y-39534D01*
X17550Y-39534D01*
X17600Y-39534D01*
X17884Y-39534D01*
X17946Y-39472D01*
X17945Y-39319D01*
X17916Y-39250D01*
X17945Y-39182D01*
X17945Y-39083D01*
X17945Y-38651D01*
X17907Y-38559D01*
X17850Y-38502D01*
X17850Y-38426D01*
X17965Y-38311D01*
X18000Y-38226D01*
X18035Y-38311D01*
X18150Y-38426D01*
X18150Y-38502D01*
X18093Y-38559D01*
X18055Y-38650D01*
X18055Y-38749D01*
X18055Y-39181D01*
X18083Y-39250D01*
X18055Y-39319D01*
X18054Y-39472D01*
X18116Y-39534D01*
X18400Y-39534D01*
X18450Y-39534D01*
X18550Y-39534D01*
X18600Y-39534D01*
X18884Y-39534D01*
X18946Y-39472D01*
X18945Y-39319D01*
X18916Y-39250D01*
X18945Y-39182D01*
X18945Y-39083D01*
X18945Y-38651D01*
X18907Y-38559D01*
X18850Y-38502D01*
X18850Y-38426D01*
X18965Y-38311D01*
X19000Y-38226D01*
X19035Y-38311D01*
X19189Y-38465D01*
X19391Y-38549D01*
X19609Y-38549D01*
X19811Y-38465D01*
X19965Y-38311D01*
X20049Y-38109D01*
X20049Y-38043D01*
X20124Y-38119D01*
X20125Y-38119D01*
X20238Y-38195D01*
X20372Y-38222D01*
X20700Y-38222D01*
X20581Y-38271D01*
X20461Y-38391D01*
X20396Y-38547D01*
X20396Y-38716D01*
X20460Y-38872D01*
X20580Y-38992D01*
X20736Y-39057D01*
X20812Y-39057D01*
X20813Y-39057D01*
X20916Y-39077D01*
X20917Y-39078D01*
X24000Y-39078D01*
X24134Y-39051D01*
X24247Y-38975D01*
X24323Y-38862D01*
X24350Y-38728D01*
X24350Y-44053D01*
X23900Y-44053D01*
X23900Y-42712D01*
X23900Y-42488D01*
X23899Y-42251D01*
X23861Y-42159D01*
X23791Y-42089D01*
X23700Y-42051D01*
X23700Y-40612D01*
X23700Y-40388D01*
X23699Y-40149D01*
X23699Y-40050D01*
X23661Y-39959D01*
X23591Y-39889D01*
X23499Y-39851D01*
X23262Y-39850D01*
X23200Y-39912D01*
X23200Y-40450D01*
X23638Y-40450D01*
X23700Y-40388D01*
X23700Y-40612D01*
X23638Y-40550D01*
X23200Y-40550D01*
X23200Y-41088D01*
X23262Y-41150D01*
X23499Y-41149D01*
X23591Y-41111D01*
X23661Y-41041D01*
X23699Y-40950D01*
X23699Y-40851D01*
X23700Y-40612D01*
X23700Y-42051D01*
X23601Y-42051D01*
X23362Y-42050D01*
X23300Y-42112D01*
X23300Y-42550D01*
X23838Y-42550D01*
X23900Y-42488D01*
X23900Y-42712D01*
X23838Y-42650D01*
X23300Y-42650D01*
X23300Y-43088D01*
X23362Y-43150D01*
X23601Y-43149D01*
X23700Y-43149D01*
X23791Y-43111D01*
X23861Y-43041D01*
X23899Y-42949D01*
X23900Y-42712D01*
X23900Y-44053D01*
X23899Y-44053D01*
X23899Y-43551D01*
X23861Y-43459D01*
X23791Y-43389D01*
X23700Y-43351D01*
X23601Y-43351D01*
X23200Y-43351D01*
X23200Y-43088D01*
X23200Y-42650D01*
X23200Y-42550D01*
X23200Y-42112D01*
X23138Y-42050D01*
X23100Y-42050D01*
X23100Y-41088D01*
X23100Y-40550D01*
X23100Y-40450D01*
X23100Y-39912D01*
X23038Y-39850D01*
X22801Y-39851D01*
X22709Y-39889D01*
X22639Y-39959D01*
X22601Y-40050D01*
X22601Y-40149D01*
X22600Y-40388D01*
X22662Y-40450D01*
X23100Y-40450D01*
X23100Y-40550D01*
X22662Y-40550D01*
X22600Y-40612D01*
X22601Y-40851D01*
X22601Y-40950D01*
X22639Y-41041D01*
X22709Y-41111D01*
X22801Y-41149D01*
X23038Y-41150D01*
X23100Y-41088D01*
X23100Y-42050D01*
X22899Y-42051D01*
X22800Y-42051D01*
X22709Y-42089D01*
X22639Y-42159D01*
X22601Y-42251D01*
X22600Y-42488D01*
X22662Y-42550D01*
X23200Y-42550D01*
X23200Y-42650D01*
X22662Y-42650D01*
X22600Y-42712D01*
X22601Y-42949D01*
X22639Y-43041D01*
X22709Y-43111D01*
X22800Y-43149D01*
X22899Y-43149D01*
X23138Y-43150D01*
X23200Y-43088D01*
X23200Y-43351D01*
X22801Y-43351D01*
X22709Y-43389D01*
X22639Y-43459D01*
X22601Y-43550D01*
X21483Y-43550D01*
X21330Y-43396D01*
X21338Y-43379D01*
X21338Y-43121D01*
X21239Y-42882D01*
X21057Y-42700D01*
X20818Y-42601D01*
X20560Y-42601D01*
X20379Y-42675D01*
X21594Y-41462D01*
X21594Y-41461D01*
X21670Y-41348D01*
X21696Y-41214D01*
X21697Y-41214D01*
X21697Y-41149D01*
X22199Y-41149D01*
X22291Y-41111D01*
X22361Y-41041D01*
X22399Y-40950D01*
X22399Y-40851D01*
X22399Y-40051D01*
X22361Y-39959D01*
X22291Y-39889D01*
X22200Y-39851D01*
X22101Y-39851D01*
X21501Y-39851D01*
X21409Y-39889D01*
X21339Y-39959D01*
X21301Y-40050D01*
X21301Y-40149D01*
X21301Y-40159D01*
X21213Y-40177D01*
X21100Y-40253D01*
X21024Y-40366D01*
X20997Y-40500D01*
X20997Y-41069D01*
X19458Y-42608D01*
X19440Y-42601D01*
X19182Y-42601D01*
X18946Y-42698D01*
X18946Y-39696D01*
X18884Y-39634D01*
X18550Y-39634D01*
X18550Y-39988D01*
X18612Y-40050D01*
X18647Y-40049D01*
X18746Y-40049D01*
X18837Y-40011D01*
X18907Y-39941D01*
X18945Y-39849D01*
X18946Y-39696D01*
X18946Y-42698D01*
X18943Y-42700D01*
X18761Y-42882D01*
X18662Y-43121D01*
X18662Y-43379D01*
X18761Y-43618D01*
X18943Y-43800D01*
X19182Y-43899D01*
X19440Y-43899D01*
X19679Y-43800D01*
X19861Y-43618D01*
X19960Y-43379D01*
X19960Y-43121D01*
X19952Y-43102D01*
X20114Y-42940D01*
X20040Y-43121D01*
X20040Y-43379D01*
X20139Y-43618D01*
X20321Y-43800D01*
X20560Y-43899D01*
X20818Y-43899D01*
X20835Y-43891D01*
X21091Y-44147D01*
X21092Y-44147D01*
X21205Y-44223D01*
X21339Y-44250D01*
X22601Y-44250D01*
X22639Y-44341D01*
X22709Y-44411D01*
X22800Y-44449D01*
X22899Y-44449D01*
X22909Y-44449D01*
X22909Y-44450D01*
X18580Y-44450D01*
X18580Y-43353D01*
X18570Y-43099D01*
X18493Y-42910D01*
X18450Y-42894D01*
X18450Y-39988D01*
X18450Y-39634D01*
X18116Y-39634D01*
X18054Y-39696D01*
X18055Y-39849D01*
X18093Y-39941D01*
X18163Y-40011D01*
X18254Y-40049D01*
X18353Y-40049D01*
X18388Y-40050D01*
X18450Y-39988D01*
X18450Y-42894D01*
X18388Y-42872D01*
X18317Y-42943D01*
X18317Y-42801D01*
X18279Y-42696D01*
X18042Y-42609D01*
X17946Y-42612D01*
X17946Y-39696D01*
X17884Y-39634D01*
X17550Y-39634D01*
X17550Y-39988D01*
X17612Y-40050D01*
X17647Y-40049D01*
X17746Y-40049D01*
X17837Y-40011D01*
X17907Y-39941D01*
X17945Y-39849D01*
X17946Y-39696D01*
X17946Y-42612D01*
X17788Y-42619D01*
X17599Y-42696D01*
X17561Y-42801D01*
X17939Y-43179D01*
X18317Y-42801D01*
X18317Y-42943D01*
X18010Y-43250D01*
X18388Y-43628D01*
X18493Y-43590D01*
X18580Y-43353D01*
X18580Y-44450D01*
X18317Y-44450D01*
X18317Y-43699D01*
X17939Y-43321D01*
X17868Y-43392D01*
X17868Y-43250D01*
X17490Y-42872D01*
X17450Y-42886D01*
X17450Y-39988D01*
X17450Y-39634D01*
X17116Y-39634D01*
X17054Y-39696D01*
X17055Y-39849D01*
X17093Y-39941D01*
X17163Y-40011D01*
X17254Y-40049D01*
X17353Y-40049D01*
X17388Y-40050D01*
X17450Y-39988D01*
X17450Y-42886D01*
X17385Y-42910D01*
X17298Y-43147D01*
X17308Y-43401D01*
X17385Y-43590D01*
X17490Y-43628D01*
X17868Y-43250D01*
X17868Y-43392D01*
X17561Y-43699D01*
X17599Y-43804D01*
X17836Y-43891D01*
X18090Y-43881D01*
X18279Y-43804D01*
X18317Y-43699D01*
X18317Y-44450D01*
X17210Y-44450D01*
X17210Y-43379D01*
X17210Y-43121D01*
X17111Y-42882D01*
X16946Y-42717D01*
X16946Y-39696D01*
X16884Y-39634D01*
X16550Y-39634D01*
X16550Y-39988D01*
X16612Y-40050D01*
X16647Y-40049D01*
X16746Y-40049D01*
X16837Y-40011D01*
X16907Y-39941D01*
X16945Y-39849D01*
X16946Y-39696D01*
X16946Y-42717D01*
X16929Y-42700D01*
X16690Y-42601D01*
X16450Y-42601D01*
X16450Y-39988D01*
X16450Y-39634D01*
X16116Y-39634D01*
X16054Y-39696D01*
X16055Y-39849D01*
X16093Y-39941D01*
X16163Y-40011D01*
X16254Y-40049D01*
X16353Y-40049D01*
X16388Y-40050D01*
X16450Y-39988D01*
X16450Y-42601D01*
X16432Y-42601D01*
X16193Y-42700D01*
X16011Y-42882D01*
X15912Y-43121D01*
X15912Y-43379D01*
X16011Y-43618D01*
X16193Y-43800D01*
X16432Y-43899D01*
X16690Y-43899D01*
X16929Y-43800D01*
X17111Y-43618D01*
X17210Y-43379D01*
X17210Y-44450D01*
X15830Y-44450D01*
X15830Y-43353D01*
X15820Y-43099D01*
X15743Y-42910D01*
X15638Y-42872D01*
X15567Y-42943D01*
X15567Y-42801D01*
X15529Y-42696D01*
X15292Y-42609D01*
X15038Y-42619D01*
X14849Y-42696D01*
X14811Y-42801D01*
X15189Y-43179D01*
X15567Y-42801D01*
X15567Y-42943D01*
X15260Y-43250D01*
X15638Y-43628D01*
X15743Y-43590D01*
X15830Y-43353D01*
X15830Y-44450D01*
X15567Y-44450D01*
X15567Y-43699D01*
X15189Y-43321D01*
X15118Y-43392D01*
X15118Y-43250D01*
X14740Y-42872D01*
X14635Y-42910D01*
X14548Y-43147D01*
X14558Y-43401D01*
X14635Y-43590D01*
X14740Y-43628D01*
X15118Y-43250D01*
X15118Y-43392D01*
X14811Y-43699D01*
X14849Y-43804D01*
X15086Y-43891D01*
X15340Y-43881D01*
X15529Y-43804D01*
X15567Y-43699D01*
X15567Y-44450D01*
X14460Y-44450D01*
X14460Y-43379D01*
X14460Y-43121D01*
X14361Y-42882D01*
X14179Y-42700D01*
X13940Y-42601D01*
X13682Y-42601D01*
X13443Y-42700D01*
X13261Y-42882D01*
X13162Y-43121D01*
X13162Y-43379D01*
X13261Y-43618D01*
X13443Y-43800D01*
X13682Y-43899D01*
X13940Y-43899D01*
X14179Y-43800D01*
X14361Y-43618D01*
X14460Y-43379D01*
X14460Y-44450D01*
X11550Y-44450D01*
X11550Y-10550D01*
X45450Y-10550D01*
X45450Y-19364D01*
M02*
